<?xml version="1.0" encoding="UTF-8"?>
<svg width="29px" height="33px" viewBox="0 0 29 33" version="1.1" xmlns="http://www.w3.org/2000/svg" xmlns:xlink="http://www.w3.org/1999/xlink">
    <!-- Generator: Sketch 40.3 (33839) - http://www.bohemiancoding.com/sketch -->
    <title>icon-plugins</title>
    <desc>Created with Sketch.</desc>
    <defs>
        <polygon id="path-1" points="0.000196553485 33 28.4 33 28.4 0.2774 0.000196553485 0.2774 0.000196553485 33"></polygon>
    </defs>
    <g id="Symbols" stroke="none" stroke-width="1" fill="none" fill-rule="evenodd">
        <g id="cabecera-color" transform="translate(-936.000000, -23.000000)">
            <g id="icon-plugins" transform="translate(936.090909, 22.000000)">
                <g id="Group-3" transform="translate(0.000000, 0.722800)">
                    <mask id="mask-2" fill="white">
                        <use xlink:href="#path-1"></use>
                    </mask>
                    <g id="Clip-2"></g>
                    <path d="M24.5569,30.0864 C24.4879,30.6074 24.0399,31.0004 23.5149,31.0004 L5.2439,31.0004 C4.7229,31.0004 4.2869,30.6274 4.2049,30.1134 L2.0099,16.2154 C1.9609,15.9064 2.0459,15.6064 2.2489,15.3684 C2.4529,15.1304 2.7359,15.0004 3.0479,15.0004 L25.3509,15.0004 C25.6589,15.0004 25.9399,15.1274 26.1419,15.3584 C26.3439,15.5894 26.4339,15.8844 26.3939,16.1894 L24.5569,30.0864 Z M7.3659,5.3684 C7.4009,5.2994 7.4539,5.2454 7.5169,5.2074 C7.8909,5.7194 8.8499,6.0224 10.2119,6.0224 C11.6239,6.0224 12.5979,5.6954 12.9399,5.1494 L15.1019,5.1494 C15.4439,5.6954 16.4189,6.0224 17.8299,6.0224 C19.2409,6.0224 20.2149,5.6954 20.5579,5.1494 L20.5629,5.1494 C20.7129,5.1494 20.8499,5.2324 20.9199,5.3654 L24.9349,13.0004 L3.4189,13.0004 L7.3659,5.3684 Z M28.2009,15.0004 L28.2449,15.0004 L22.6909,4.4354 C22.2959,3.6844 21.5409,3.2184 20.7019,3.1694 L20.7019,1.1504 C20.7029,1.1394 20.7129,1.1294 20.7129,1.1184 C20.7129,0.6544 19.4209,0.2774 17.8269,0.2774 C16.2329,0.2774 14.9409,0.6544 14.9409,1.1184 C14.9409,1.1354 14.9549,1.1514 14.9579,1.1674 L14.9579,3.1494 L13.0839,3.1494 L13.0839,1.1504 C13.0859,1.1394 13.0949,1.1294 13.0949,1.1184 C13.0949,0.6544 11.8029,0.2774 10.2089,0.2774 C8.6159,0.2774 7.3239,0.6544 7.3239,1.1184 C7.3239,1.1354 7.3369,1.1514 7.3399,1.1674 L7.3399,3.2024 C6.5979,3.3234 5.9439,3.7644 5.5889,4.4484 L0.1339,15.0004 L0.2009,15.0004 C0.0219,15.4844 -0.0481,16.0054 0.0349,16.5274 L2.2309,30.4254 C2.4659,31.9174 3.7329,33.0004 5.2439,33.0004 L23.5149,33.0004 C25.0389,33.0004 26.3399,31.8594 26.5389,30.3484 L28.3759,16.4504 C28.4419,15.9534 28.3709,15.4594 28.2009,15.0004 L28.2009,15.0004 Z" id="Fill-1" fill="#FFFFFF" mask="url(#mask-2)"></path>
                </g>
                <path d="M9.6356,7.9027 C7.7256,7.9027 6.1776,8.3547 6.1776,8.9117 C6.1776,8.9317 6.1936,8.9497 6.1976,8.9697 L6.1976,11.9967 C6.1976,12.9787 7.5166,13.5887 9.6396,13.5887 C11.7616,13.5887 13.0806,12.9787 13.0806,11.9967 L13.0806,8.9487 C13.0826,8.9357 13.0936,8.9237 13.0936,8.9117 C13.0936,8.3547 11.5456,7.9027 9.6356,7.9027" id="Fill-4" fill="#FFFFFF"></path>
                <path d="M18.7634,7.9027 C16.8534,7.9027 15.3054,8.3547 15.3054,8.9117 C15.3054,8.9317 15.3214,8.9497 15.3254,8.9697 L15.3254,11.9967 C15.3254,12.9787 16.6444,13.5887 18.7674,13.5887 C20.8894,13.5887 22.2084,12.9787 22.2084,11.9967 L22.2084,8.9487 C22.2104,8.9357 22.2214,8.9237 22.2214,8.9117 C22.2214,8.3547 20.6734,7.9027 18.7634,7.9027" id="Fill-6" fill="#FFFFFF"></path>
            </g>
        </g>
    </g>
</svg>