<?xml version="1.0" encoding="utf-8"?>
<!-- Generator: Adobe Illustrator 20.1.0, SVG Export Plug-In . SVG Version: 6.00 Build 0)  -->
<svg version="1.1" id="Capa_1" xmlns="http://www.w3.org/2000/svg" xmlns:xlink="http://www.w3.org/1999/xlink" x="0px" y="0px"
	 viewBox="0 0 209.1 27.9" style="enable-background:new 0 0 209.1 27.9;" xml:space="preserve">
<style type="text/css">
	.st0{fill:#FFFFFF;}
</style>
<g id="background">
</g>
<g id="resultados">
</g>
<g id="icono_bandera_españa">
</g>
<g>
	<path class="st0" d="M129.3,8.5c2.7,0,4.9,0.9,6.7,2.7c1.8,1.8,2.7,4.1,2.7,6.8c0,2.7-0.9,5-2.7,6.8s-4,2.7-6.7,2.7
		c-2.7,0-4.9-0.9-6.7-2.7c-1.8-1.8-2.7-4.1-2.7-6.8s0.9-5,2.7-6.8C124.4,9.4,126.6,8.5,129.3,8.5z M129.3,25.6
		c2.1,0,3.8-0.7,5.2-2.2c1.4-1.5,2.1-3.3,2.1-5.4s-0.7-4-2.1-5.4c-1.4-1.5-3.1-2.2-5.2-2.2s-3.8,0.7-5.2,2.2
		c-1.4,1.5-2.1,3.3-2.1,5.5c0,2.2,0.7,4,2.1,5.4C125.5,24.9,127.2,25.6,129.3,25.6z"/>
	<path class="st0" d="M11,10.3v2.1c-1.9-1.3-3.5-1.9-5-1.9c-1.1,0-2.1,0.3-2.8,0.9C2.4,12.1,2,12.9,2,13.7c0,0.6,0.3,1.2,0.7,1.7
		s1.7,1.2,3.8,2c2.1,0.8,3.4,1.7,4.1,2.5c0.7,0.9,1,1.8,1,2.9c0,1.4-0.6,2.6-1.8,3.6c-1.2,1-2.6,1.5-4.3,1.5c-1.9,0-3.7-0.6-5.5-1.7
		v-1.9C2.2,25.5,4.1,26,5.8,26c1.2,0,2.1-0.3,2.8-0.9c0.7-0.6,1.1-1.4,1.1-2.3c0-0.7-0.3-1.2-0.7-1.8S7.2,19.8,5.1,19
		c-2.1-0.8-3.4-1.7-4.1-2.5c-0.6-0.8-0.9-1.7-0.9-2.7c0-1.4,0.6-2.6,1.7-3.6c1.2-1,2.6-1.5,4.2-1.5C7.6,8.8,9.2,9.3,11,10.3z"/>
	<path class="st0" d="M208.6,10.3v2.1c-1.9-1.3-3.5-1.9-5-1.9c-1.1,0-2.1,0.3-2.8,0.9c-0.8,0.6-1.2,1.4-1.2,2.2
		c0,0.6,0.3,1.2,0.7,1.7s1.7,1.2,3.8,2c2.1,0.8,3.4,1.7,4.1,2.5s1,1.8,1,2.9c0,1.4-0.6,2.6-1.8,3.6c-1.2,1-2.6,1.5-4.3,1.5
		c-1.9,0-3.7-0.6-5.5-1.7v-1.9c2.2,1.1,4.1,1.7,5.8,1.7c1.1,0,2.1-0.3,2.8-0.9s1.1-1.4,1.1-2.3c0-0.7-0.3-1.2-0.7-1.8
		c-0.5-0.6-1.8-1.2-3.8-2.1c-2.1-0.8-3.4-1.7-4.1-2.5c-0.6-0.8-0.9-1.7-0.9-2.7c0-1.4,0.6-2.6,1.7-3.6c1.2-1,2.6-1.5,4.2-1.5
		C205.2,8.8,206.8,9.3,208.6,10.3z"/>
	<path class="st0" d="M40.7,8.8c-2.1,0-3.8,0.7-5,2v-2h-1.9v7.5v0.8v10.7h2V17.1c0-4.2,1.7-6.3,4.9-6.3c1.5,0,2.6,0.5,3.5,1.3
		l1.7-1.2C44.5,9.5,42.7,8.8,40.7,8.8z"/>
	<path class="st0" d="M91.6,8.8c-2.1,0-3.8,0.7-5,2v-2h-1.9v7.5v0.8v10.7h2V17.1c0-4.2,1.7-6.3,4.9-6.3c1.5,0,2.6,0.5,3.5,1.3
		l1.7-1.2C95.5,9.5,93.7,8.8,91.6,8.8z"/>
	<path class="st0" d="M170.3,8.8c-2.1,0-3.8,0.7-5,2v-2h-1.9v7.5v0.8v10.7h2V17.1c0-4.2,1.7-6.3,4.9-6.3c1.5,0,2.6,0.5,3.5,1.3
		l1.7-1.2C174.1,9.5,172.3,8.8,170.3,8.8z"/>
	<path class="st0" d="M117.8,18.3c0-2.7-0.9-5-2.7-6.8s-4-2.7-6.7-2.7c-2.7,0-4.9,0.9-6.7,2.7c-0.3,0.3-0.5,0.6-0.7,0.8V0h-2v27.9h2
		v-3.6c0.2,0.3,0.5,0.6,0.7,0.8c1.8,1.8,4,2.7,6.7,2.7c2.7,0,4.9-0.9,6.7-2.7C116.9,23.3,117.8,21,117.8,18.3z M115.7,18.3
		c0,2.2-0.7,4-2.1,5.4c-1.4,1.5-3.1,2.2-5.2,2.2s-3.8-0.7-5.2-2.2c-1.4-1.5-2.1-3.3-2.1-5.5c0-2.2,0.7-4,2.1-5.4
		c1.4-1.5,3.1-2.2,5.2-2.2c2.1,0,3.8,0.7,5.2,2.2C115,14.3,115.7,16.1,115.7,18.3z"/>
	<path class="st0" d="M178.3,25.1c1.8,1.8,4,2.7,6.7,2.7c2.7,0,4.9-0.9,6.7-2.7c0.3-0.3,0.5-0.6,0.7-0.8v3.6h2V0h-2v12.4
		c-0.2-0.3-0.5-0.6-0.7-0.8c-1.8-1.8-4-2.7-6.7-2.7c-2.7,0-4.9,0.9-6.7,2.7c-1.8,1.8-2.7,4.1-2.7,6.8
		C175.7,21,176.5,23.3,178.3,25.1z M179.8,12.9c1.4-1.5,3.1-2.2,5.2-2.2s3.8,0.7,5.2,2.2c1.4,1.5,2.1,3.3,2.1,5.4
		c0,2.2-0.7,4-2.1,5.5c-1.4,1.5-3.1,2.2-5.2,2.2c-2.1,0-3.8-0.8-5.2-2.2s-2.1-3.3-2.1-5.4C177.7,16.1,178.4,14.3,179.8,12.9z"/>
	<polygon class="st0" points="62.2,8.8 55.6,25.7 49,8.8 47.2,8.8 54.4,27.9 56.8,27.9 64,8.8 	"/>
	<path class="st0" d="M159.6,17.8c-0.1-2.7-0.9-4.9-2.7-6.6c-1.8-1.8-4-2.7-6.7-2.7c-2.7,0-4.9,0.9-6.7,2.7
		c-1.8,1.8-2.7,4.1-2.7,6.8c0,2.7,0.9,5,2.7,6.8c1.8,1.8,4,2.7,6.7,2.7c2.7,0,4.9-0.9,6.7-2.7c0.2-0.2,0.4-0.5,0.6-0.7v3.7h2.1V17.8
		L159.6,17.8z M155.5,23.5c-1.4,1.5-3.1,2.2-5.2,2.2s-3.8-0.7-5.2-2.2c-1.4-1.5-2.1-3.3-2.1-5.4c0-2.2,0.7-4,2.1-5.5
		s3.1-2.2,5.2-2.2c2.1,0,3.8,0.8,5.2,2.2c1.4,1.5,2.1,3.3,2.1,5.4v0.1C157.5,20.2,156.9,22,155.5,23.5z"/>
	<path class="st0" d="M31.7,18c0-2.7-0.9-5-2.7-6.8s-4-2.7-6.7-2.7s-4.9,0.9-6.7,2.7C13.9,13,13,15.3,13,18c0,2.7,0.9,5,2.7,6.8
		c1.8,1.8,4,2.7,6.7,2.7v-1.9c-2.1,0-3.8-0.7-5.2-2.2C15.7,22,15,20.2,15,18c0-2.2,0.7-4,2.1-5.5c1.4-1.5,3.1-2.2,5.2-2.2
		c2.1,0,3.8,0.8,5.2,2.2c1.4,1.5,2.1,3.3,2.1,5.4h-7.3v1.9h9.3L31.7,18L31.7,18z"/>
	<path class="st0" d="M82.4,18c0-2.7-0.9-5-2.7-6.8s-4-2.7-6.7-2.7c-2.7,0-4.9,0.9-6.7,2.7c-1.8,1.8-2.7,4.1-2.7,6.8
		c0,2.7,0.9,5,2.7,6.8c1.8,1.8,4,2.7,6.7,2.7v-1.9c-2.1,0-3.8-0.7-5.2-2.2c-1.4-1.5-2.1-3.3-2.1-5.4c0-2.2,0.7-4,2.1-5.5
		s3.1-2.2,5.2-2.2c2.1,0,3.8,0.8,5.2,2.2c1.4,1.5,2.1,3.3,2.1,5.4H73v1.9h9.3L82.4,18L82.4,18z"/>
</g>
</svg>
