<?xml version="1.0" encoding="utf-8"?>
<!-- Generator: Adobe Illustrator 20.1.0, SVG Export Plug-In . SVG Version: 6.00 Build 0)  -->
<svg version="1.1" id="Capa_1" xmlns="http://www.w3.org/2000/svg" xmlns:xlink="http://www.w3.org/1999/xlink" x="0px" y="0px"
	 viewBox="0 0 70 35.9" style="enable-background:new 0 0 70 35.9;" xml:space="preserve">
<style type="text/css">
	.st0{fill:#93D7FF;}
	.st1{fill:#FFE985;}
	.st2{fill:#FF908D;}
	.st3{fill:#72D496;}
	.st4{fill:#FFE696;}
	.st5{fill:#D1D3D4;}
	.st6{fill:#A7A9AC;}
</style>
<g>
	<circle class="st0" cx="56.4" cy="12.1" r="2.1"/>
	<rect x="67" y="32.2" class="st1" width="2.7" height="2.7"/>
	<rect x="5.9" y="7.3" transform="matrix(0.8278 -0.561 0.561 0.8278 -3.6394 5.6052)" class="st2" width="2.8" height="2.8"/>
	<rect x="15.4" y="1.3" transform="matrix(0.7071 -0.7071 0.7071 0.7071 2.7798 13.2411)" class="st3" width="3.9" height="3.9"/>
	<path d="M30,25.8h-5.9c-0.2,0-0.4-0.2-0.4-0.4c0-0.2,0.2-0.4,0.4-0.4H30c0.2,0,0.4,0.2,0.4,0.4C30.4,25.6,30.2,25.8,30,25.8z"/>
	<path d="M5.1,25.4H1.2c-0.2,0-0.4-0.2-0.4-0.4s0.2-0.4,0.4-0.4h3.8c0.2,0,0.4,0.2,0.4,0.4S5.3,25.4,5.1,25.4z"/>
	<path d="M66.5,22.1h-5.9c-0.2,0-0.4-0.2-0.4-0.4c0-0.2,0.2-0.4,0.4-0.4h5.9c0.2,0,0.4,0.2,0.4,0.4C66.9,21.9,66.7,22.1,66.5,22.1z"
		/>
	<path d="M26.9,22.5H0.7c-0.2,0-0.4-0.2-0.4-0.4c0-0.2,0.2-0.4,0.4-0.4h26.2c0.2,0,0.4,0.2,0.4,0.4C27.4,22.3,27.2,22.5,26.9,22.5z"
		/>
	<path d="M65.9,26.4h-15c-0.3,0-0.6-0.3-0.6-0.6c0-0.3,0.3-0.6,0.6-0.6h15c0.3,0,0.6,0.3,0.6,0.6C66.5,26.1,66.2,26.4,65.9,26.4z"/>
	<g>
		<g>
			<path class="st4" d="M47.5,16.6c0-4.8-3.9-8.8-8.8-8.8c-4.8,0-8.8,3.9-8.8,8.8c0,2.9,1.4,5.5,3.6,7.1l0,0c0,0,0,0,0.1,0
				c0.2,0.1,0.3,0.2,0.5,0.3c0.6,0.4,1.3,1.3,1.3,2.6v2.2h6.7v-2.2c0-1.3,0.8-2.2,1.3-2.6c0.2-0.1,0.3-0.2,0.5-0.3c0,0,0.1,0,0.1,0
				l0,0C46.1,22,47.5,19.5,47.5,16.6z"/>
			<path d="M42.1,29h-6.7c-0.1,0-0.2-0.1-0.2-0.2v-2.2c0-1.2-0.7-2-1.3-2.4c-0.1-0.1-0.3-0.2-0.5-0.3l0,0c0,0-0.1,0-0.1-0.1
				c-2.3-1.7-3.6-4.4-3.6-7.2c0-4.9,4-9,9-9c4.9,0,9,4,9,9c0,2.8-1.4,5.5-3.6,7.2c0,0,0,0-0.1,0.1l-0.1,0c-0.1,0.1-0.3,0.2-0.4,0.3
				c-0.6,0.4-1.2,1.2-1.2,2.4v2.2C42.3,28.9,42.2,29,42.1,29z M35.6,28.6h6.2v-2c0-1.4,0.9-2.3,1.4-2.8c0.2-0.1,0.3-0.2,0.5-0.3l0,0
				c0,0,0,0,0,0c2.2-1.6,3.5-4.2,3.5-6.9c0-4.7-3.8-8.6-8.6-8.6c-4.7,0-8.6,3.8-8.6,8.6c0,2.7,1.3,5.3,3.5,6.9c0,0,0,0,0,0
				c0.2,0.1,0.3,0.2,0.5,0.3c0.5,0.4,1.4,1.3,1.4,2.8V28.6z"/>
		</g>
		<g>
			<g>
				<path class="st5" d="M35.5,35.2H42c0.6-0.5,1-1.2,1.3-1.9h-9.1C34.5,34,34.9,34.7,35.5,35.2z"/>
				<path d="M42,35.4h-6.5c-0.1,0-0.1,0-0.1-0.1c-0.6-0.6-1.1-1.3-1.3-2c0-0.1,0-0.1,0-0.2c0-0.1,0.1-0.1,0.2-0.1h9.1
					c0.1,0,0.1,0,0.2,0.1c0,0.1,0,0.1,0,0.2c-0.3,0.8-0.7,1.5-1.4,2C42.1,35.4,42.1,35.4,42,35.4z M35.6,35h6.4
					c0.5-0.4,0.8-1,1.1-1.5h-8.5C34.8,34.1,35.1,34.6,35.6,35z"/>
			</g>
			<g>
				<path class="st6" d="M43.6,31.3h-9.7v0.4c0,0.6,0.1,1.1,0.3,1.6h9.1c0.2-0.5,0.3-1.1,0.3-1.6V31.3z"/>
				<path d="M43.3,33.5h-9.1c-0.1,0-0.2-0.1-0.2-0.1c-0.2-0.6-0.3-1.1-0.3-1.7v-0.4c0-0.1,0.1-0.2,0.2-0.2h9.7
					c0.1,0,0.2,0.1,0.2,0.2v0.4c0,0.6-0.1,1.1-0.3,1.7C43.5,33.4,43.4,33.5,43.3,33.5z M34.4,33.1h8.8c0.2-0.5,0.2-0.9,0.2-1.4v-0.2
					h-9.3v0.2C34.1,32.1,34.2,32.6,34.4,33.1z"/>
			</g>
			<g>
				<rect x="33.9" y="28.8" class="st5" width="9.7" height="2.5"/>
				<path d="M43.6,31.5h-9.7c-0.1,0-0.2-0.1-0.2-0.2v-2.5c0-0.1,0.1-0.2,0.2-0.2h9.7c0.1,0,0.2,0.1,0.2,0.2v2.5
					C43.8,31.4,43.7,31.5,43.6,31.5z M34.1,31.1h9.3V29h-9.3V31.1z"/>
			</g>
		</g>
		<g>
			<path d="M38.3,19.6C38.3,19.6,38.3,19.6,38.3,19.6l-2.4-1.3v1.8l3,3.1c0,0,0.1,0.1,0.1,0.1v5.4c0,0.1-0.1,0.2-0.2,0.2
				c-0.1,0-0.2-0.1-0.2-0.2v-5.3l-3-3.1c0,0-0.1-0.1-0.1-0.1V18c0-0.1,0-0.1,0.1-0.2c0.1,0,0.1,0,0.2,0l2.6,1.4"/>
			<path d="M41.6,19.4"/>
		</g>
	</g>
</g>
</svg>
