<?xml version="1.0" encoding="utf-8"?>
<!-- Generator: Adobe Illustrator 20.1.0, SVG Export Plug-In . SVG Version: 6.00 Build 0)  -->
<svg version="1.1" id="Capa_1" xmlns="http://www.w3.org/2000/svg" xmlns:xlink="http://www.w3.org/1999/xlink" x="0px" y="0px"
	 viewBox="0 0 155 90" style="enable-background:new 0 0 155 90;" xml:space="preserve">
<style type="text/css">
	.st0{fill:#93D7FF;}
	.st1{fill:#FF908D;}
	.st2{fill:#FFE985;}
	.st3{fill:#72D496;}
	.st4{fill:#E6E7E8;}
	.st5{fill:#808285;}
	.st6{fill:#666666;}
	.st7{fill:#6EBEC5;}
</style>
<g>
	<g>
		<g>
			<path class="st0" d="M141.4,26.4c0.2-0.6,0.3-1.1,0.3-1.7c0-3.4-2.7-6.1-6.1-6.1h-0.9c-0.5-5.7-5.3-10.1-11.1-10.1
				c-4.8,0-8.9,3-10.5,7.3c-0.5-0.3-1.1-0.4-1.8-0.4c-2.2,0-4,1.8-4,4c0,0.5,0.1,1,0.3,1.5h-1.3c-2.7,0-5,2.2-5,5
				c0,0.2,0,0.4,0.1,0.6H141.4z"/>
			<path d="M141.4,26.7h-40c-0.1,0-0.3-0.1-0.3-0.2l0-0.1c0-0.2,0-0.3,0-0.5c0-2.9,2.4-5.2,5.2-5.2h0.9c-0.1-0.4-0.2-0.8-0.2-1.2
				c0-2.4,1.9-4.3,4.3-4.3c0.6,0,1.1,0.1,1.6,0.3c1.7-4.3,6-7.2,10.6-7.2c5.9,0,10.7,4.3,11.4,10.1h0.6c3.5,0,6.4,2.9,6.4,6.4
				c0,0.6-0.1,1.2-0.3,1.8C141.6,26.6,141.5,26.7,141.4,26.7z M101.6,26.1h39.6c0.1-0.5,0.2-1,0.2-1.5c0-3.2-2.6-5.8-5.8-5.8h-0.9
				c-0.1,0-0.3-0.1-0.3-0.3c-0.5-5.6-5.2-9.9-10.8-9.9c-4.5,0-8.6,2.9-10.2,7.1c0,0.1-0.1,0.1-0.2,0.2c-0.1,0-0.2,0-0.2,0
				c-0.5-0.3-1.1-0.4-1.6-0.4c-2.1,0-3.8,1.7-3.8,3.7c0,0.5,0.1,0.9,0.3,1.4c0,0.1,0,0.2,0,0.3c-0.1,0.1-0.1,0.1-0.2,0.1h-1.3
				c-2.6,0-4.7,2.1-4.7,4.7C101.5,25.9,101.5,26,101.6,26.1z"/>
		</g>
		<g>
			<path d="M101.3,26.7h-3.4c-0.2,0-0.3-0.1-0.3-0.3s0.1-0.3,0.3-0.3h3.4c0.2,0,0.3,0.1,0.3,0.3S101.5,26.7,101.3,26.7z"/>
		</g>
		<g>
			<path d="M94.8,26.7h-2.3c-0.2,0-0.3-0.1-0.3-0.3s0.1-0.3,0.3-0.3h2.3c0.2,0,0.3,0.1,0.3,0.3S94.9,26.7,94.8,26.7z"/>
		</g>
		<g>
			<path d="M153.3,22.2h-4.7c-0.3,0-0.6-0.3-0.6-0.6c0-0.3,0.3-0.6,0.6-0.6h4.7c0.3,0,0.6,0.3,0.6,0.6
				C153.9,21.9,153.7,22.2,153.3,22.2z"/>
		</g>
		<g>
			<path d="M146.4,26.7h-5c-0.2,0-0.3-0.1-0.3-0.3s0.1-0.3,0.3-0.3h5c0.2,0,0.3,0.1,0.3,0.3S146.6,26.7,146.4,26.7z"/>
		</g>
		<g>
			<circle class="st1" cx="113.6" cy="20.9" r="1.9"/>
			<path d="M113.6,23c-1.2,0-2.2-1-2.2-2.2c0-1.2,1-2.2,2.2-2.2s2.2,1,2.2,2.2C115.8,22.1,114.8,23,113.6,23z M113.6,19.3
				c-0.9,0-1.6,0.7-1.6,1.6c0,0.9,0.7,1.6,1.6,1.6c0.9,0,1.6-0.7,1.6-1.6C115.2,20,114.5,19.3,113.6,19.3z"/>
		</g>
		<g>
			<circle class="st2" cx="121.4" cy="20.9" r="1.9"/>
			<path d="M121.4,23c-1.2,0-2.2-1-2.2-2.2c0-1.2,1-2.2,2.2-2.2c1.2,0,2.2,1,2.2,2.2C123.6,22.1,122.6,23,121.4,23z M121.4,19.3
				c-0.9,0-1.6,0.7-1.6,1.6c0,0.9,0.7,1.6,1.6,1.6s1.6-0.7,1.6-1.6C123.1,20,122.3,19.3,121.4,19.3z"/>
		</g>
		<g>
			<circle class="st3" cx="129.3" cy="20.9" r="1.9"/>
			<path d="M129.3,23c-1.2,0-2.2-1-2.2-2.2c0-1.2,1-2.2,2.2-2.2c1.2,0,2.2,1,2.2,2.2C131.5,22.1,130.5,23,129.3,23z M129.3,19.3
				c-0.9,0-1.6,0.7-1.6,1.6c0,0.9,0.7,1.6,1.6,1.6c0.9,0,1.6-0.7,1.6-1.6C130.9,20,130.2,19.3,129.3,19.3z"/>
		</g>
	</g>
	<circle class="st0" cx="91.2" cy="16.2" r="2.1"/>
	<rect x="130.9" y="49.6" class="st2" width="5.4" height="5.4"/>
	<rect x="99" y="5.1" transform="matrix(0.8278 -0.561 0.561 0.8278 13.2496 58.2064)" class="st1" width="4.8" height="4.8"/>
	<rect x="34" y="2.2" transform="matrix(0.7071 -0.7071 0.7071 0.7071 7.5613 26.6291)" class="st3" width="3.9" height="3.9"/>
	<g>
		<path class="st4" d="M108.3,40.8v-0.2c0-2.8-2.3-5.1-5.1-5.1H52.9c-2.8,0-5.1,2.3-5.1,5.1v0.2H108.3z"/>
		<path class="st4" d="M47.8,69.5v3.2c0,2.8,2.3,5.1,5.1,5.1h50.3c2.8,0,5.1-2.3,5.1-5.1v-3.2H47.8z"/>
		<path d="M52.9,35.1h50.3c3.1,0,5.6,2.5,5.6,5.6v0.2c0,0.3-0.2,0.5-0.5,0.5H47.8c-0.3,0-0.5-0.2-0.5-0.5v-0.2
			C47.3,37.6,49.8,35.1,52.9,35.1z M103.2,78.2H52.9c-3.1,0-5.6-2.5-5.6-5.6v-3.2c0-0.3,0.2-0.5,0.5-0.5h60.5c0.3,0,0.5,0.2,0.5,0.5
			v3.2C108.7,75.8,106.2,78.2,103.2,78.2z M108.3,40.8v-0.2c0-2.8-2.3-5.1-5.1-5.1H52.9c-2.8,0-5.1,2.3-5.1,5.1v0.2H108.3z M48.3,70
			v2.7c0,2.5,2.1,4.6,4.6,4.6h50.3c2.5,0,4.6-2.1,4.6-4.6V70H48.3z"/>
		<path d="M91.1,87.7H65c-0.3,0-0.5-0.2-0.5-0.5v-1.4c0-1.5,1.2-2.7,2.7-2.7h21.7c1.5,0,2.7,1.2,2.7,2.7v1.4
			C91.5,87.5,91.3,87.7,91.1,87.7z M65.5,86.8h25.1v-0.9c0-1-0.8-1.7-1.7-1.7H67.2c-1,0-1.7,0.8-1.7,1.7V86.8z"/>
		<rect x="72" y="77.8" class="st5" width="12.2" height="5.9"/>
		<path d="M84.1,84.2H72c-0.3,0-0.5-0.2-0.5-0.5v-5.9c0-0.3,0.2-0.5,0.5-0.5h12.2c0.3,0,0.5,0.2,0.5,0.5v5.9
			C84.6,84,84.4,84.2,84.1,84.2z M72.4,83.2h11.2v-5H72.4V83.2z"/>
		<path d="M78.8,38.7h-1.5c-0.3,0-0.5-0.2-0.5-0.5c0-0.3,0.2-0.5,0.5-0.5h1.5c0.3,0,0.5,0.2,0.5,0.5C79.3,38.5,79.1,38.7,78.8,38.7z
			"/>
		<path d="M108.3,70H47.8c-0.3,0-0.5-0.2-0.5-0.5V40.7c0-3.1,2.5-5.6,5.6-5.6h50.3c3.1,0,5.6,2.5,5.6,5.6v28.9
			C108.7,69.8,108.5,70,108.3,70z M48.3,69h59.5V40.7c0-2.5-2.1-4.6-4.6-4.6H52.9c-2.5,0-4.6,2.1-4.6,4.6V69z"/>
		<path d="M116.1,83.8h-14.7c-0.3,0-0.6-0.3-0.6-0.6c0-0.3,0.3-0.6,0.6-0.6h14.7c0.3,0,0.6,0.3,0.6,0.6
			C116.7,83.6,116.4,83.8,116.1,83.8z"/>
		<path d="M118.3,80.7h-7.7c-0.3,0-0.6-0.3-0.6-0.6c0-0.3,0.3-0.6,0.6-0.6h7.7c0.3,0,0.6,0.3,0.6,0.6
			C118.9,80.5,118.6,80.7,118.3,80.7z"/>
		<path d="M41.5,69.5h-5.8c-0.2,0-0.4-0.2-0.4-0.4c0-0.2,0.2-0.4,0.4-0.4h5.8c0.2,0,0.4,0.2,0.4,0.4C42,69.3,41.8,69.5,41.5,69.5z"
			/>
		<path d="M130.1,74.5h-5.8c-0.2,0-0.4-0.2-0.4-0.4c0-0.2,0.2-0.4,0.4-0.4h5.8c0.2,0,0.4,0.2,0.4,0.4
			C130.5,74.3,130.3,74.5,130.1,74.5z"/>
		<path d="M37.1,72.6h-5.8c-0.2,0-0.4-0.2-0.4-0.4s0.2-0.4,0.4-0.4h5.8c0.2,0,0.4,0.2,0.4,0.4S37.3,72.6,37.1,72.6z"/>
		<path d="M41.5,76.2H15.7c-0.2,0-0.4-0.2-0.4-0.4s0.2-0.4,0.4-0.4h25.8c0.2,0,0.4,0.2,0.4,0.4S41.7,76.2,41.5,76.2z"/>
	</g>
	<g>
		<path d="M87.5,35.5c-0.3,0-0.5-0.2-0.5-0.5v-3.3c0-0.3,0.2-0.5,0.5-0.5h34.1v-4.4c0-0.3,0.2-0.5,0.5-0.5c0.3,0,0.5,0.2,0.5,0.5
			v4.9c0,0.3-0.2,0.5-0.5,0.5H88V35C88,35.2,87.8,35.5,87.5,35.5z"/>
	</g>
	<g>
		<path d="M48.2,58.3H14.6v-4.4c0-0.3-0.2-0.5-0.5-0.5c-0.3,0-0.5,0.2-0.5,0.5v4.9c0,0.3,0.2,0.5,0.5,0.5h34.1"/>
	</g>
	<g>
		<path class="st4" d="M3.7,27.5c-1.3,0-2.4,1.1-2.4,2.4v2.2c0,1.3,1.1,2.4,2.4,2.4h21.1c1.3,0,2.4-1.1,2.4-2.4v-2.2
			c0-1.3-1.1-2.4-2.4-2.4H3.7z"/>
	</g>
	<g>
		<path d="M24.9,34.9H3.7c-1.6,0-2.9-1.3-2.9-2.9v-2.2c0-1.6,1.3-2.9,2.9-2.9h21.1c1.6,0,2.9,1.3,2.9,2.9v2.2
			C27.7,33.7,26.4,34.9,24.9,34.9z M3.7,27.5c-1.3,0-2.4,1.1-2.4,2.4v2.2c0,1.3,1.1,2.4,2.4,2.4h21.1c1.3,0,2.4-1.1,2.4-2.4v-2.2
			c0-1.3-1.1-2.4-2.4-2.4H3.7z"/>
	</g>
	<g>
		<circle class="st1" cx="4.4" cy="31" r="0.9"/>
		<path d="M4.4,32.1c-0.6,0-1.1-0.5-1.1-1.1c0-0.6,0.5-1.1,1.1-1.1c0.6,0,1.1,0.5,1.1,1.1C5.5,31.6,5,32.1,4.4,32.1z M4.4,30.4
			c-0.3,0-0.6,0.3-0.6,0.6c0,0.3,0.3,0.6,0.6,0.6C4.7,31.6,5,31.3,5,31C5,30.6,4.7,30.4,4.4,30.4z"/>
	</g>
	<g>
		<circle class="st3" cx="7.4" cy="31" r="0.9"/>
		<path d="M7.4,32.1c-0.6,0-1.1-0.5-1.1-1.1c0-0.6,0.5-1.1,1.1-1.1c0.6,0,1.1,0.5,1.1,1.1C8.5,31.6,8,32.1,7.4,32.1z M7.4,30.4
			c-0.3,0-0.6,0.3-0.6,0.6c0,0.3,0.3,0.6,0.6,0.6c0.3,0,0.6-0.3,0.6-0.6C8.1,30.6,7.8,30.4,7.4,30.4z"/>
	</g>
	<g>
		<path d="M25.1,31.2H10c-0.1,0-0.2-0.1-0.2-0.2c0-0.1,0.1-0.2,0.2-0.2h15c0.1,0,0.2,0.1,0.2,0.2C25.3,31.1,25.2,31.2,25.1,31.2z"/>
	</g>
	<g>
		<path class="st4" d="M3.7,36.8c-1.3,0-2.4,1.1-2.4,2.4v2.2c0,1.3,1.1,2.4,2.4,2.4h21.1c1.3,0,2.4-1.1,2.4-2.4v-2.2
			c0-1.3-1.1-2.4-2.4-2.4H3.7z"/>
	</g>
	<g>
		<path d="M24.9,44.3H3.7c-1.6,0-2.9-1.3-2.9-2.9v-2.2c0-1.6,1.3-2.9,2.9-2.9h21.1c1.6,0,2.9,1.3,2.9,2.9v2.2
			C27.7,43,26.4,44.3,24.9,44.3z M3.7,36.8c-1.3,0-2.4,1.1-2.4,2.4v2.2c0,1.3,1.1,2.4,2.4,2.4h21.1c1.3,0,2.4-1.1,2.4-2.4v-2.2
			c0-1.3-1.1-2.4-2.4-2.4H3.7z"/>
	</g>
	<g>
		<circle class="st1" cx="4.4" cy="40.4" r="0.9"/>
		<path d="M4.4,41.5c-0.6,0-1.1-0.5-1.1-1.1c0-0.6,0.5-1.1,1.1-1.1c0.6,0,1.1,0.5,1.1,1.1C5.5,41,5,41.5,4.4,41.5z M4.4,39.8
			c-0.3,0-0.6,0.3-0.6,0.6C3.8,40.7,4,41,4.4,41C4.7,41,5,40.7,5,40.4C5,40,4.7,39.8,4.4,39.8z"/>
	</g>
	<g>
		<circle class="st3" cx="7.4" cy="40.4" r="0.9"/>
		<path d="M7.4,41.5c-0.6,0-1.1-0.5-1.1-1.1c0-0.6,0.5-1.1,1.1-1.1c0.6,0,1.1,0.5,1.1,1.1C8.5,41,8,41.5,7.4,41.5z M7.4,39.8
			c-0.3,0-0.6,0.3-0.6,0.6c0,0.3,0.3,0.6,0.6,0.6c0.3,0,0.6-0.3,0.6-0.6C8.1,40,7.8,39.8,7.4,39.8z"/>
	</g>
	<g>
		<path d="M25.1,40.6H10c-0.1,0-0.2-0.1-0.2-0.2c0-0.1,0.1-0.2,0.2-0.2h15c0.1,0,0.2,0.1,0.2,0.2C25.3,40.5,25.2,40.6,25.1,40.6z"/>
	</g>
	<g>
		<path class="st4" d="M3.7,46.2c-1.3,0-2.4,1.1-2.4,2.4v2.2c0,1.3,1.1,2.4,2.4,2.4h21.1c1.3,0,2.4-1.1,2.4-2.4v-2.2
			c0-1.3-1.1-2.4-2.4-2.4H3.7z"/>
	</g>
	<g>
		<path d="M24.9,53.7H3.7c-1.6,0-2.9-1.3-2.9-2.9v-2.2c0-1.6,1.3-2.9,2.9-2.9h21.1c1.6,0,2.9,1.3,2.9,2.9v2.2
			C27.7,52.4,26.4,53.7,24.9,53.7z M3.7,46.2c-1.3,0-2.4,1.1-2.4,2.4v2.2c0,1.3,1.1,2.4,2.4,2.4h21.1c1.3,0,2.4-1.1,2.4-2.4v-2.2
			c0-1.3-1.1-2.4-2.4-2.4H3.7z"/>
	</g>
	<g>
		<circle class="st1" cx="4.4" cy="49.8" r="0.9"/>
		<path d="M4.4,50.8c-0.6,0-1.1-0.5-1.1-1.1c0-0.6,0.5-1.1,1.1-1.1c0.6,0,1.1,0.5,1.1,1.1C5.5,50.4,5,50.8,4.4,50.8z M4.4,49.1
			c-0.3,0-0.6,0.3-0.6,0.6c0,0.3,0.3,0.6,0.6,0.6c0.3,0,0.6-0.3,0.6-0.6C5,49.4,4.7,49.1,4.4,49.1z"/>
	</g>
	<g>
		<circle class="st3" cx="7.4" cy="49.8" r="0.9"/>
		<path d="M7.4,50.8c-0.6,0-1.1-0.5-1.1-1.1c0-0.6,0.5-1.1,1.1-1.1c0.6,0,1.1,0.5,1.1,1.1C8.5,50.4,8,50.8,7.4,50.8z M7.4,49.1
			c-0.3,0-0.6,0.3-0.6,0.6c0,0.3,0.3,0.6,0.6,0.6c0.3,0,0.6-0.3,0.6-0.6C8.1,49.4,7.8,49.1,7.4,49.1z"/>
	</g>
	<g>
		<path d="M25.1,50H10c-0.1,0-0.2-0.1-0.2-0.2c0-0.1,0.1-0.2,0.2-0.2h15c0.1,0,0.2,0.1,0.2,0.2C25.3,49.9,25.2,50,25.1,50z"/>
	</g>
	<g>
		<g>
			<rect x="60.1" y="62.9" class="st6" width="39.2" height="0.2"/>
		</g>
		<rect x="81.3" y="51.6" class="st7" width="2.2" height="11"/>
		<rect x="84.3" y="53.8" class="st0" width="2.1" height="8.8"/>
		<rect x="87.3" y="56" class="st1" width="2.2" height="6.5"/>
		<rect x="78.3" y="58.3" class="st0" width="2.2" height="4.3"/>
		<rect x="69.3" y="54.5" class="st2" width="2.2" height="8.1"/>
		<rect x="72.3" y="46.3" class="st3" width="2.1" height="16.3"/>
		<rect x="75.3" y="56" class="st1" width="2.2" height="6.5"/>
		<rect x="66.3" y="58.3" class="st3" width="2.2" height="4.3"/>
	</g>
</g>
</svg>
