<?xml version="1.0" encoding="utf-8"?>
<!-- Generator: Adobe Illustrator 20.1.0, SVG Export Plug-In . SVG Version: 6.00 Build 0)  -->
<svg version="1.1" id="Capa_1" xmlns="http://www.w3.org/2000/svg" xmlns:xlink="http://www.w3.org/1999/xlink" x="0px" y="0px"
	 viewBox="0 0 155 90" style="enable-background:new 0 0 155 90;" xml:space="preserve">
<style type="text/css">
	.st0{fill:#93D7FF;}
	.st1{fill:#FF908D;}
	.st2{fill:#FFE985;}
	.st3{fill:#72D496;}
	.st4{fill:#E6E7E8;}
	.st5{stroke:#000000;stroke-width:0.5;stroke-miterlimit:10;}
</style>
<g>
	<g>
		<g>
			<path class="st0" d="M57,17.2c0.1-0.5,0.2-0.9,0.2-1.4c0-2.8-2.2-5-5-5h-0.7c-0.4-4.6-4.3-8.3-9.1-8.3c-3.9,0-7.3,2.5-8.6,6
				c-0.4-0.2-0.9-0.3-1.4-0.3c-1.8,0-3.3,1.5-3.3,3.3c0,0.4,0.1,0.8,0.2,1.2h-1.1c-2.2,0-4.1,1.8-4.1,4.1c0,0.2,0,0.3,0.1,0.5H57z"
				/>
			<path d="M57,17.4H24.2c-0.1,0-0.2-0.1-0.2-0.2l0-0.1c0-0.1,0-0.3,0-0.4c0-2.4,1.9-4.3,4.3-4.3H29c-0.1-0.3-0.1-0.6-0.1-1
				c0-1.9,1.6-3.5,3.5-3.5c0.5,0,0.9,0.1,1.3,0.3c1.4-3.5,4.9-5.9,8.7-5.9c4.8,0,8.8,3.5,9.3,8.3h0.5c2.9,0,5.2,2.3,5.2,5.2
				c0,0.5-0.1,1-0.2,1.5C57.2,17.4,57.1,17.4,57,17.4z M24.4,17h32.4c0.1-0.4,0.2-0.8,0.2-1.2c0-2.6-2.1-4.8-4.8-4.8h-0.7
				c-0.1,0-0.2-0.1-0.2-0.2c-0.4-4.6-4.2-8.1-8.9-8.1c-3.7,0-7.1,2.3-8.4,5.8c0,0.1-0.1,0.1-0.1,0.1c-0.1,0-0.1,0-0.2,0
				c-0.4-0.2-0.9-0.3-1.4-0.3c-1.7,0-3.1,1.4-3.1,3.1c0,0.4,0.1,0.7,0.2,1.1c0,0.1,0,0.1,0,0.2c0,0.1-0.1,0.1-0.2,0.1h-1.1
				c-2.1,0-3.8,1.7-3.8,3.8C24.3,16.8,24.4,16.9,24.4,17z"/>
		</g>
		<g>
			<path d="M24.2,17.4h-2.8c-0.1,0-0.2-0.1-0.2-0.2s0.1-0.2,0.2-0.2h2.8c0.1,0,0.2,0.1,0.2,0.2S24.3,17.4,24.2,17.4z"/>
		</g>
		<g>
			<path d="M18.8,17.4H17c-0.1,0-0.2-0.1-0.2-0.2S16.8,17,17,17h1.9c0.1,0,0.2,0.1,0.2,0.2S18.9,17.4,18.8,17.4z"/>
		</g>
		<g>
			<path d="M66.8,13.8h-3.9c-0.3,0-0.5-0.2-0.5-0.5c0-0.3,0.2-0.5,0.5-0.5h3.9c0.3,0,0.5,0.2,0.5,0.5C67.2,13.6,67,13.8,66.8,13.8z"
				/>
		</g>
		<g>
			<path d="M61.1,17.4H57c-0.1,0-0.2-0.1-0.2-0.2S56.8,17,57,17h4.1c0.1,0,0.2,0.1,0.2,0.2S61.2,17.4,61.1,17.4z"/>
		</g>
		<g>
			<circle class="st1" cx="34.2" cy="12.7" r="1.5"/>
			<path d="M34.2,14.5c-1,0-1.8-0.8-1.8-1.8s0.8-1.8,1.8-1.8c1,0,1.8,0.8,1.8,1.8S35.2,14.5,34.2,14.5z M34.2,11.4
				c-0.7,0-1.3,0.6-1.3,1.3c0,0.7,0.6,1.3,1.3,1.3c0.7,0,1.3-0.6,1.3-1.3C35.5,12,34.9,11.4,34.2,11.4z"/>
		</g>
		<g>
			<circle class="st2" cx="40.6" cy="12.7" r="1.5"/>
			<path d="M40.6,14.5c-1,0-1.8-0.8-1.8-1.8s0.8-1.8,1.8-1.8c1,0,1.8,0.8,1.8,1.8S41.6,14.5,40.6,14.5z M40.6,11.4
				c-0.7,0-1.3,0.6-1.3,1.3c0,0.7,0.6,1.3,1.3,1.3s1.3-0.6,1.3-1.3C42,12,41.4,11.4,40.6,11.4z"/>
		</g>
		<g>
			<circle class="st3" cx="47.1" cy="12.7" r="1.5"/>
			<path d="M47.1,14.5c-1,0-1.8-0.8-1.8-1.8s0.8-1.8,1.8-1.8c1,0,1.8,0.8,1.8,1.8S48.1,14.5,47.1,14.5z M47.1,11.4
				c-0.7,0-1.3,0.6-1.3,1.3c0,0.7,0.6,1.3,1.3,1.3c0.7,0,1.3-0.6,1.3-1.3C48.4,12,47.8,11.4,47.1,11.4z"/>
		</g>
	</g>
	<g>
		<g>
			<path class="st0" d="M115.5,20.8c0.1-0.4,0.2-0.7,0.2-1.1c0-2.2-1.8-4-4-4h-0.6c-0.3-3.7-3.5-6.6-7.2-6.6c-3.1,0-5.8,2-6.8,4.8
				c-0.3-0.2-0.7-0.3-1.2-0.3c-1.5,0-2.6,1.2-2.6,2.6c0,0.3,0.1,0.7,0.2,0.9h-0.9c-1.8,0-3.2,1.5-3.2,3.2c0,0.1,0,0.3,0,0.4H115.5z"
				/>
			<path d="M115.5,20.9H89.4c-0.1,0-0.2-0.1-0.2-0.2l0-0.1c0-0.1,0-0.2,0-0.3c0-1.9,1.5-3.4,3.4-3.4h0.6c-0.1-0.3-0.1-0.5-0.1-0.8
				c0-1.5,1.3-2.8,2.8-2.8c0.4,0,0.7,0.1,1.1,0.2c1.1-2.8,3.9-4.7,6.9-4.7c3.8,0,7,2.8,7.4,6.6h0.4c2.3,0,4.2,1.9,4.2,4.2
				c0,0.4-0.1,0.8-0.2,1.2C115.7,20.9,115.6,20.9,115.5,20.9z M89.5,20.6h25.8c0.1-0.3,0.1-0.6,0.1-1c0-2.1-1.7-3.8-3.8-3.8h-0.6
				c-0.1,0-0.2-0.1-0.2-0.2c-0.3-3.7-3.4-6.4-7.1-6.4c-3,0-5.6,1.9-6.7,4.6c0,0-0.1,0.1-0.1,0.1c0,0-0.1,0-0.1,0
				c-0.3-0.2-0.7-0.3-1.1-0.3c-1.3,0-2.4,1.1-2.4,2.4c0,0.3,0.1,0.6,0.2,0.9c0,0.1,0,0.1,0,0.2c0,0-0.1,0.1-0.1,0.1h-0.9
				c-1.7,0-3.1,1.4-3.1,3.1C89.5,20.4,89.5,20.5,89.5,20.6z"/>
		</g>
		<g>
			<path d="M89.4,20.9h-2.2c-0.1,0-0.2-0.1-0.2-0.2c0-0.1,0.1-0.2,0.2-0.2h2.2c0.1,0,0.2,0.1,0.2,0.2C89.6,20.9,89.5,20.9,89.4,20.9
				z"/>
		</g>
		<g>
			<path d="M85.1,20.9h-1.5c-0.1,0-0.2-0.1-0.2-0.2c0-0.1,0.1-0.2,0.2-0.2h1.5c0.1,0,0.2,0.1,0.2,0.2C85.3,20.9,85.2,20.9,85.1,20.9
				z"/>
		</g>
		<g>
			<path d="M123.3,18h-3.1c-0.2,0-0.4-0.2-0.4-0.4s0.2-0.4,0.4-0.4h3.1c0.2,0,0.4,0.2,0.4,0.4S123.5,18,123.3,18z"/>
		</g>
		<g>
			<path d="M118.8,20.9h-3.3c-0.1,0-0.2-0.1-0.2-0.2c0-0.1,0.1-0.2,0.2-0.2h3.3c0.1,0,0.2,0.1,0.2,0.2
				C119,20.9,118.9,20.9,118.8,20.9z"/>
		</g>
		<g>
			<circle class="st1" cx="97.4" cy="17.2" r="1.2"/>
			<path d="M97.4,18.6c-0.8,0-1.4-0.6-1.4-1.4c0-0.8,0.6-1.4,1.4-1.4c0.8,0,1.4,0.6,1.4,1.4C98.8,18,98.2,18.6,97.4,18.6z
				 M97.4,16.1c-0.6,0-1,0.5-1,1c0,0.6,0.5,1,1,1c0.6,0,1-0.5,1-1C98.4,16.6,98,16.1,97.4,16.1z"/>
		</g>
		<g>
			<circle class="st2" cx="102.5" cy="17.2" r="1.2"/>
			<path d="M102.5,18.6c-0.8,0-1.4-0.6-1.4-1.4c0-0.8,0.6-1.4,1.4-1.4c0.8,0,1.4,0.6,1.4,1.4C103.9,18,103.3,18.6,102.5,18.6z
				 M102.5,16.1c-0.6,0-1,0.5-1,1c0,0.6,0.5,1,1,1c0.6,0,1-0.5,1-1C103.6,16.6,103.1,16.1,102.5,16.1z"/>
		</g>
		<g>
			<circle class="st3" cx="107.6" cy="17.2" r="1.2"/>
			<path d="M107.6,18.6c-0.8,0-1.4-0.6-1.4-1.4c0-0.8,0.6-1.4,1.4-1.4c0.8,0,1.4,0.6,1.4,1.4C109,18,108.4,18.6,107.6,18.6z
				 M107.6,16.1c-0.6,0-1,0.5-1,1c0,0.6,0.5,1,1,1c0.6,0,1-0.5,1-1C108.7,16.6,108.2,16.1,107.6,16.1z"/>
		</g>
	</g>
	<circle class="st0" cx="134" cy="29.3" r="2.3"/>
	<circle class="st1" cx="101.6" cy="86.1" r="2.3"/>
	<rect x="22.3" y="53.6" class="st2" width="6" height="6"/>
	<rect x="76" y="2.1" transform="matrix(0.8278 -0.561 0.561 0.8278 10.8766 44.9603)" class="st1" width="5.4" height="5.4"/>
	
		<rect x="17.2" y="67.5" transform="matrix(0.7071 -0.7071 0.7071 0.7071 -43.6162 34.1065)" class="st3" width="4.3" height="4.3"/>
	
		<rect x="87.4" y="51.9" transform="matrix(0.7071 -0.7071 0.7071 0.7071 -12.0185 79.1706)" class="st3" width="4.3" height="4.3"/>
	<path d="M45.2,44H16.3c-0.3,0-0.5-0.2-0.5-0.5s0.2-0.5,0.5-0.5h28.8c0.3,0,0.5,0.2,0.5,0.5S45.4,44,45.2,44z"/>
	<g>
		<path d="M67.8,35.4c-0.3,0-0.6-0.3-0.6-0.6v-8.2c0-0.3,0.3-0.6,0.6-0.6H106v-4.9c0-0.3,0.3-0.6,0.6-0.6c0.3,0,0.6,0.3,0.6,0.6v5.5
			c0,0.3-0.3,0.6-0.6,0.6H68.4v7.6C68.4,35.2,68.1,35.4,67.8,35.4z"/>
	</g>
	<g>
		<path d="M64.7,35.2c0.3,0,0.6-0.3,0.6-0.6v-8.2c0-0.3-0.3-0.6-0.6-0.6H42.2v-8.3c0-0.3-0.3-0.6-0.6-0.6c-0.3,0-0.6,0.3-0.6,0.6
			v8.9c0,0.3,0.3,0.6,0.6,0.6h22.5v7.6C64.1,34.9,64.4,35.2,64.7,35.2z"/>
	</g>
	<g>
		<path d="M66.3,36h54.4V41c0,0.3,0.3,0.6,0.6,0.6s0.6-0.3,0.6-0.6v-5.5c0-0.3-0.3-0.6-0.6-0.6h-55"/>
	</g>
	<g>
		<path class="st4" d="M112.2,41.3c-1.5,0-2.7,1.2-2.7,2.7v2.5c0,1.5,1.2,2.7,2.7,2.7h23.6c1.5,0,2.7-1.2,2.7-2.7V44
			c0-1.5-1.2-2.7-2.7-2.7H112.2z"/>
	</g>
	<g>
		<path d="M135.8,49.6h-23.6c-1.8,0-3.2-1.4-3.2-3.2V44c0-1.8,1.4-3.2,3.2-3.2h23.6c1.8,0,3.2,1.4,3.2,3.2v2.5
			C139,48.2,137.6,49.6,135.8,49.6z M112.2,41.3c-1.5,0-2.7,1.2-2.7,2.7v2.5c0,1.5,1.2,2.7,2.7,2.7h23.6c1.5,0,2.7-1.2,2.7-2.7V44
			c0-1.5-1.2-2.7-2.7-2.7H112.2z"/>
	</g>
	<g>
		<circle class="st1" cx="112.9" cy="45.2" r="1"/>
		<path d="M112.9,46.4c-0.7,0-1.2-0.5-1.2-1.2c0-0.7,0.5-1.2,1.2-1.2c0.7,0,1.2,0.5,1.2,1.2C114.1,45.9,113.6,46.4,112.9,46.4z
			 M112.9,44.5c-0.4,0-0.7,0.3-0.7,0.7c0,0.4,0.3,0.7,0.7,0.7s0.7-0.3,0.7-0.7C113.6,44.8,113.3,44.5,112.9,44.5z"/>
	</g>
	<g>
		<circle class="st3" cx="116.3" cy="45.2" r="1"/>
		<path d="M116.3,46.4c-0.7,0-1.2-0.5-1.2-1.2c0-0.7,0.5-1.2,1.2-1.2c0.7,0,1.2,0.5,1.2,1.2C117.5,45.9,117,46.4,116.3,46.4z
			 M116.3,44.5c-0.4,0-0.7,0.3-0.7,0.7c0,0.4,0.3,0.7,0.7,0.7c0.4,0,0.7-0.3,0.7-0.7C117,44.8,116.7,44.5,116.3,44.5z"/>
	</g>
	<g>
		<path d="M136.1,45.5h-16.8c-0.1,0-0.3-0.1-0.3-0.3c0-0.1,0.1-0.3,0.3-0.3h16.8c0.1,0,0.3,0.1,0.3,0.3
			C136.3,45.4,136.2,45.5,136.1,45.5z"/>
	</g>
	<g>
		<path class="st4" d="M112.2,51.8c-1.5,0-2.7,1.2-2.7,2.7v2.5c0,1.5,1.2,2.7,2.7,2.7h23.6c1.5,0,2.7-1.2,2.7-2.7v-2.5
			c0-1.5-1.2-2.7-2.7-2.7H112.2z"/>
	</g>
	<g>
		<path d="M135.8,60.1h-23.6c-1.8,0-3.2-1.4-3.2-3.2v-2.5c0-1.8,1.4-3.2,3.2-3.2h23.6c1.8,0,3.2,1.4,3.2,3.2v2.5
			C139,58.7,137.6,60.1,135.8,60.1z M112.2,51.8c-1.5,0-2.7,1.2-2.7,2.7v2.5c0,1.5,1.2,2.7,2.7,2.7h23.6c1.5,0,2.7-1.2,2.7-2.7v-2.5
			c0-1.5-1.2-2.7-2.7-2.7H112.2z"/>
	</g>
	<g>
		<circle class="st1" cx="112.9" cy="55.7" r="1"/>
		<path d="M112.9,56.9c-0.7,0-1.2-0.5-1.2-1.2c0-0.7,0.5-1.2,1.2-1.2c0.7,0,1.2,0.5,1.2,1.2C114.1,56.4,113.6,56.9,112.9,56.9z
			 M112.9,55c-0.4,0-0.7,0.3-0.7,0.7c0,0.4,0.3,0.7,0.7,0.7s0.7-0.3,0.7-0.7C113.6,55.3,113.3,55,112.9,55z"/>
	</g>
	<g>
		<circle class="st3" cx="116.3" cy="55.7" r="1"/>
		<path d="M116.3,56.9c-0.7,0-1.2-0.5-1.2-1.2c0-0.7,0.5-1.2,1.2-1.2c0.7,0,1.2,0.5,1.2,1.2C117.5,56.4,117,56.9,116.3,56.9z
			 M116.3,55c-0.4,0-0.7,0.3-0.7,0.7c0,0.4,0.3,0.7,0.7,0.7c0.4,0,0.7-0.3,0.7-0.7C117,55.3,116.7,55,116.3,55z"/>
	</g>
	<g>
		<path d="M136.1,56h-16.8c-0.1,0-0.3-0.1-0.3-0.3c0-0.1,0.1-0.3,0.3-0.3h16.8c0.1,0,0.3,0.1,0.3,0.3C136.3,55.9,136.2,56,136.1,56z
			"/>
	</g>
	<g>
		<path class="st4" d="M112.2,62.3c-1.5,0-2.7,1.2-2.7,2.7v2.5c0,1.5,1.2,2.7,2.7,2.7h23.6c1.5,0,2.7-1.2,2.7-2.7V65
			c0-1.5-1.2-2.7-2.7-2.7H112.2z"/>
	</g>
	<g>
		<path d="M135.8,70.6h-23.6c-1.8,0-3.2-1.4-3.2-3.2V65c0-1.8,1.4-3.2,3.2-3.2h23.6c1.8,0,3.2,1.4,3.2,3.2v2.5
			C139,69.2,137.6,70.6,135.8,70.6z M112.2,62.3c-1.5,0-2.7,1.2-2.7,2.7v2.5c0,1.5,1.2,2.7,2.7,2.7h23.6c1.5,0,2.7-1.2,2.7-2.7V65
			c0-1.5-1.2-2.7-2.7-2.7H112.2z"/>
	</g>
	<g>
		<circle class="st1" cx="112.9" cy="66.2" r="1"/>
		<path d="M112.9,67.4c-0.7,0-1.2-0.5-1.2-1.2c0-0.7,0.5-1.2,1.2-1.2c0.7,0,1.2,0.5,1.2,1.2C114.1,66.9,113.6,67.4,112.9,67.4z
			 M112.9,65.5c-0.4,0-0.7,0.3-0.7,0.7c0,0.4,0.3,0.7,0.7,0.7s0.7-0.3,0.7-0.7C113.6,65.8,113.3,65.5,112.9,65.5z"/>
	</g>
	<g>
		<circle class="st3" cx="116.3" cy="66.2" r="1"/>
		<path d="M116.3,67.4c-0.7,0-1.2-0.5-1.2-1.2c0-0.7,0.5-1.2,1.2-1.2c0.7,0,1.2,0.5,1.2,1.2C117.5,66.9,117,67.4,116.3,67.4z
			 M116.3,65.5c-0.4,0-0.7,0.3-0.7,0.7c0,0.4,0.3,0.7,0.7,0.7c0.4,0,0.7-0.3,0.7-0.7C117,65.8,116.7,65.5,116.3,65.5z"/>
	</g>
	<g>
		<path d="M136.1,66.5h-16.8c-0.1,0-0.3-0.1-0.3-0.3c0-0.1,0.1-0.3,0.3-0.3h16.8c0.1,0,0.3,0.1,0.3,0.3
			C136.3,66.4,136.2,66.5,136.1,66.5z"/>
	</g>
	<g>
		<path class="st4" d="M47.6,74.5l-2.9-1.9l-3.4,0.6l-3.6,5.3c-0.9-2.2-0.7-4.9,0.8-7c1.5-2.2,4-3.4,6.5-3.3l15.6-23
			c-1-2.3-0.9-5,0.7-7.2c1.5-2.1,3.8-3.3,6.2-3.3l-3.6,5.3l0.6,3.4l2.9,1.9l3.4-0.6l3.6-5.3c0.9,2.2,0.7,4.9-0.8,7
			c-1.5,2.2-4,3.4-6.5,3.3l-15.6,23c1,2.3,0.9,5-0.7,7.2c-1.5,2.1-3.8,3.3-6.2,3.3l3.6-5.3L47.6,74.5z"/>
		<path class="st5" d="M44.6,83.5c-0.1,0-0.2-0.1-0.2-0.1c0-0.1,0-0.2,0-0.3l3.6-5.2l-0.6-3.2l-2.7-1.8l-3.2,0.6l-3.6,5.2
			c0,0,0,0,0,0c-0.1,0.1-0.2,0.1-0.3,0.1c-0.1,0-0.1-0.1-0.1-0.2c-0.9-2.4-0.6-5.1,0.8-7.2c1.5-2.2,3.9-3.4,6.6-3.4l15.5-22.7
			c-1-2.4-0.8-5.2,0.7-7.4c1.5-2.1,3.9-3.4,6.5-3.4c0.1,0,0.2,0.1,0.2,0.1c0,0.1,0,0.2,0,0.3l-3.6,5.2l0.6,3.2l2.7,1.8l3.2-0.6
			l3.6-5.2c0.1-0.1,0.1-0.1,0.2-0.1c0.1,0,0.2,0.1,0.2,0.2c1,2.4,0.7,5.1-0.8,7.2c-1.5,2.2-3.9,3.4-6.6,3.4L51.8,72.7
			c1,2.4,0.8,5.2-0.7,7.4C49.6,82.2,47.2,83.5,44.6,83.5z M67.2,49.5c2.5,0.1,4.9-1.1,6.3-3.2c1.3-1.9,1.6-4.2,0.9-6.3L71,44.9
			c0,0.1-0.1,0.1-0.2,0.1l-3.4,0.6c-0.1,0-0.1,0-0.2,0l-2.9-1.9c-0.1,0-0.1-0.1-0.1-0.2l-0.6-3.4c0-0.1,0-0.1,0-0.2l3.3-4.9
			c-2.2,0.1-4.3,1.3-5.6,3.2c-1.4,2.1-1.7,4.7-0.6,7c0,0.1,0,0.2,0,0.2l-15.6,23c0,0.1-0.1,0.1-0.2,0.1c-2.5-0.1-4.9,1.1-6.3,3.2
			c-1.3,1.9-1.6,4.2-0.9,6.3l3.3-4.9c0-0.1,0.1-0.1,0.2-0.1l3.4-0.6c0.1,0,0.1,0,0.2,0l2.9,1.9c0.1,0,0.1,0.1,0.1,0.2l0.6,3.4
			c0,0.1,0,0.1,0,0.2L45.1,83c2.2-0.1,4.3-1.3,5.6-3.2c1.4-2.1,1.7-4.7,0.6-7c0-0.1,0-0.2,0-0.2l15.6-23
			C67,49.6,67.1,49.5,67.2,49.5z"/>
	</g>
	<path d="M31.7,38.8h-6.5c-0.3,0-0.5-0.2-0.5-0.5c0-0.3,0.2-0.5,0.5-0.5h6.5c0.3,0,0.5,0.2,0.5,0.5C32.2,38.6,32,38.8,31.7,38.8z"/>
	<path d="M69.4,69.6h-6.5c-0.3,0-0.5-0.2-0.5-0.5s0.2-0.5,0.5-0.5h6.5c0.3,0,0.5,0.2,0.5,0.5S69.6,69.6,69.4,69.6z"/>
	<path d="M51.9,49.2H35.4c-0.4,0-0.6-0.3-0.6-0.6s0.3-0.6,0.6-0.6h16.5c0.4,0,0.6,0.3,0.6,0.6S52.3,49.2,51.9,49.2z"/>
	<path d="M83.9,66.3H67.4c-0.4,0-0.6-0.3-0.6-0.6c0-0.4,0.3-0.6,0.6-0.6h16.5c0.4,0,0.6,0.3,0.6,0.6C84.5,66,84.2,66.3,83.9,66.3z"
		/>
</g>
</svg>
