<?xml version="1.0" encoding="utf-8"?>
<!-- Generator: Adobe Illustrator 20.1.0, SVG Export Plug-In . SVG Version: 6.00 Build 0)  -->
<svg version="1.1" id="Capa_1" xmlns="http://www.w3.org/2000/svg" xmlns:xlink="http://www.w3.org/1999/xlink" x="0px" y="0px"
	 viewBox="0 0 155 90" style="enable-background:new 0 0 155 90;" xml:space="preserve">
<style type="text/css">
	.st0{fill:#93D7FF;}
	.st1{fill:#FF908D;}
	.st2{fill:#FFE985;}
	.st3{fill:#72D496;}
	.st4{fill:#FFE696;}
	.st5{fill:#D1D3D4;}
	.st6{fill:#A7A9AC;}
	.st7{fill:#E6E7E8;}
</style>
<g>
	<g>
		<g>
			<path class="st0" d="M61.3,25.1c0.2-0.6,0.3-1.1,0.3-1.7c0-3.4-2.7-6.1-6.1-6.1h-0.9c-0.5-5.7-5.3-10.1-11.1-10.1
				c-4.8,0-8.9,3-10.5,7.3c-0.5-0.3-1.1-0.4-1.8-0.4c-2.2,0-4,1.8-4,4c0,0.5,0.1,1,0.3,1.5h-1.3c-2.7,0-5,2.2-5,5
				c0,0.2,0,0.4,0.1,0.6H61.3z"/>
			<path d="M61.3,25.4h-40c-0.1,0-0.3-0.1-0.3-0.2l0-0.1c0-0.2,0-0.3,0-0.5c0-2.9,2.4-5.2,5.2-5.2h0.9C27,18.9,27,18.5,27,18.1
				c0-2.4,1.9-4.3,4.3-4.3c0.6,0,1.1,0.1,1.6,0.3c1.7-4.3,6-7.2,10.6-7.2c5.9,0,10.7,4.3,11.4,10.1h0.6c3.5,0,6.4,2.9,6.4,6.4
				c0,0.6-0.1,1.2-0.3,1.8C61.6,25.3,61.5,25.4,61.3,25.4z M21.5,24.9h39.6c0.1-0.5,0.2-1,0.2-1.5c0-3.2-2.6-5.8-5.8-5.8h-0.9
				c-0.1,0-0.3-0.1-0.3-0.3c-0.5-5.6-5.2-9.9-10.8-9.9c-4.5,0-8.6,2.9-10.2,7.1c0,0.1-0.1,0.1-0.2,0.2c-0.1,0-0.2,0-0.2,0
				c-0.5-0.3-1.1-0.4-1.6-0.4c-2.1,0-3.8,1.7-3.8,3.7c0,0.5,0.1,0.9,0.3,1.4c0,0.1,0,0.2,0,0.3c-0.1,0.1-0.1,0.1-0.2,0.1h-1.3
				c-2.6,0-4.7,2.1-4.7,4.7C21.5,24.6,21.5,24.8,21.5,24.9z"/>
		</g>
		<g>
			<path d="M21.3,25.4h-3.4c-0.2,0-0.3-0.1-0.3-0.3s0.1-0.3,0.3-0.3h3.4c0.2,0,0.3,0.1,0.3,0.3S21.4,25.4,21.3,25.4z"/>
		</g>
		<g>
			<path d="M14.8,25.4h-2.3c-0.2,0-0.3-0.1-0.3-0.3s0.1-0.3,0.3-0.3h2.3c0.2,0,0.3,0.1,0.3,0.3S14.9,25.4,14.8,25.4z"/>
		</g>
		<g>
			<path d="M62.3,15h-4.7c-0.3,0-0.6-0.3-0.6-0.6c0-0.3,0.3-0.6,0.6-0.6h4.7c0.3,0,0.6,0.3,0.6,0.6C62.9,14.7,62.6,15,62.3,15z"/>
		</g>
		<g>
			<path d="M66.4,25.4h-5c-0.2,0-0.3-0.1-0.3-0.3s0.1-0.3,0.3-0.3h5c0.2,0,0.3,0.1,0.3,0.3S66.5,25.4,66.4,25.4z"/>
		</g>
		<g>
			<circle class="st1" cx="33.6" cy="19.7" r="1.9"/>
			<path d="M33.6,21.8c-1.2,0-2.2-1-2.2-2.2s1-2.2,2.2-2.2s2.2,1,2.2,2.2S34.8,21.8,33.6,21.8z M33.6,18.1c-0.9,0-1.6,0.7-1.6,1.6
				c0,0.9,0.7,1.6,1.6,1.6c0.9,0,1.6-0.7,1.6-1.6C35.2,18.8,34.4,18.1,33.6,18.1z"/>
		</g>
		<g>
			<circle class="st2" cx="41.4" cy="19.7" r="1.9"/>
			<path d="M41.4,21.8c-1.2,0-2.2-1-2.2-2.2s1-2.2,2.2-2.2c1.2,0,2.2,1,2.2,2.2S42.6,21.8,41.4,21.8z M41.4,18.1
				c-0.9,0-1.6,0.7-1.6,1.6c0,0.9,0.7,1.6,1.6,1.6s1.6-0.7,1.6-1.6C43,18.8,42.3,18.1,41.4,18.1z"/>
		</g>
		<g>
			<circle class="st3" cx="49.3" cy="19.7" r="1.9"/>
			<path d="M49.3,21.8c-1.2,0-2.2-1-2.2-2.2s1-2.2,2.2-2.2c1.2,0,2.2,1,2.2,2.2S50.5,21.8,49.3,21.8z M49.3,18.1
				c-0.9,0-1.6,0.7-1.6,1.6c0,0.9,0.7,1.6,1.6,1.6c0.9,0,1.6-0.7,1.6-1.6C50.9,18.8,50.1,18.1,49.3,18.1z"/>
		</g>
	</g>
	<circle class="st0" cx="139" cy="86.8" r="2.1"/>
	<circle class="st1" cx="37.1" cy="64.9" r="2.1"/>
	<rect x="18.9" y="43.5" class="st2" width="5.4" height="5.4"/>
	<rect x="67.5" y="2.6" transform="matrix(0.8278 -0.561 0.561 0.8278 9.2283 40.0641)" class="st1" width="4.8" height="4.8"/>
	<rect x="9.2" y="80" transform="matrix(0.7071 -0.7071 0.7071 0.7071 -54.6557 31.8386)" class="st3" width="3.9" height="3.9"/>
	<rect x="123.7" y="1.7" transform="matrix(0.7071 -0.7071 0.7071 0.7071 34.2007 89.8986)" class="st3" width="3.9" height="3.9"/>
	<g>
		<path d="M93,21.2h40.6v4.4c0,0.3,0.2,0.5,0.5,0.5c0.3,0,0.5-0.2,0.5-0.5v-4.9c0-0.3-0.2-0.5-0.5-0.5H93"/>
	</g>
	<g>
		<path d="M83,29.8H42.4v-4.4c0-0.3-0.2-0.5-0.5-0.5c-0.3,0-0.5,0.2-0.5,0.5v4.9c0,0.3,0.2,0.5,0.5,0.5H83"/>
	</g>
	<path d="M74.4,38.1h-5.8c-0.2,0-0.4-0.2-0.4-0.4c0-0.2,0.2-0.4,0.4-0.4h5.8c0.2,0,0.4,0.2,0.4,0.4C74.8,37.9,74.6,38.1,74.4,38.1z"
		/>
	<path d="M113.2,38.7h-5.8c-0.2,0-0.4-0.2-0.4-0.4c0-0.2,0.2-0.4,0.4-0.4h5.8c0.2,0,0.4,0.2,0.4,0.4
		C113.6,38.5,113.4,38.7,113.2,38.7z"/>
	<path d="M131.6,67.3h-21.8c-0.2,0-0.4-0.2-0.4-0.4s0.2-0.4,0.4-0.4h21.8c0.2,0,0.4,0.2,0.4,0.4S131.8,67.3,131.6,67.3z"/>
	<path d="M63.3,38.1H37.5c-0.2,0-0.4-0.2-0.4-0.4c0-0.2,0.2-0.4,0.4-0.4h25.8c0.2,0,0.4,0.2,0.4,0.4C63.7,37.9,63.5,38.1,63.3,38.1z
		"/>
	<path d="M111.2,73.6H85.5c-0.2,0-0.4-0.2-0.4-0.4c0-0.2,0.2-0.4,0.4-0.4h25.8c0.2,0,0.4,0.2,0.4,0.4
		C111.7,73.4,111.5,73.6,111.2,73.6z"/>
	<path d="M69.3,42.8H54.6c-0.3,0-0.6-0.3-0.6-0.6c0-0.3,0.3-0.6,0.6-0.6h14.7c0.3,0,0.6,0.3,0.6,0.6C69.9,42.5,69.6,42.8,69.3,42.8z
		"/>
	<path d="M114.1,71.2h-6.7c-0.3,0-0.6-0.3-0.6-0.6c0-0.3,0.3-0.6,0.6-0.6h6.7c0.3,0,0.6,0.3,0.6,0.6
		C114.6,70.9,114.4,71.2,114.1,71.2z"/>
	<path d="M90.1,77.6h-6.7c-0.3,0-0.6-0.3-0.6-0.6s0.3-0.6,0.6-0.6h6.7c0.3,0,0.6,0.3,0.6,0.6S90.4,77.6,90.1,77.6z"/>
	<g>
		<g>
			<path class="st4" d="M93.7,22.7c0-4.8-3.9-8.6-8.6-8.6c-4.8,0-8.6,3.9-8.6,8.6c0,2.9,1.4,5.4,3.5,6.9l0,0c0,0,0,0,0.1,0
				c0.1,0.1,0.3,0.2,0.5,0.3c0.5,0.4,1.3,1.3,1.3,2.5v2.2h6.5v-2.2c0-1.3,0.8-2.1,1.3-2.5c0.2-0.1,0.3-0.2,0.5-0.3c0,0,0.1,0,0.1,0
				l0,0C92.3,28.1,93.7,25.5,93.7,22.7z"/>
			<path d="M88.3,34.9h-6.5c-0.1,0-0.2-0.1-0.2-0.2v-2.2c0-1.2-0.7-1.9-1.2-2.4c-0.1-0.1-0.3-0.2-0.4-0.3l0,0c0,0-0.1,0-0.1-0.1
				c-2.2-1.7-3.5-4.3-3.5-7.1c0-4.9,4-8.8,8.8-8.8c4.9,0,8.8,4,8.8,8.8c0,2.8-1.3,5.4-3.6,7.1c0,0,0,0-0.1,0.1l-0.1,0
				c-0.1,0.1-0.3,0.2-0.4,0.3c-0.5,0.4-1.2,1.2-1.2,2.4v2.2C88.5,34.8,88.4,34.9,88.3,34.9z M82,34.5h6.1v-2c0-1.4,0.9-2.3,1.4-2.7
				c0.2-0.1,0.3-0.2,0.5-0.3l0,0c0,0,0,0,0,0c2.2-1.6,3.4-4.1,3.4-6.8c0-4.6-3.8-8.4-8.4-8.4c-4.6,0-8.4,3.8-8.4,8.4
				c0,2.7,1.3,5.2,3.4,6.8c0,0,0,0,0,0c0.2,0.1,0.3,0.2,0.5,0.3c0.5,0.4,1.4,1.3,1.4,2.7V34.5z"/>
		</g>
		<g>
			<g>
				<path class="st5" d="M81.9,41h6.4c0.6-0.5,1-1.2,1.3-1.9h-8.9C80.8,39.9,81.3,40.5,81.9,41z"/>
				<path d="M88.3,41.2h-6.4c-0.1,0-0.1,0-0.1-0.1c-0.6-0.5-1.1-1.2-1.3-2c0-0.1,0-0.1,0-0.2c0-0.1,0.1-0.1,0.2-0.1h8.9
					c0.1,0,0.1,0,0.2,0.1c0,0.1,0,0.1,0,0.2c-0.3,0.8-0.7,1.4-1.3,2C88.4,41.2,88.3,41.2,88.3,41.2z M81.9,40.8h6.2
					c0.4-0.4,0.8-0.9,1.1-1.5h-8.4C81.1,39.9,81.5,40.4,81.9,40.8z"/>
			</g>
			<g>
				<path class="st6" d="M89.8,37.2h-9.5v0.4c0,0.6,0.1,1.1,0.3,1.6h8.9c0.2-0.5,0.3-1,0.3-1.6V37.2z"/>
				<path d="M89.5,39.3h-8.9c-0.1,0-0.2-0.1-0.2-0.1c-0.2-0.5-0.3-1.1-0.3-1.7v-0.4c0-0.1,0.1-0.2,0.2-0.2h9.5
					c0.1,0,0.2,0.1,0.2,0.2v0.4c0,0.6-0.1,1.1-0.3,1.7C89.7,39.3,89.6,39.3,89.5,39.3z M80.7,38.9h8.7c0.1-0.5,0.2-0.9,0.2-1.4v-0.2
					h-9.1v0.2C80.5,38,80.6,38.5,80.7,38.9z"/>
			</g>
			<g>
				<rect x="80.3" y="34.7" class="st5" width="9.5" height="2.5"/>
				<path d="M89.8,37.4h-9.5c-0.1,0-0.2-0.1-0.2-0.2v-2.5c0-0.1,0.1-0.2,0.2-0.2h9.5c0.1,0,0.2,0.1,0.2,0.2v2.5
					C90,37.3,89.9,37.4,89.8,37.4z M80.5,37h9.1v-2.1h-9.1V37z"/>
			</g>
		</g>
		<g>
			<path d="M84.6,25.7C84.6,25.7,84.6,25.7,84.6,25.7l-2.4-1.3v1.8l2.9,3.1c0,0,0.1,0.1,0.1,0.1v5.3c0,0.1-0.1,0.2-0.2,0.2
				c-0.1,0-0.2-0.1-0.2-0.2v-5.2l-2.9-3.1c0,0-0.1-0.1-0.1-0.1v-2.2c0-0.1,0-0.1,0.1-0.2c0.1,0,0.1,0,0.2,0l2.5,1.4"/>
			<path d="M87.8,25.5"/>
		</g>
	</g>
	<g>
		<path class="st3" d="M61.3,54.7l-2.2-0.4c-0.5,0.9-1,1.9-1.3,2.9l1.8,1.4l-0.5,2l0.1,2l-2,1c0.1,1,0.3,2.1,0.7,3.1l2.2,0.1
			l0.8,1.9l1.3,1.6l-1,2c0.7,0.8,1.5,1.5,2.4,2.1l1.8-1.3l1.8,1.1l2,0.6l0.3,2.2c1,0.2,2.1,0.3,3.2,0.3l0.7-2.1l2-0.2l1.9-0.7
			l1.6,1.6c0.5-0.2,0.9-0.5,1.4-0.7c0.5-0.3,0.9-0.6,1.3-0.9l-0.6-2.1l1.5-1.3l1.2-1.7l2.2,0.4c0.5-0.9,1-1.9,1.3-2.9l-1.8-1.4
			l0.5-2l-0.1-2l2-1c-0.1-1-0.3-2.1-0.7-3.1L84.8,57L84,55.2l-1.2-1.6l1-2c-0.7-0.8-1.5-1.5-2.4-2.1l-1.8,1.3l-1.8-1.1l-2-0.6
			l-0.3-2.2c-1-0.2-2.1-0.3-3.2-0.3l-0.7,2.1l-2,0.2l-1.9,0.7l-1.6-1.6c-0.5,0.2-0.9,0.5-1.4,0.7c-0.5,0.3-0.9,0.6-1.3,0.9l0.6,2.1
			L62.4,53L61.3,54.7z M68.3,54.9c3.9-2.3,8.9-1,11.2,2.9c2.3,3.9,1,8.9-2.9,11.2c-3.9,2.3-8.9,1-11.2-2.9
			C63.1,62.1,64.4,57.1,68.3,54.9z"/>
		<path d="M72.4,77.6c-1.1,0-2.2-0.1-3.2-0.3c-0.1,0-0.3-0.2-0.3-0.3l-0.3-2l-1.7-0.5c0,0-0.1,0-0.1,0l-1.6-0.9l-1.7,1.1
			c-0.1,0.1-0.3,0.1-0.4,0c-0.9-0.6-1.7-1.4-2.4-2.2c-0.1-0.1-0.1-0.3-0.1-0.4l0.9-1.8l-1.1-1.4c0,0,0-0.1,0-0.1l-0.7-1.7l-2-0.1
			c-0.2,0-0.3-0.1-0.3-0.2c-0.3-1-0.6-2.1-0.7-3.2c0-0.2,0.1-0.3,0.2-0.4l1.8-0.9l-0.1-1.8c0,0,0-0.1,0-0.1l0.4-1.8l-1.6-1.2
			c-0.1-0.1-0.2-0.3-0.1-0.4c0.3-1,0.8-2,1.3-3c0.1-0.1,0.2-0.2,0.4-0.2l2,0.3l1-1.5c0,0,0,0,0.1-0.1l1.4-1.2L63,49.6
			c0-0.1,0-0.3,0.1-0.4c0.4-0.3,0.9-0.6,1.4-0.9c0.5-0.3,0.9-0.5,1.4-0.7c0.1-0.1,0.3,0,0.4,0.1l1.4,1.4l1.7-0.6c0,0,0.1,0,0.1,0
			l1.8-0.2l0.7-1.9c0.1-0.1,0.2-0.2,0.3-0.2c1.1,0,2.2,0.1,3.2,0.3c0.1,0,0.3,0.2,0.3,0.3l0.3,2l1.7,0.5c0,0,0.1,0,0.1,0l1.6,0.9
			l1.6-1.1c0.1-0.1,0.3-0.1,0.4,0c0.9,0.6,1.7,1.4,2.4,2.2c0.1,0.1,0.1,0.3,0.1,0.4l-0.9,1.8l1.1,1.4c0,0,0,0.1,0,0.1l0.7,1.7l2,0.1
			c0.2,0,0.3,0.1,0.3,0.2c0.3,1,0.6,2.1,0.7,3.2c0,0.2-0.1,0.3-0.2,0.4L86,61.4l0.1,1.8c0,0,0,0.1,0,0.1l-0.4,1.8l1.6,1.2
			c0.1,0.1,0.2,0.3,0.1,0.4c-0.3,1-0.8,2-1.3,3c-0.1,0.1-0.2,0.2-0.4,0.2l-2-0.3l-1,1.5c0,0,0,0-0.1,0.1l-1.4,1.2l0.6,1.9
			c0,0.1,0,0.3-0.1,0.4c-0.4,0.3-0.9,0.6-1.4,0.9c-0.5,0.3-1,0.5-1.4,0.7c-0.1,0.1-0.3,0-0.4-0.1l-1.4-1.4l-1.7,0.6c0,0-0.1,0-0.1,0
			l-1.8,0.2l-0.7,1.9C72.7,77.5,72.6,77.6,72.4,77.6L72.4,77.6z M69.6,76.6c0.8,0.2,1.7,0.2,2.6,0.3l0.7-1.9c0-0.1,0.2-0.2,0.3-0.2
			l2-0.2l1.9-0.7c0.1,0,0.3,0,0.4,0.1l1.4,1.4c0.4-0.2,0.8-0.4,1.1-0.6c0.4-0.2,0.7-0.5,1.1-0.7l-0.6-1.9c0-0.1,0-0.3,0.1-0.4
			l1.5-1.3l1.1-1.7c0.1-0.1,0.2-0.2,0.4-0.2l1.9,0.3c0.4-0.8,0.8-1.6,1-2.4L85,65.5c-0.1-0.1-0.2-0.2-0.1-0.4l0.5-1.9l-0.1-2
			c0-0.1,0.1-0.3,0.2-0.3l1.8-0.9c-0.1-0.9-0.3-1.7-0.6-2.5l-2-0.1c-0.1,0-0.3-0.1-0.3-0.2l-0.8-1.8l-1.2-1.6
			c-0.1-0.1-0.1-0.3,0-0.4l0.9-1.7c-0.6-0.6-1.2-1.2-1.9-1.7L79.7,51c-0.1,0.1-0.3,0.1-0.4,0l-1.7-1l-1.9-0.6
			c-0.1,0-0.2-0.2-0.3-0.3l-0.3-2c-0.8-0.2-1.7-0.2-2.6-0.3l-0.7,1.9c0,0.1-0.2,0.2-0.3,0.2l-2,0.2l-1.9,0.7c-0.1,0-0.3,0-0.4-0.1
			L66,48.3c-0.4,0.2-0.8,0.4-1.1,0.6c-0.4,0.2-0.7,0.5-1.1,0.7l0.6,1.9c0,0.1,0,0.3-0.1,0.4l-1.5,1.3l-1.1,1.7
			c-0.1,0.1-0.2,0.2-0.4,0.2l-1.9-0.3c-0.4,0.8-0.8,1.6-1,2.4l1.6,1.2c0.1,0.1,0.2,0.2,0.1,0.4l-0.5,1.9l0.1,2
			c0,0.1-0.1,0.3-0.2,0.3l-1.8,0.9c0.1,0.9,0.3,1.7,0.6,2.5l2,0.1c0.1,0,0.3,0.1,0.3,0.2l0.8,1.8l1.2,1.6c0.1,0.1,0.1,0.3,0,0.4
			l-0.9,1.7c0.6,0.6,1.2,1.2,1.9,1.7l1.6-1.1c0.1-0.1,0.3-0.1,0.4,0l1.7,1l1.9,0.6c0.1,0,0.2,0.2,0.3,0.3L69.6,76.6z M72.4,70.4
			c-3,0-5.8-1.6-7.4-4.2c-1.1-2-1.5-4.3-0.9-6.5c0.6-2.2,2-4,3.9-5.2c1.3-0.8,2.8-1.2,4.3-1.2c3,0,5.8,1.6,7.4,4.2
			c1.1,2,1.5,4.3,0.9,6.5c-0.6,2.2-2,4-3.9,5.2C75.4,70,73.9,70.4,72.4,70.4z M72.4,54.1c-1.4,0-2.7,0.4-3.9,1.1
			c-1.8,1.1-3.1,2.7-3.6,4.8c-0.5,2-0.2,4.1,0.8,5.9c1.4,2.4,4,3.9,6.7,3.9c1.4,0,2.7-0.4,3.9-1.1c1.8-1,3.1-2.7,3.6-4.7
			c0.5-2,0.2-4.1-0.8-5.9C77.7,55.6,75.2,54.1,72.4,54.1z"/>
	</g>
	<g>
		<path class="st1" d="M91.2,46.6l-1.6-0.5c-0.5,0.7-0.9,1.4-1.3,2.1l1.2,1.2l-0.6,1.5l-0.2,1.6L87.1,53c0,0.8,0,1.6,0.2,2.4
			l1.7,0.3l0.4,1.5l0.8,1.4l-1,1.4c0.5,0.7,1,1.3,1.6,1.8l1.5-0.8l1.2,1l1.4,0.6l0,1.7c0.8,0.3,1.6,0.5,2.4,0.6l0.8-1.5l1.6,0.1
			l1.5-0.3l1,1.4c0.4-0.1,0.8-0.3,1.1-0.4c0.4-0.2,0.7-0.3,1.1-0.5l-0.3-1.7l1.3-0.9l1-1.2l1.6,0.5c0.5-0.7,0.9-1.4,1.3-2.1
			l-1.2-1.2l0.6-1.5l0.2-1.6l1.6-0.5c0-0.8,0-1.6-0.2-2.4l-1.7-0.3l-0.4-1.5l-0.8-1.4l1-1.4c-0.5-0.7-1-1.3-1.6-1.8l-1.5,0.8l-1.2-1
			l-1.4-0.6l0-1.7c-0.8-0.3-1.6-0.5-2.4-0.6l-0.8,1.5L98.1,43l-1.5,0.3l-1-1.4c-0.4,0.1-0.8,0.3-1.1,0.4c-0.4,0.2-0.7,0.3-1.1,0.5
			l0.3,1.7l-1.3,0.9L91.2,46.6z M96.5,47.4c3.2-1.3,6.9,0.2,8.2,3.3c1.3,3.2-0.2,6.9-3.3,8.2c-3.2,1.3-6.9-0.2-8.2-3.3
			C91.8,52.4,93.3,48.8,96.5,47.4z"/>
		<path d="M97.3,65.2c-0.8-0.1-1.6-0.3-2.4-0.6c-0.1,0-0.2-0.1-0.2-0.3l0-1.5l-1.3-0.6c0,0,0,0-0.1,0l-1.1-0.9L91,62
			c-0.1,0.1-0.2,0-0.3,0c-0.6-0.6-1.2-1.2-1.6-1.9c-0.1-0.1-0.1-0.2,0-0.3l0.9-1.3l-0.7-1.2c0,0,0,0,0-0.1l-0.4-1.3l-1.5-0.2
			c-0.1,0-0.2-0.1-0.2-0.2c-0.2-0.8-0.2-1.6-0.2-2.5c0-0.1,0.1-0.2,0.2-0.3l1.5-0.5l0.1-1.4c0,0,0,0,0-0.1l0.5-1.3l-1.1-1.1
			C88,48.3,88,48.2,88,48.1c0.4-0.7,0.8-1.5,1.3-2.1c0.1-0.1,0.2-0.1,0.3-0.1l1.5,0.5l0.9-1c0,0,0,0,0.1,0l1.2-0.8L93,42.9
			c0-0.1,0-0.2,0.1-0.3c0.4-0.2,0.7-0.4,1.1-0.5c0.4-0.2,0.8-0.3,1.2-0.4c0.1,0,0.2,0,0.3,0.1l0.9,1.2l1.4-0.3c0,0,0,0,0.1,0
			l1.4,0.1l0.7-1.4c0.1-0.1,0.2-0.2,0.3-0.1c0.9,0.1,1.7,0.3,2.4,0.6c0.1,0,0.2,0.1,0.2,0.3l0,1.5l1.3,0.6c0,0,0,0,0.1,0l1.1,0.9
			l1.4-0.7c0.1-0.1,0.2,0,0.3,0c0.6,0.6,1.2,1.2,1.6,1.9c0.1,0.1,0.1,0.2,0,0.3l-0.9,1.3l0.7,1.2c0,0,0,0,0,0.1l0.4,1.3l1.5,0.2
			c0.1,0,0.2,0.1,0.2,0.2c0.2,0.8,0.2,1.6,0.2,2.5c0,0.1-0.1,0.2-0.2,0.3l-1.5,0.5l-0.1,1.4c0,0,0,0,0,0.1l-0.5,1.3l1.1,1.1
			c0.1,0.1,0.1,0.2,0.1,0.3c-0.3,0.7-0.8,1.5-1.3,2.1c-0.1,0.1-0.2,0.1-0.3,0.1l-1.5-0.5l-0.9,1c0,0,0,0-0.1,0l-1.2,0.8l0.2,1.5
			c0,0.1,0,0.2-0.1,0.3c-0.4,0.2-0.7,0.4-1.1,0.5c-0.4,0.2-0.8,0.3-1.2,0.4c-0.1,0-0.2,0-0.3-0.1l-0.9-1.2l-1.4,0.3c0,0,0,0-0.1,0
			l-1.4-0.1L97.7,65C97.6,65.1,97.5,65.2,97.3,65.2L97.3,65.2z M95.3,64.1c0.6,0.2,1.3,0.4,1.9,0.5l0.7-1.3c0-0.1,0.2-0.2,0.3-0.2
			l1.5,0.1l1.5-0.3c0.1,0,0.2,0,0.3,0.1l0.9,1.2c0.3-0.1,0.6-0.2,0.9-0.3c0.3-0.1,0.6-0.3,0.9-0.4l-0.2-1.5c0-0.1,0-0.2,0.1-0.3
			l1.3-0.8l1-1.1c0.1-0.1,0.2-0.1,0.3-0.1l1.4,0.5c0.4-0.5,0.7-1.1,1-1.7l-1.1-1.1c-0.1-0.1-0.1-0.2-0.1-0.3l0.5-1.4l0.2-1.5
			c0-0.1,0.1-0.2,0.2-0.2l1.4-0.5c0-0.7-0.1-1.3-0.2-2l-1.5-0.2c-0.1,0-0.2-0.1-0.2-0.2l-0.4-1.5l-0.8-1.3c-0.1-0.1,0-0.2,0-0.3
			l0.9-1.2c-0.4-0.5-0.8-1-1.3-1.5l-1.4,0.7c-0.1,0-0.2,0-0.3,0l-1.2-1l-1.4-0.6c-0.1,0-0.2-0.1-0.2-0.3l0-1.5
			c-0.6-0.2-1.3-0.4-1.9-0.5l-0.7,1.3c0,0.1-0.2,0.2-0.3,0.2l-1.5-0.1l-1.5,0.3c-0.1,0-0.2,0-0.3-0.1l-0.9-1.2
			c-0.3,0.1-0.6,0.2-0.9,0.3c-0.3,0.1-0.6,0.3-0.9,0.4l0.2,1.5c0,0.1,0,0.2-0.1,0.3l-1.3,0.8l-1,1.1c-0.1,0.1-0.2,0.1-0.3,0.1
			l-1.4-0.5c-0.4,0.5-0.7,1.1-1,1.7l1.1,1.1c0.1,0.1,0.1,0.2,0.1,0.3l-0.5,1.4L89,52.5c0,0.1-0.1,0.2-0.2,0.2l-1.4,0.5
			c0,0.7,0.1,1.3,0.2,2l1.5,0.2c0.1,0,0.2,0.1,0.2,0.2l0.4,1.5l0.8,1.3c0.1,0.1,0,0.2,0,0.3l-0.9,1.2c0.4,0.5,0.8,1,1.3,1.5l1.4-0.7
			c0.1-0.1,0.2,0,0.3,0l1.2,1l1.4,0.6c0.1,0,0.2,0.1,0.2,0.3L95.3,64.1z M98.1,59.7c-2.3-0.3-4.3-1.8-5.2-4c-0.7-1.6-0.7-3.4,0-5
			c0.7-1.6,1.9-2.9,3.5-3.6c1.1-0.4,2.2-0.6,3.4-0.5c2.3,0.3,4.3,1.8,5.2,4c0.7,1.6,0.7,3.4,0,5c-0.7,1.6-1.9,2.9-3.5,3.6
			C100.4,59.7,99.2,59.8,98.1,59.7z M99.7,47.3c-1-0.1-2.1,0-3.1,0.4c-1.5,0.6-2.6,1.8-3.2,3.3c-0.6,1.5-0.6,3.1,0,4.6
			c0.8,2,2.6,3.3,4.7,3.6c1,0.1,2.1,0,3.1-0.4c1.5-0.6,2.6-1.8,3.2-3.3c0.6-1.5,0.6-3.1,0-4.6C103.6,48.9,101.8,47.6,99.7,47.3z"/>
	</g>
	<g>
		<path class="st7" d="M123,26c-1.3,0-2.4,1.1-2.4,2.4v2.2c0,1.3,1.1,2.4,2.4,2.4h21.1c1.3,0,2.4-1.1,2.4-2.4v-2.2
			c0-1.3-1.1-2.4-2.4-2.4H123z"/>
	</g>
	<g>
		<path d="M144.1,33.5H123c-1.6,0-2.9-1.3-2.9-2.9v-2.2c0-1.6,1.3-2.9,2.9-2.9h21.1c1.6,0,2.9,1.3,2.9,2.9v2.2
			C147,32.2,145.7,33.5,144.1,33.5z M123,26c-1.3,0-2.4,1.1-2.4,2.4v2.2c0,1.3,1.1,2.4,2.4,2.4h21.1c1.3,0,2.4-1.1,2.4-2.4v-2.2
			c0-1.3-1.1-2.4-2.4-2.4H123z"/>
	</g>
	<g>
		<circle class="st1" cx="123.7" cy="29.6" r="0.9"/>
		<path d="M123.7,30.6c-0.6,0-1.1-0.5-1.1-1.1c0-0.6,0.5-1.1,1.1-1.1c0.6,0,1.1,0.5,1.1,1.1C124.7,30.2,124.2,30.6,123.7,30.6z
			 M123.7,28.9c-0.3,0-0.6,0.3-0.6,0.6c0,0.3,0.3,0.6,0.6,0.6c0.3,0,0.6-0.3,0.6-0.6C124.3,29.2,124,28.9,123.7,28.9z"/>
	</g>
	<g>
		<circle class="st3" cx="126.7" cy="29.6" r="0.9"/>
		<path d="M126.7,30.6c-0.6,0-1.1-0.5-1.1-1.1c0-0.6,0.5-1.1,1.1-1.1c0.6,0,1.1,0.5,1.1,1.1C127.8,30.2,127.3,30.6,126.7,30.6z
			 M126.7,28.9c-0.3,0-0.6,0.3-0.6,0.6c0,0.3,0.3,0.6,0.6,0.6c0.3,0,0.6-0.3,0.6-0.6C127.3,29.2,127,28.9,126.7,28.9z"/>
	</g>
	<g>
		<path d="M144.3,29.8h-15c-0.1,0-0.2-0.1-0.2-0.2c0-0.1,0.1-0.2,0.2-0.2h15c0.1,0,0.2,0.1,0.2,0.2
			C144.6,29.7,144.5,29.8,144.3,29.8z"/>
	</g>
	<g>
		<path class="st7" d="M123,35.4c-1.3,0-2.4,1.1-2.4,2.4V40c0,1.3,1.1,2.4,2.4,2.4h21.1c1.3,0,2.4-1.1,2.4-2.4v-2.2
			c0-1.3-1.1-2.4-2.4-2.4H123z"/>
	</g>
	<g>
		<path d="M144.1,42.9H123c-1.6,0-2.9-1.3-2.9-2.9v-2.2c0-1.6,1.3-2.9,2.9-2.9h21.1c1.6,0,2.9,1.3,2.9,2.9V40
			C147,41.6,145.7,42.9,144.1,42.9z M123,35.4c-1.3,0-2.4,1.1-2.4,2.4V40c0,1.3,1.1,2.4,2.4,2.4h21.1c1.3,0,2.4-1.1,2.4-2.4v-2.2
			c0-1.3-1.1-2.4-2.4-2.4H123z"/>
	</g>
	<g>
		<circle class="st1" cx="123.7" cy="38.9" r="0.9"/>
		<path d="M123.7,40c-0.6,0-1.1-0.5-1.1-1.1c0-0.6,0.5-1.1,1.1-1.1c0.6,0,1.1,0.5,1.1,1.1C124.7,39.5,124.2,40,123.7,40z
			 M123.7,38.3c-0.3,0-0.6,0.3-0.6,0.6c0,0.3,0.3,0.6,0.6,0.6c0.3,0,0.6-0.3,0.6-0.6C124.3,38.6,124,38.3,123.7,38.3z"/>
	</g>
	<g>
		<circle class="st3" cx="126.7" cy="38.9" r="0.9"/>
		<path d="M126.7,40c-0.6,0-1.1-0.5-1.1-1.1c0-0.6,0.5-1.1,1.1-1.1c0.6,0,1.1,0.5,1.1,1.1C127.8,39.5,127.3,40,126.7,40z
			 M126.7,38.3c-0.3,0-0.6,0.3-0.6,0.6c0,0.3,0.3,0.6,0.6,0.6c0.3,0,0.6-0.3,0.6-0.6C127.3,38.6,127,38.3,126.7,38.3z"/>
	</g>
	<g>
		<path d="M144.3,39.2h-15c-0.1,0-0.2-0.1-0.2-0.2c0-0.1,0.1-0.2,0.2-0.2h15c0.1,0,0.2,0.1,0.2,0.2
			C144.6,39.1,144.5,39.2,144.3,39.2z"/>
	</g>
	<g>
		<path class="st7" d="M123,44.8c-1.3,0-2.4,1.1-2.4,2.4v2.2c0,1.3,1.1,2.4,2.4,2.4h21.1c1.3,0,2.4-1.1,2.4-2.4v-2.2
			c0-1.3-1.1-2.4-2.4-2.4H123z"/>
	</g>
	<g>
		<path d="M144.1,52.3H123c-1.6,0-2.9-1.3-2.9-2.9v-2.2c0-1.6,1.3-2.9,2.9-2.9h21.1c1.6,0,2.9,1.3,2.9,2.9v2.2
			C147,51,145.7,52.3,144.1,52.3z M123,44.8c-1.3,0-2.4,1.1-2.4,2.4v2.2c0,1.3,1.1,2.4,2.4,2.4h21.1c1.3,0,2.4-1.1,2.4-2.4v-2.2
			c0-1.3-1.1-2.4-2.4-2.4H123z"/>
	</g>
	<g>
		<circle class="st1" cx="123.7" cy="48.3" r="0.9"/>
		<path d="M123.7,49.4c-0.6,0-1.1-0.5-1.1-1.1c0-0.6,0.5-1.1,1.1-1.1c0.6,0,1.1,0.5,1.1,1.1C124.7,48.9,124.2,49.4,123.7,49.4z
			 M123.7,47.7c-0.3,0-0.6,0.3-0.6,0.6c0,0.3,0.3,0.6,0.6,0.6c0.3,0,0.6-0.3,0.6-0.6C124.3,48,124,47.7,123.7,47.7z"/>
	</g>
	<g>
		<circle class="st3" cx="126.7" cy="48.3" r="0.9"/>
		<path d="M126.7,49.4c-0.6,0-1.1-0.5-1.1-1.1c0-0.6,0.5-1.1,1.1-1.1c0.6,0,1.1,0.5,1.1,1.1C127.8,48.9,127.3,49.4,126.7,49.4z
			 M126.7,47.7c-0.3,0-0.6,0.3-0.6,0.6c0,0.3,0.3,0.6,0.6,0.6c0.3,0,0.6-0.3,0.6-0.6C127.3,48,127,47.7,126.7,47.7z"/>
	</g>
	<g>
		<path d="M144.3,48.6h-15c-0.1,0-0.2-0.1-0.2-0.2c0-0.1,0.1-0.2,0.2-0.2h15c0.1,0,0.2,0.1,0.2,0.2
			C144.6,48.5,144.5,48.6,144.3,48.6z"/>
	</g>
</g>
</svg>
