<?xml version="1.0" encoding="utf-8"?>
<!-- Generator: Adobe Illustrator 20.1.0, SVG Export Plug-In . SVG Version: 6.00 Build 0)  -->
<svg version="1.1" id="Capa_1" xmlns="http://www.w3.org/2000/svg" xmlns:xlink="http://www.w3.org/1999/xlink" x="0px" y="0px"
	 viewBox="0 0 155 90" style="enable-background:new 0 0 155 90;" xml:space="preserve">
<style type="text/css">
	.st0{fill:#93D7FF;}
	.st1{fill:#FF908D;}
	.st2{fill:#FFE985;}
	.st3{fill:#72D496;}
	.st4{fill:#FFE696;}
	.st5{fill:#E6E7E8;}
</style>
<g>
	<g>
		<g>
			<path class="st0" d="M143.2,27.8c0.1-0.5,0.2-1,0.2-1.5c0-2.9-2.3-5.2-5.2-5.2h-0.7c-0.4-4.8-4.5-8.6-9.5-8.6
				c-4.1,0-7.6,2.6-8.9,6.2c-0.5-0.2-1-0.4-1.5-0.4c-1.9,0-3.4,1.5-3.4,3.4c0,0.4,0.1,0.9,0.2,1.2h-1.1c-2.3,0-4.2,1.9-4.2,4.2
				c0,0.2,0,0.4,0.1,0.5H143.2z"/>
			<path d="M143.2,28.1h-34.1c-0.1,0-0.2-0.1-0.2-0.2l0-0.1c0-0.1,0-0.3,0-0.4c0-2.5,2-4.5,4.5-4.5h0.8c-0.1-0.3-0.1-0.7-0.1-1
				c0-2,1.6-3.7,3.7-3.7c0.5,0,0.9,0.1,1.4,0.3c1.5-3.7,5.1-6.1,9.1-6.1c5,0,9.1,3.7,9.7,8.6h0.5c3,0,5.4,2.4,5.4,5.4
				c0,0.5-0.1,1-0.2,1.6C143.4,28,143.3,28.1,143.2,28.1z M109.3,27.6H143c0.1-0.4,0.2-0.8,0.2-1.3c0-2.7-2.2-5-5-5h-0.7
				c-0.1,0-0.2-0.1-0.2-0.2c-0.4-4.8-4.4-8.4-9.2-8.4c-3.9,0-7.4,2.4-8.7,6.1c0,0.1-0.1,0.1-0.1,0.1c-0.1,0-0.1,0-0.2,0
				c-0.4-0.2-0.9-0.3-1.4-0.3c-1.8,0-3.2,1.4-3.2,3.2c0,0.4,0.1,0.8,0.2,1.2c0,0.1,0,0.2,0,0.2c0,0.1-0.1,0.1-0.2,0.1h-1.1
				c-2.2,0-4,1.8-4,4C109.3,27.4,109.3,27.5,109.3,27.6z"/>
		</g>
		<g>
			<path d="M109.1,28.1h-2.9c-0.1,0-0.2-0.1-0.2-0.2s0.1-0.2,0.2-0.2h2.9c0.1,0,0.2,0.1,0.2,0.2S109.2,28.1,109.1,28.1z"/>
		</g>
		<g>
			<path d="M103.5,28.1h-1.9c-0.1,0-0.2-0.1-0.2-0.2s0.1-0.2,0.2-0.2h1.9c0.1,0,0.2,0.1,0.2,0.2S103.7,28.1,103.5,28.1z"/>
		</g>
		<g>
			<path d="M144.1,19.2h-4c-0.3,0-0.5-0.2-0.5-0.5s0.2-0.5,0.5-0.5h4c0.3,0,0.5,0.2,0.5,0.5S144.3,19.2,144.1,19.2z"/>
		</g>
		<g>
			<path d="M147.5,28.1h-4.3c-0.1,0-0.2-0.1-0.2-0.2s0.1-0.2,0.2-0.2h4.3c0.1,0,0.2,0.1,0.2,0.2S147.6,28.1,147.5,28.1z"/>
		</g>
		<g>
			<circle class="st1" cx="119.6" cy="23.2" r="1.6"/>
			<path d="M119.6,25c-1,0-1.8-0.8-1.8-1.8c0-1,0.8-1.8,1.8-1.8s1.8,0.8,1.8,1.8C121.4,24.2,120.6,25,119.6,25z M119.6,21.8
				c-0.8,0-1.4,0.6-1.4,1.4c0,0.8,0.6,1.4,1.4,1.4c0.8,0,1.4-0.6,1.4-1.4C120.9,22.4,120.3,21.8,119.6,21.8z"/>
		</g>
		<g>
			<circle class="st2" cx="126.2" cy="23.2" r="1.6"/>
			<path d="M126.2,25c-1,0-1.8-0.8-1.8-1.8c0-1,0.8-1.8,1.8-1.8c1,0,1.8,0.8,1.8,1.8C128.1,24.2,127.3,25,126.2,25z M126.2,21.8
				c-0.8,0-1.4,0.6-1.4,1.4c0,0.8,0.6,1.4,1.4,1.4s1.4-0.6,1.4-1.4C127.6,22.4,127,21.8,126.2,21.8z"/>
		</g>
		<g>
			<circle class="st3" cx="132.9" cy="23.2" r="1.6"/>
			<path d="M132.9,25c-1,0-1.8-0.8-1.8-1.8c0-1,0.8-1.8,1.8-1.8c1,0,1.8,0.8,1.8,1.8C134.8,24.2,133.9,25,132.9,25z M132.9,21.8
				c-0.8,0-1.4,0.6-1.4,1.4c0,0.8,0.6,1.4,1.4,1.4c0.8,0,1.4-0.6,1.4-1.4C134.3,22.4,133.7,21.8,132.9,21.8z"/>
		</g>
	</g>
	<circle class="st0" cx="91.4" cy="75.4" r="1.7"/>
	<circle class="st1" cx="137.6" cy="45.9" r="1.7"/>
	<rect x="12.1" y="72.4" class="st2" width="4.6" height="4.6"/>
	<rect x="79" y="17.7" transform="matrix(0.7071 -0.7071 0.7071 0.7071 10.0539 62.5076)" class="st2" width="2.9" height="2.9"/>
	<rect x="104.6" y="4.8" transform="matrix(0.8278 -0.561 0.561 0.8278 14.5079 61.0064)" class="st1" width="4.1" height="4.1"/>
	<rect x="26" y="18.5" transform="matrix(0.7071 -0.7071 0.7071 0.7071 -6.1591 25.4985)" class="st3" width="3.3" height="3.3"/>
	<g>
		<path d="M28.6,46.3h30.3v3.8c0,0.2,0.2,0.4,0.4,0.4c0.2,0,0.4-0.2,0.4-0.4v-4.2c0-0.2-0.2-0.4-0.4-0.4H28.6"/>
	</g>
	<g>
		<path d="M90,42.1H63.9v8c0,0.2-0.2,0.4-0.4,0.4c-0.2,0-0.4-0.2-0.4-0.4v-8.5c0-0.2,0.2-0.4,0.4-0.4H90"/>
	</g>
	<path d="M32.4,11.6h-4.9c-0.2,0-0.4-0.2-0.4-0.4c0-0.2,0.2-0.4,0.4-0.4h4.9c0.2,0,0.4,0.2,0.4,0.4C32.8,11.4,32.6,11.6,32.4,11.6z"
		/>
	<path d="M22.9,11.6H1c-0.2,0-0.4-0.2-0.4-0.4c0-0.2,0.2-0.4,0.4-0.4h22c0.2,0,0.4,0.2,0.4,0.4C23.3,11.4,23.1,11.6,22.9,11.6z"/>
	<path d="M28.1,15.6H15.5c-0.3,0-0.5-0.2-0.5-0.5c0-0.3,0.2-0.5,0.5-0.5h12.6c0.3,0,0.5,0.2,0.5,0.5C28.6,15.4,28.4,15.6,28.1,15.6z
		"/>
	<path d="M153.4,52.2h-18.5c-0.2,0-0.4-0.2-0.4-0.4s0.2-0.4,0.4-0.4h18.5c0.2,0,0.4,0.2,0.4,0.4S153.6,52.2,153.4,52.2z"/>
	<path d="M138.5,55.5h-5.7c-0.3,0-0.5-0.2-0.5-0.5c0-0.3,0.2-0.5,0.5-0.5h5.7c0.3,0,0.5,0.2,0.5,0.5C139,55.3,138.8,55.5,138.5,55.5
		z"/>
	<g>
		<path class="st3" d="M14.4,43.6L13,43.1c-0.4,0.5-0.8,1.1-1.1,1.8l1,1.1l-0.5,1.3l-0.2,1.3l-1.4,0.4c0,0.7,0,1.4,0.1,2.1l1.4,0.3
			l0.3,1.3l0.7,1.2L12.5,55c0.4,0.6,0.8,1.1,1.3,1.6l1.3-0.6l1,0.9l1.2,0.6l0,1.5c0.7,0.2,1.3,0.4,2,0.5l0.7-1.3l1.3,0.1l1.3-0.3
			l0.9,1.2c0.3-0.1,0.7-0.2,1-0.3c0.3-0.1,0.6-0.3,1-0.4l-0.2-1.5l1.1-0.7l0.9-1l1.4,0.5c0.4-0.6,0.8-1.1,1.1-1.8l-1-1.1l0.5-1.3
			l0.2-1.3l1.4-0.4c0-0.7,0-1.4-0.1-2.1l-1.4-0.3l-0.3-1.3L28.5,45l0.9-1.2c-0.4-0.6-0.8-1.1-1.3-1.6l-1.3,0.6l-1-0.9l-1.2-0.6
			l0-1.5c-0.7-0.2-1.3-0.4-2-0.5l-0.7,1.3l-1.3-0.1l-1.3,0.3l-0.9-1.2c-0.3,0.1-0.7,0.2-1,0.3c-0.3,0.1-0.6,0.3-1,0.4l0.2,1.5
			l-1.1,0.7L14.4,43.6z M19,44.4c2.8-1.1,5.9,0.3,7,3c1.1,2.8-0.3,5.9-3,7c-2.8,1.1-5.9-0.3-7-3C14.9,48.6,16.2,45.5,19,44.4z"/>
		<path d="M19.4,59.6c-0.7-0.1-1.4-0.3-2-0.5c-0.1,0-0.2-0.1-0.2-0.2l0-1.3L16.1,57c0,0,0,0-0.1,0l-0.9-0.8L14,56.8
			c-0.1,0-0.2,0-0.3,0c-0.5-0.5-1-1.1-1.4-1.7c-0.1-0.1-0.1-0.2,0-0.3l0.8-1.1l-0.6-1c0,0,0,0,0-0.1l-0.3-1.2l-1.3-0.2
			c-0.1,0-0.2-0.1-0.2-0.2c-0.1-0.7-0.2-1.4-0.1-2.1c0-0.1,0.1-0.2,0.2-0.2l1.3-0.4l0.1-1.2c0,0,0,0,0-0.1l0.4-1.1l-0.9-1
			c-0.1-0.1-0.1-0.2,0-0.3c0.3-0.6,0.7-1.2,1.2-1.8c0.1-0.1,0.2-0.1,0.3-0.1l1.2,0.4l0.8-0.9c0,0,0,0,0,0l1-0.6l-0.2-1.3
			c0-0.1,0-0.2,0.1-0.2c0.3-0.2,0.6-0.3,1-0.4c0.3-0.1,0.7-0.2,1-0.3c0.1,0,0.2,0,0.3,0.1l0.8,1.1l1.2-0.2c0,0,0,0,0.1,0l1.2,0.1
			l0.6-1.2c0-0.1,0.1-0.1,0.2-0.1c0.7,0.1,1.4,0.3,2.1,0.5c0.1,0,0.2,0.1,0.2,0.2l0,1.3l1.1,0.5c0,0,0,0,0.1,0l0.9,0.8l1.2-0.6
			c0.1,0,0.2,0,0.3,0c0.5,0.5,1,1.1,1.4,1.7c0.1,0.1,0.1,0.2,0,0.3L28.8,45l0.6,1c0,0,0,0,0,0.1l0.3,1.2l1.3,0.2
			c0.1,0,0.2,0.1,0.2,0.2c0.1,0.7,0.2,1.4,0.1,2.1c0,0.1-0.1,0.2-0.2,0.2l-1.3,0.4l-0.1,1.2c0,0,0,0,0,0.1l-0.4,1.1l0.9,1
			c0.1,0.1,0.1,0.2,0,0.3c-0.3,0.6-0.7,1.2-1.2,1.8c-0.1,0.1-0.2,0.1-0.3,0.1l-1.2-0.4l-0.8,0.9c0,0,0,0,0,0l-1,0.6l0.2,1.3
			c0,0.1,0,0.2-0.1,0.2c-0.3,0.2-0.6,0.3-1,0.4c-0.3,0.1-0.7,0.2-1,0.3c-0.1,0-0.2,0-0.3-0.1l-0.8-1.1l-1.2,0.2c0,0,0,0-0.1,0
			l-1.2-0.1l-0.6,1.2C19.6,59.6,19.5,59.6,19.4,59.6L19.4,59.6z M17.7,58.7c0.5,0.2,1.1,0.3,1.7,0.4l0.6-1.1c0-0.1,0.1-0.1,0.2-0.1
			l1.3,0.1l1.3-0.2c0.1,0,0.2,0,0.2,0.1l0.8,1.1c0.3-0.1,0.5-0.2,0.8-0.3c0.3-0.1,0.5-0.2,0.8-0.3l-0.2-1.3c0-0.1,0-0.2,0.1-0.2
			l1.1-0.7l0.9-1c0.1-0.1,0.2-0.1,0.3-0.1l1.2,0.4c0.4-0.5,0.7-0.9,0.9-1.4L28.8,53c-0.1-0.1-0.1-0.2,0-0.3l0.5-1.2l0.2-1.3
			c0-0.1,0.1-0.2,0.2-0.2l1.2-0.4c0-0.6,0-1.2-0.1-1.7l-1.3-0.2c-0.1,0-0.2-0.1-0.2-0.2l-0.3-1.3l-0.6-1.2c0-0.1,0-0.2,0-0.3l0.8-1
			c-0.3-0.5-0.7-0.9-1.1-1.3L26.8,43c-0.1,0-0.2,0-0.3,0l-1-0.8l-1.2-0.6c-0.1,0-0.1-0.1-0.1-0.2l0-1.3c-0.5-0.2-1.1-0.3-1.7-0.4
			L22,40.8c0,0.1-0.1,0.1-0.2,0.1l-1.3-0.1l-1.3,0.2c-0.1,0-0.2,0-0.2-0.1l-0.8-1.1c-0.3,0.1-0.5,0.2-0.8,0.3
			c-0.3,0.1-0.5,0.2-0.8,0.3l0.2,1.3c0,0.1,0,0.2-0.1,0.2l-1.1,0.7l-0.9,1c-0.1,0.1-0.2,0.1-0.3,0.1l-1.2-0.4
			c-0.3,0.5-0.7,0.9-0.9,1.4l0.9,0.9c0.1,0.1,0.1,0.2,0,0.3l-0.5,1.2l-0.2,1.3c0,0.1-0.1,0.2-0.2,0.2l-1.2,0.4c0,0.6,0,1.1,0.1,1.7
			l1.3,0.2c0.1,0,0.2,0.1,0.2,0.2l0.3,1.3l0.6,1.2c0,0.1,0,0.2,0,0.3l-0.8,1c0.3,0.5,0.7,0.9,1.1,1.3l1.2-0.6c0.1,0,0.2,0,0.3,0
			l1,0.8l1.2,0.6c0.1,0,0.1,0.1,0.1,0.2L17.7,58.7z M20.1,54.9c-2-0.3-3.6-1.6-4.4-3.5c-0.5-1.4-0.5-2.9,0.1-4.3
			c0.6-1.4,1.7-2.4,3.1-3c0.9-0.4,1.9-0.5,2.9-0.3c2,0.3,3.6,1.6,4.4,3.5c0.5,1.4,0.5,2.9-0.1,4.3c-0.6,1.4-1.7,2.4-3.1,3
			C22.1,55,21.1,55.1,20.1,54.9z M21.7,44.3c-0.9-0.1-1.8,0-2.7,0.3c-1.3,0.5-2.3,1.5-2.8,2.7c-0.5,1.3-0.6,2.7-0.1,3.9
			c0.7,1.7,2.2,2.9,4,3.2c0.9,0.1,1.8,0,2.7-0.3c1.3-0.5,2.3-1.5,2.8-2.7c0.5-1.3,0.6-2.7,0.1-3.9C25.1,45.8,23.5,44.6,21.7,44.3z"
			/>
	</g>
	<g>
		<path class="st4" d="M91.6,38.3l-1.2-0.4c-0.4,0.5-0.7,1-1,1.6l0.9,0.9l-0.4,1.1l-0.1,1.2l-1.2,0.4c0,0.6,0,1.2,0.2,1.8l1.3,0.2
			l0.3,1.1l0.6,1l-0.8,1.1c0.4,0.5,0.8,1,1.2,1.4l1.2-0.6l0.9,0.7l1.1,0.5l0,1.3c0.6,0.2,1.2,0.3,1.8,0.4L97,51l1.2,0.1l1.2-0.2
			l0.8,1c0.3-0.1,0.6-0.2,0.9-0.3c0.3-0.1,0.6-0.3,0.8-0.4l-0.2-1.3l1-0.7l0.8-0.9l1.2,0.4c0.4-0.5,0.7-1,1-1.6l-0.9-0.9l0.4-1.1
			l0.1-1.2l1.2-0.4c0-0.6,0-1.2-0.2-1.8l-1.3-0.2l-0.3-1.1l-0.6-1l0.8-1.1c-0.4-0.5-0.8-1-1.2-1.4l-1.2,0.6l-0.9-0.7l-1.1-0.5l0-1.3
			c-0.6-0.2-1.2-0.3-1.8-0.4l-0.6,1.2l-1.2-0.1l-1.2,0.2l-0.8-1c-0.3,0.1-0.6,0.2-0.9,0.3c-0.3,0.1-0.6,0.3-0.8,0.4l0.2,1.3l-1,0.7
			L91.6,38.3z M95.7,39c2.4-1,5.2,0.1,6.2,2.5c1,2.4-0.1,5.2-2.5,6.2c-2.4,1-5.2-0.1-6.2-2.5C92.1,42.8,93.3,40,95.7,39z"/>
		<path d="M96.3,52.4c-0.6-0.1-1.2-0.2-1.8-0.4c-0.1,0-0.1-0.1-0.1-0.2l0-1.2l-1-0.4c0,0,0,0,0,0l-0.8-0.7l-1,0.5
			c-0.1,0-0.2,0-0.2,0c-0.5-0.4-0.9-0.9-1.2-1.4c-0.1-0.1,0-0.2,0-0.2l0.7-0.9l-0.5-0.9c0,0,0,0,0,0l-0.3-1l-1.1-0.2
			c-0.1,0-0.2-0.1-0.2-0.2c-0.1-0.6-0.2-1.2-0.2-1.9c0-0.1,0.1-0.2,0.1-0.2l1.1-0.4l0.1-1c0,0,0,0,0-0.1l0.4-1l-0.8-0.8
			c-0.1-0.1-0.1-0.2,0-0.2c0.3-0.6,0.6-1.1,1-1.6c0.1-0.1,0.1-0.1,0.2-0.1l1.1,0.3l0.7-0.8c0,0,0,0,0,0l0.9-0.6L93,35.5
			c0-0.1,0-0.2,0.1-0.2c0.3-0.2,0.6-0.3,0.9-0.4c0.3-0.1,0.6-0.2,0.9-0.3c0.1,0,0.2,0,0.2,0.1l0.7,0.9l1-0.2c0,0,0,0,0.1,0l1.1,0
			l0.5-1c0-0.1,0.1-0.1,0.2-0.1c0.6,0.1,1.3,0.2,1.8,0.4c0.1,0,0.1,0.1,0.1,0.2l0,1.2l1,0.4c0,0,0,0,0,0l0.8,0.7l1-0.5
			c0.1,0,0.2,0,0.2,0c0.5,0.4,0.9,0.9,1.2,1.4c0.1,0.1,0,0.2,0,0.2l-0.7,0.9l0.5,0.9c0,0,0,0,0,0l0.3,1l1.1,0.2
			c0.1,0,0.2,0.1,0.2,0.2c0.1,0.6,0.2,1.2,0.2,1.9c0,0.1-0.1,0.2-0.1,0.2l-1.1,0.4l-0.1,1c0,0,0,0,0,0.1l-0.4,1l0.8,0.8
			c0.1,0.1,0.1,0.2,0,0.2c-0.3,0.6-0.6,1.1-1,1.6c-0.1,0.1-0.1,0.1-0.2,0.1l-1.1-0.3l-0.7,0.8c0,0,0,0,0,0l-0.9,0.6l0.2,1.1
			c0,0.1,0,0.2-0.1,0.2c-0.3,0.2-0.6,0.3-0.9,0.4c-0.3,0.1-0.6,0.2-0.9,0.3c-0.1,0-0.2,0-0.2-0.1l-0.7-0.9l-1,0.2c0,0,0,0-0.1,0
			l-1.1,0l-0.5,1C96.5,52.4,96.4,52.4,96.3,52.4L96.3,52.4z M94.8,51.6c0.5,0.2,1,0.3,1.5,0.3l0.5-1c0.1,0,0.1-0.1,0.2-0.1l1.2,0.1
			l1.1-0.2c0.1,0,0.1,0.1,0.2,0.1l0.7,0.9c0.2-0.1,0.5-0.2,0.7-0.3c0.2-0.1,0.5-0.2,0.7-0.3l-0.2-1.1c0-0.1,0.1-0.1,0.1-0.2l1-0.6
			l0.8-0.9c0.1,0,0.1,0,0.2-0.1l1.1,0.3c0.3-0.4,0.6-0.8,0.8-1.3l-0.8-0.8c0-0.1,0-0.1,0-0.2l0.4-1.1l0.1-1.2
			c0.1-0.1,0.1-0.1,0.1-0.2l1.1-0.4c0-0.5,0-1-0.1-1.5l-1.1-0.2c-0.1-0.1-0.1-0.1-0.2-0.2l-0.3-1.1l-0.6-1c0-0.1,0-0.1,0-0.2
			l0.7-0.9c-0.3-0.4-0.6-0.8-1-1.1l-1,0.5c-0.1,0-0.1,0-0.2,0l-0.9-0.7l-1.1-0.5c0-0.1-0.1-0.1-0.1-0.2l0-1.1
			c-0.5-0.2-1-0.3-1.5-0.3l-0.5,1c-0.1,0-0.1,0.1-0.2,0.1l-1.2-0.1L95.7,36c-0.1,0-0.1-0.1-0.2-0.1L94.8,35
			c-0.2,0.1-0.5,0.2-0.7,0.3c-0.2,0.1-0.5,0.2-0.7,0.3l0.2,1.1c0,0.1-0.1,0.1-0.1,0.2l-1,0.6l-0.8,0.9c-0.1,0-0.1,0-0.2,0.1
			l-1.1-0.3c-0.3,0.4-0.6,0.8-0.8,1.3l0.8,0.8c0,0.1,0,0.1,0,0.2l-0.4,1.1L90,42.8c-0.1,0.1-0.1,0.1-0.1,0.2l-1.1,0.4
			c0,0.5,0,1,0.1,1.5l1.1,0.2c0.1,0.1,0.1,0.1,0.2,0.2l0.3,1.1l0.6,1c0,0.1,0,0.1,0,0.2l-0.7,0.9c0.3,0.4,0.6,0.8,1,1.1l1-0.5
			c0.1,0,0.1,0,0.2,0l0.9,0.7l1.1,0.5c0,0.1,0.1,0.1,0.1,0.2L94.8,51.6z M96.9,48.2c-1.7-0.2-3.2-1.4-3.9-3c-0.5-1.2-0.5-2.6,0-3.8
			c0.5-1.2,1.4-2.2,2.7-2.7c0.8-0.3,1.7-0.5,2.6-0.3c1.7,0.2,3.2,1.4,3.9,3c0.5,1.2,0.5,2.6,0,3.8c-0.5,1.2-1.4,2.2-2.7,2.7
			C98.6,48.2,97.7,48.4,96.9,48.2z M98.1,38.8c-0.8-0.1-1.6,0-2.3,0.3c-1.1,0.5-2,1.3-2.4,2.5c-0.5,1.1-0.5,2.3,0,3.5
			c0.6,1.5,2,2.5,3.6,2.7c0.8,0.1,1.6,0,2.3-0.3c1.1-0.5,2-1.3,2.4-2.5c0.5-1.1,0.5-2.3,0-3.5C101.1,40.1,99.7,39.1,98.1,38.8z"/>
	</g>
	<g>
		<g>
			<path class="st5" d="M40.8,10.4c-1.1,0-2.1,0.9-2.1,2.1v1.9c0,1.1,0.9,2.1,2.1,2.1h18c1.1,0,2.1-0.9,2.1-2.1v-1.9
				c0-1.1-0.9-2.1-2.1-2.1H40.8z"/>
		</g>
		<g>
			<path d="M58.8,16.8h-18c-1.3,0-2.4-1.1-2.4-2.4v-1.9c0-1.3,1.1-2.4,2.4-2.4h18c1.3,0,2.4,1.1,2.4,2.4v1.9
				C61.3,15.7,60.2,16.8,58.8,16.8z M40.8,10.4c-1.1,0-2.1,0.9-2.1,2.1v1.9c0,1.1,0.9,2.1,2.1,2.1h18c1.1,0,2.1-0.9,2.1-2.1v-1.9
				c0-1.1-0.9-2.1-2.1-2.1H40.8z"/>
		</g>
		<g>
			<circle class="st1" cx="41.4" cy="13.4" r="0.7"/>
			<path d="M41.4,14.4c-0.5,0-0.9-0.4-0.9-0.9c0-0.5,0.4-0.9,0.9-0.9c0.5,0,0.9,0.4,0.9,0.9C42.3,13.9,41.9,14.4,41.4,14.4z
				 M41.4,12.9c-0.3,0-0.5,0.2-0.5,0.5c0,0.3,0.2,0.5,0.5,0.5c0.3,0,0.5-0.2,0.5-0.5C41.9,13.1,41.7,12.9,41.4,12.9z"/>
		</g>
		<g>
			<circle class="st3" cx="44" cy="13.4" r="0.7"/>
			<path d="M44,14.4c-0.5,0-0.9-0.4-0.9-0.9c0-0.5,0.4-0.9,0.9-0.9c0.5,0,0.9,0.4,0.9,0.9C44.9,13.9,44.5,14.4,44,14.4z M44,12.9
				c-0.3,0-0.5,0.2-0.5,0.5c0,0.3,0.2,0.5,0.5,0.5c0.3,0,0.5-0.2,0.5-0.5C44.5,13.1,44.3,12.9,44,12.9z"/>
		</g>
		<g>
			<path d="M59,13.6H46.2c-0.1,0-0.2-0.1-0.2-0.2c0-0.1,0.1-0.2,0.2-0.2H59c0.1,0,0.2,0.1,0.2,0.2C59.2,13.5,59.1,13.6,59,13.6z"/>
		</g>
		<g>
			<path class="st5" d="M40.8,18.4c-1.1,0-2.1,0.9-2.1,2.1v1.9c0,1.1,0.9,2.1,2.1,2.1h18c1.1,0,2.1-0.9,2.1-2.1v-1.9
				c0-1.1-0.9-2.1-2.1-2.1H40.8z"/>
		</g>
		<g>
			<path d="M58.8,24.8h-18c-1.3,0-2.4-1.1-2.4-2.4v-1.9c0-1.3,1.1-2.4,2.4-2.4h18c1.3,0,2.4,1.1,2.4,2.4v1.9
				C61.3,23.7,60.2,24.8,58.8,24.8z M40.8,18.4c-1.1,0-2.1,0.9-2.1,2.1v1.9c0,1.1,0.9,2.1,2.1,2.1h18c1.1,0,2.1-0.9,2.1-2.1v-1.9
				c0-1.1-0.9-2.1-2.1-2.1H40.8z"/>
		</g>
		<g>
			<circle class="st1" cx="41.4" cy="21.4" r="0.7"/>
			<path d="M41.4,22.3c-0.5,0-0.9-0.4-0.9-0.9c0-0.5,0.4-0.9,0.9-0.9c0.5,0,0.9,0.4,0.9,0.9C42.3,21.9,41.9,22.3,41.4,22.3z
				 M41.4,20.9c-0.3,0-0.5,0.2-0.5,0.5c0,0.3,0.2,0.5,0.5,0.5c0.3,0,0.5-0.2,0.5-0.5C41.9,21.1,41.7,20.9,41.4,20.9z"/>
		</g>
		<g>
			<circle class="st3" cx="44" cy="21.4" r="0.7"/>
			<path d="M44,22.3c-0.5,0-0.9-0.4-0.9-0.9c0-0.5,0.4-0.9,0.9-0.9c0.5,0,0.9,0.4,0.9,0.9C44.9,21.9,44.5,22.3,44,22.3z M44,20.9
				c-0.3,0-0.5,0.2-0.5,0.5c0,0.3,0.2,0.5,0.5,0.5c0.3,0,0.5-0.2,0.5-0.5C44.5,21.1,44.3,20.9,44,20.9z"/>
		</g>
		<g>
			<path d="M59,21.6H46.2c-0.1,0-0.2-0.1-0.2-0.2c0-0.1,0.1-0.2,0.2-0.2H59c0.1,0,0.2,0.1,0.2,0.2C59.2,21.5,59.1,21.6,59,21.6z"/>
		</g>
		<g>
			<path class="st5" d="M40.8,26.4c-1.1,0-2.1,0.9-2.1,2.1v1.9c0,1.1,0.9,2.1,2.1,2.1h18c1.1,0,2.1-0.9,2.1-2.1v-1.9
				c0-1.1-0.9-2.1-2.1-2.1H40.8z"/>
		</g>
		<g>
			<path d="M58.8,32.8h-18c-1.3,0-2.4-1.1-2.4-2.4v-1.9c0-1.3,1.1-2.4,2.4-2.4h18c1.3,0,2.4,1.1,2.4,2.4v1.9
				C61.3,31.7,60.2,32.8,58.8,32.8z M40.8,26.4c-1.1,0-2.1,0.9-2.1,2.1v1.9c0,1.1,0.9,2.1,2.1,2.1h18c1.1,0,2.1-0.9,2.1-2.1v-1.9
				c0-1.1-0.9-2.1-2.1-2.1H40.8z"/>
		</g>
		<g>
			<circle class="st1" cx="41.4" cy="29.4" r="0.7"/>
			<path d="M41.4,30.3c-0.5,0-0.9-0.4-0.9-0.9c0-0.5,0.4-0.9,0.9-0.9c0.5,0,0.9,0.4,0.9,0.9C42.3,29.9,41.9,30.3,41.4,30.3z
				 M41.4,28.9c-0.3,0-0.5,0.2-0.5,0.5c0,0.3,0.2,0.5,0.5,0.5c0.3,0,0.5-0.2,0.5-0.5C41.9,29.1,41.7,28.9,41.4,28.9z"/>
		</g>
		<g>
			<circle class="st3" cx="44" cy="29.4" r="0.7"/>
			<path d="M44,30.3c-0.5,0-0.9-0.4-0.9-0.9c0-0.5,0.4-0.9,0.9-0.9c0.5,0,0.9,0.4,0.9,0.9C44.9,29.9,44.5,30.3,44,30.3z M44,28.9
				c-0.3,0-0.5,0.2-0.5,0.5c0,0.3,0.2,0.5,0.5,0.5c0.3,0,0.5-0.2,0.5-0.5C44.5,29.1,44.3,28.9,44,28.9z"/>
		</g>
		<g>
			<path d="M59,29.6H46.2c-0.1,0-0.2-0.1-0.2-0.2c0-0.1,0.1-0.2,0.2-0.2H59c0.1,0,0.2,0.1,0.2,0.2C59.2,29.5,59.1,29.6,59,29.6z"/>
		</g>
	</g>
	<g>
		<g>
			<path class="st5" d="M119.2,59.4c-1.1,0-2.1,0.9-2.1,2.1v1.9c0,1.1,0.9,2.1,2.1,2.1h18c1.1,0,2.1-0.9,2.1-2.1v-1.9
				c0-1.1-0.9-2.1-2.1-2.1H119.2z"/>
		</g>
		<g>
			<path d="M137.2,65.8h-18c-1.3,0-2.4-1.1-2.4-2.4v-1.9c0-1.3,1.1-2.4,2.4-2.4h18c1.3,0,2.4,1.1,2.4,2.4v1.9
				C139.7,64.7,138.6,65.8,137.2,65.8z M119.2,59.4c-1.1,0-2.1,0.9-2.1,2.1v1.9c0,1.1,0.9,2.1,2.1,2.1h18c1.1,0,2.1-0.9,2.1-2.1
				v-1.9c0-1.1-0.9-2.1-2.1-2.1H119.2z"/>
		</g>
		<g>
			<circle class="st1" cx="119.8" cy="62.4" r="0.7"/>
			<path d="M119.8,63.3c-0.5,0-0.9-0.4-0.9-0.9c0-0.5,0.4-0.9,0.9-0.9c0.5,0,0.9,0.4,0.9,0.9C120.7,62.9,120.3,63.3,119.8,63.3z
				 M119.8,61.9c-0.3,0-0.5,0.2-0.5,0.5c0,0.3,0.2,0.5,0.5,0.5c0.3,0,0.5-0.2,0.5-0.5C120.3,62.1,120.1,61.9,119.8,61.9z"/>
		</g>
		<g>
			<circle class="st3" cx="122.4" cy="62.4" r="0.7"/>
			<path d="M122.4,63.3c-0.5,0-0.9-0.4-0.9-0.9c0-0.5,0.4-0.9,0.9-0.9c0.5,0,0.9,0.4,0.9,0.9C123.3,62.9,122.9,63.3,122.4,63.3z
				 M122.4,61.9c-0.3,0-0.5,0.2-0.5,0.5c0,0.3,0.2,0.5,0.5,0.5c0.3,0,0.5-0.2,0.5-0.5C122.9,62.1,122.7,61.9,122.4,61.9z"/>
		</g>
		<g>
			<path d="M137.4,62.6h-12.8c-0.1,0-0.2-0.1-0.2-0.2c0-0.1,0.1-0.2,0.2-0.2h12.8c0.1,0,0.2,0.1,0.2,0.2
				C137.6,62.5,137.5,62.6,137.4,62.6z"/>
		</g>
		<g>
			<path class="st5" d="M119.2,67.4c-1.1,0-2.1,0.9-2.1,2.1v1.9c0,1.1,0.9,2.1,2.1,2.1h18c1.1,0,2.1-0.9,2.1-2.1v-1.9
				c0-1.1-0.9-2.1-2.1-2.1H119.2z"/>
		</g>
		<g>
			<path d="M137.2,73.8h-18c-1.3,0-2.4-1.1-2.4-2.4v-1.9c0-1.3,1.1-2.4,2.4-2.4h18c1.3,0,2.4,1.1,2.4,2.4v1.9
				C139.7,72.7,138.6,73.8,137.2,73.8z M119.2,67.4c-1.1,0-2.1,0.9-2.1,2.1v1.9c0,1.1,0.9,2.1,2.1,2.1h18c1.1,0,2.1-0.9,2.1-2.1
				v-1.9c0-1.1-0.9-2.1-2.1-2.1H119.2z"/>
		</g>
		<g>
			<circle class="st1" cx="119.8" cy="70.4" r="0.7"/>
			<path d="M119.8,71.3c-0.5,0-0.9-0.4-0.9-0.9c0-0.5,0.4-0.9,0.9-0.9c0.5,0,0.9,0.4,0.9,0.9C120.7,70.9,120.3,71.3,119.8,71.3z
				 M119.8,69.9c-0.3,0-0.5,0.2-0.5,0.5c0,0.3,0.2,0.5,0.5,0.5c0.3,0,0.5-0.2,0.5-0.5C120.3,70.1,120.1,69.9,119.8,69.9z"/>
		</g>
		<g>
			<circle class="st3" cx="122.4" cy="70.4" r="0.7"/>
			<path d="M122.4,71.3c-0.5,0-0.9-0.4-0.9-0.9c0-0.5,0.4-0.9,0.9-0.9c0.5,0,0.9,0.4,0.9,0.9C123.3,70.9,122.9,71.3,122.4,71.3z
				 M122.4,69.9c-0.3,0-0.5,0.2-0.5,0.5c0,0.3,0.2,0.5,0.5,0.5c0.3,0,0.5-0.2,0.5-0.5C122.9,70.1,122.7,69.9,122.4,69.9z"/>
		</g>
		<g>
			<path d="M137.4,70.6h-12.8c-0.1,0-0.2-0.1-0.2-0.2c0-0.1,0.1-0.2,0.2-0.2h12.8c0.1,0,0.2,0.1,0.2,0.2
				C137.6,70.5,137.5,70.6,137.4,70.6z"/>
		</g>
		<g>
			<path class="st5" d="M119.2,75.4c-1.1,0-2.1,0.9-2.1,2.1v1.9c0,1.1,0.9,2.1,2.1,2.1h18c1.1,0,2.1-0.9,2.1-2.1v-1.9
				c0-1.1-0.9-2.1-2.1-2.1H119.2z"/>
		</g>
		<g>
			<path d="M137.2,81.7h-18c-1.3,0-2.4-1.1-2.4-2.4v-1.9c0-1.3,1.1-2.4,2.4-2.4h18c1.3,0,2.4,1.1,2.4,2.4v1.9
				C139.7,80.7,138.6,81.7,137.2,81.7z M119.2,75.4c-1.1,0-2.1,0.9-2.1,2.1v1.9c0,1.1,0.9,2.1,2.1,2.1h18c1.1,0,2.1-0.9,2.1-2.1
				v-1.9c0-1.1-0.9-2.1-2.1-2.1H119.2z"/>
		</g>
		<g>
			<circle class="st1" cx="119.8" cy="78.4" r="0.7"/>
			<path d="M119.8,79.3c-0.5,0-0.9-0.4-0.9-0.9c0-0.5,0.4-0.9,0.9-0.9c0.5,0,0.9,0.4,0.9,0.9C120.7,78.9,120.3,79.3,119.8,79.3z
				 M119.8,77.9c-0.3,0-0.5,0.2-0.5,0.5c0,0.3,0.2,0.5,0.5,0.5c0.3,0,0.5-0.2,0.5-0.5C120.3,78.1,120.1,77.9,119.8,77.9z"/>
		</g>
		<g>
			<circle class="st3" cx="122.4" cy="78.4" r="0.7"/>
			<path d="M122.4,79.3c-0.5,0-0.9-0.4-0.9-0.9c0-0.5,0.4-0.9,0.9-0.9c0.5,0,0.9,0.4,0.9,0.9C123.3,78.9,122.9,79.3,122.4,79.3z
				 M122.4,77.9c-0.3,0-0.5,0.2-0.5,0.5c0,0.3,0.2,0.5,0.5,0.5c0.3,0,0.5-0.2,0.5-0.5C122.9,78.1,122.7,77.9,122.4,77.9z"/>
		</g>
		<g>
			<path d="M137.4,78.6h-12.8c-0.1,0-0.2-0.1-0.2-0.2c0-0.1,0.1-0.2,0.2-0.2h12.8c0.1,0,0.2,0.1,0.2,0.2
				C137.6,78.5,137.5,78.6,137.4,78.6z"/>
		</g>
	</g>
	<g>
		<g>
			<path d="M72.8,70.6c-0.1-0.1-5.5-7.8-8.9-12.3l-0.3-0.3v-6.1h2.1v-2h-10v2h2v6.1l-0.3,0.3c-3.2,4.4-8.5,12.2-8.6,12.3v0.1
				c-0.4,0.9-0.4,1.8,0.1,2.6s1.4,1.3,2.3,1.3h19.4c0.9,0,1.8-0.5,2.2-1.4C73.4,72.5,73.4,71.5,72.8,70.6z M62.8,51.9v6h-4.2v-6
				H62.8z M58.2,59h5.1c1.7,2.2,3.8,5,5.5,7.5l-16.1,0.2C54.5,64.1,56.5,61.3,58.2,59z"/>
			<path class="st1" d="M53,66.3L49.9,71c0,0-0.4,0.7-0.4,1.2c0.1,0.4,0.1,1.9,2,1.9c1.8,0,11.5,0,11.5,0v-7.7L53,66.3z"/>
			<path class="st1" d="M68.3,66.3l3.3,4.6c0,0,0.5,0.7,0.5,1.2C72,72.5,72,74,70.2,74C68.4,74,58,74,58,74v-7.7L68.3,66.3z"/>
		</g>
		<circle class="st1" cx="63.3" cy="62.8" r="1.4"/>
		<circle class="st1" cx="60.3" cy="61.1" r="1.1"/>
		<circle class="st1" cx="61" cy="55.6" r="0.9"/>
	</g>
	<path d="M89,60.4h-22c-0.2,0-0.4-0.2-0.4-0.4c0-0.2,0.2-0.4,0.4-0.4h22c0.2,0,0.4,0.2,0.4,0.4C89.4,60.3,89.2,60.4,89,60.4z"/>
	<path d="M80.3,57.6H67.8c-0.3,0-0.5-0.2-0.5-0.5s0.2-0.5,0.5-0.5h12.6c0.3,0,0.5,0.2,0.5,0.5S80.6,57.6,80.3,57.6z"/>
	<path d="M48.3,67.7H35.8c-0.3,0-0.5-0.2-0.5-0.5c0-0.3,0.2-0.5,0.5-0.5h12.6c0.3,0,0.5,0.2,0.5,0.5C48.8,67.5,48.6,67.7,48.3,67.7z
		"/>
	<path d="M88.1,63h-3.4c-0.1,0-0.3-0.1-0.3-0.3c0-0.1,0.1-0.3,0.3-0.3h3.4c0.1,0,0.3,0.1,0.3,0.3C88.3,62.9,88.2,63,88.1,63z"/>
	<path d="M48.3,64.3H45c-0.1,0-0.3-0.1-0.3-0.3c0-0.1,0.1-0.3,0.3-0.3h3.4c0.1,0,0.3,0.1,0.3,0.3C48.6,64.2,48.5,64.3,48.3,64.3z"/>
	<g>
		<path d="M20.4,40.8c-0.2,0-0.4-0.2-0.4-0.4v-2.8c0-0.2,0.2-0.4,0.4-0.4h29v-3.8c0-0.2,0.2-0.4,0.4-0.4c0.2,0,0.4,0.2,0.4,0.4v4.2
			c0,0.2-0.2,0.4-0.4,0.4h-29v2.4C20.8,40.6,20.6,40.8,20.4,40.8z"/>
	</g>
	<g>
		<path d="M127.7,58.9c0.2,0,0.4-0.2,0.4-0.4v-2.8c0-0.2-0.2-0.4-0.4-0.4h-29v-3.8c0-0.2-0.2-0.4-0.4-0.4s-0.4,0.2-0.4,0.4v4.2
			c0,0.2,0.2,0.4,0.4,0.4h29v2.4C127.3,58.7,127.5,58.9,127.7,58.9z"/>
	</g>
	<g>
		<path d="M97.2,35.7c-0.2,0-0.4-0.2-0.4-0.4v-2.8c0-0.2,0.2-0.4,0.4-0.4h29v-3.8c0-0.2,0.2-0.4,0.4-0.4s0.4,0.2,0.4,0.4v4.2
			c0,0.2-0.2,0.4-0.4,0.4h-29v2.4C97.7,35.5,97.5,35.7,97.2,35.7z"/>
	</g>
</g>
</svg>
