<?xml version="1.0" encoding="utf-8"?>
<!-- Generator: Adobe Illustrator 20.1.0, SVG Export Plug-In . SVG Version: 6.00 Build 0)  -->
<svg version="1.1" id="Capa_1" xmlns="http://www.w3.org/2000/svg" xmlns:xlink="http://www.w3.org/1999/xlink" x="0px" y="0px"
	 viewBox="0 0 155 90" style="enable-background:new 0 0 155 90;" xml:space="preserve">
<style type="text/css">
	.st0{fill:#93D7FF;}
	.st1{fill:#FF908D;}
	.st2{fill:#FFE985;}
	.st3{fill:#72D496;}
	.st4{fill:#E6E7E8;}
	.st5{fill:#998675;}
	.st6{fill:#B7A797;}
	.st7{fill:#C7B299;}
</style>
<g>
	<g>
		<g>
			<path class="st0" d="M100.7,24.3c0.2-0.7,0.3-1.4,0.3-2.1c0-4.1-3.3-7.3-7.3-7.3h-1.1C92,8,86.3,2.7,79.3,2.7
				c-5.8,0-10.7,3.7-12.6,8.8C66,11.1,65.3,11,64.5,11c-2.7,0-4.8,2.2-4.8,4.8c0,0.6,0.1,1.2,0.3,1.7h-1.6c-3.3,0-6,2.7-6,6
				c0,0.3,0,0.5,0.1,0.7H100.7z"/>
			<path d="M100.7,24.6H52.5c-0.2,0-0.3-0.1-0.3-0.3l0-0.2c0-0.2-0.1-0.4-0.1-0.6c0-3.5,2.8-6.3,6.3-6.3h1.1
				c-0.1-0.5-0.2-0.9-0.2-1.4c0-2.9,2.3-5.2,5.2-5.2c0.7,0,1.3,0.1,1.9,0.4c2.1-5.2,7.2-8.7,12.8-8.7c7.1,0,12.9,5.2,13.7,12.2h0.8
				c4.2,0,7.7,3.4,7.7,7.7c0,0.7-0.1,1.5-0.3,2.2C101,24.5,100.9,24.6,100.7,24.6z M52.8,24h47.7c0.2-0.6,0.2-1.2,0.2-1.8
				c0-3.9-3.1-7-7-7h-1.1c-0.2,0-0.3-0.1-0.3-0.3C91.7,8.1,86.1,3,79.3,3C73.8,3,68.9,6.4,67,11.6c0,0.1-0.1,0.2-0.2,0.2
				c-0.1,0-0.2,0-0.3,0c-0.6-0.3-1.3-0.5-2-0.5c-2.5,0-4.5,2-4.5,4.5c0,0.6,0.1,1.1,0.3,1.6c0,0.1,0,0.2,0,0.3
				c-0.1,0.1-0.2,0.1-0.3,0.1h-1.6c-3.1,0-5.7,2.5-5.7,5.7C52.8,23.7,52.8,23.8,52.8,24z"/>
		</g>
		<g>
			<path d="M52.5,24.6h-4.1c-0.2,0-0.3-0.1-0.3-0.3c0-0.2,0.1-0.3,0.3-0.3h4.1c0.2,0,0.3,0.1,0.3,0.3C52.8,24.5,52.7,24.6,52.5,24.6
				z"/>
		</g>
		<g>
			<path d="M44.6,24.6h-2.7c-0.2,0-0.3-0.1-0.3-0.3c0-0.2,0.1-0.3,0.3-0.3h2.7c0.2,0,0.3,0.1,0.3,0.3C45,24.5,44.8,24.6,44.6,24.6z"
				/>
		</g>
		<g>
			<path d="M101.9,12h-5.7c-0.4,0-0.7-0.3-0.7-0.7s0.3-0.7,0.7-0.7h5.7c0.4,0,0.7,0.3,0.7,0.7S102.3,12,101.9,12z"/>
		</g>
		<g>
			<path d="M106.8,24.6h-6.1c-0.2,0-0.3-0.1-0.3-0.3c0-0.2,0.1-0.3,0.3-0.3h6.1c0.2,0,0.3,0.1,0.3,0.3
				C107.1,24.5,107,24.6,106.8,24.6z"/>
		</g>
		<g>
			<circle class="st1" cx="67.3" cy="17.7" r="2.3"/>
			<path d="M67.3,20.3c-1.4,0-2.6-1.2-2.6-2.6s1.2-2.6,2.6-2.6c1.4,0,2.6,1.2,2.6,2.6S68.7,20.3,67.3,20.3z M67.3,15.7
				c-1.1,0-1.9,0.9-1.9,1.9c0,1.1,0.9,1.9,1.9,1.9c1.1,0,1.9-0.9,1.9-1.9C69.2,16.6,68.3,15.7,67.3,15.7z"/>
		</g>
		<g>
			<circle class="st2" cx="76.7" cy="17.7" r="2.3"/>
			<path d="M76.7,20.3c-1.4,0-2.6-1.2-2.6-2.6s1.2-2.6,2.6-2.6c1.4,0,2.6,1.2,2.6,2.6S78.2,20.3,76.7,20.3z M76.7,15.7
				c-1.1,0-1.9,0.9-1.9,1.9c0,1.1,0.9,1.9,1.9,1.9s1.9-0.9,1.9-1.9C78.7,16.6,77.8,15.7,76.7,15.7z"/>
		</g>
		<g>
			<circle class="st3" cx="86.2" cy="17.7" r="2.3"/>
			<path d="M86.2,20.3c-1.4,0-2.6-1.2-2.6-2.6s1.2-2.6,2.6-2.6c1.4,0,2.6,1.2,2.6,2.6S87.6,20.3,86.2,20.3z M86.2,15.7
				c-1.1,0-1.9,0.9-1.9,1.9c0,1.1,0.9,1.9,1.9,1.9c1.1,0,1.9-0.9,1.9-1.9C88.1,16.6,87.3,15.7,86.2,15.7z"/>
		</g>
	</g>
	<circle class="st0" cx="123.5" cy="5.7" r="2.4"/>
	<circle class="st1" cx="120.9" cy="61" r="2.4"/>
	<rect x="39.5" y="3.2" transform="matrix(0.7071 -0.7071 0.7071 0.7071 8.4775 30.873)" class="st2" width="4.1" height="4.1"/>
	<rect x="9.6" y="55.6" transform="matrix(0.8278 -0.561 0.561 0.8278 -30.6389 17.0581)" class="st1" width="5.7" height="5.7"/>
	<rect x="91.2" y="33" transform="matrix(0.7071 -0.7071 0.7071 0.7071 2.4445 76.458)" class="st3" width="4.6" height="4.6"/>
	<g>
		<g>
			<path class="st4" d="M120.2,17c-1.4,0-2.6,1.2-2.6,2.6v2.4c0,1.4,1.2,2.6,2.6,2.6h23c1.4,0,2.6-1.2,2.6-2.6v-2.4
				c0-1.4-1.2-2.6-2.6-2.6H120.2z"/>
		</g>
		<g>
			<path d="M143.2,25.2h-23c-1.7,0-3.1-1.4-3.1-3.1v-2.4c0-1.7,1.4-3.1,3.1-3.1h23c1.7,0,3.1,1.4,3.1,3.1v2.4
				C146.3,23.8,144.9,25.2,143.2,25.2z M120.2,17c-1.4,0-2.6,1.2-2.6,2.6v2.4c0,1.4,1.2,2.6,2.6,2.6h23c1.4,0,2.6-1.2,2.6-2.6v-2.4
				c0-1.4-1.2-2.6-2.6-2.6H120.2z"/>
		</g>
		<g>
			<circle class="st1" cx="120.9" cy="20.9" r="0.9"/>
			<path d="M120.9,22.1c-0.6,0-1.2-0.5-1.2-1.2c0-0.6,0.5-1.2,1.2-1.2c0.6,0,1.2,0.5,1.2,1.2C122.1,21.5,121.6,22.1,120.9,22.1z
				 M120.9,20.2c-0.4,0-0.7,0.3-0.7,0.7c0,0.4,0.3,0.7,0.7,0.7c0.4,0,0.7-0.3,0.7-0.7C121.6,20.5,121.3,20.2,120.9,20.2z"/>
		</g>
		<g>
			<circle class="st3" cx="124.2" cy="20.9" r="0.9"/>
			<path d="M124.2,22.1c-0.6,0-1.2-0.5-1.2-1.2c0-0.6,0.5-1.2,1.2-1.2c0.6,0,1.2,0.5,1.2,1.2C125.4,21.5,124.9,22.1,124.2,22.1z
				 M124.2,20.2c-0.4,0-0.7,0.3-0.7,0.7c0,0.4,0.3,0.7,0.7,0.7c0.4,0,0.7-0.3,0.7-0.7C124.9,20.5,124.6,20.2,124.2,20.2z"/>
		</g>
		<g>
			<path d="M143.4,21.1h-16.4c-0.1,0-0.2-0.1-0.2-0.2c0-0.1,0.1-0.2,0.2-0.2h16.4c0.1,0,0.2,0.1,0.2,0.2
				C143.7,21,143.5,21.1,143.4,21.1z"/>
		</g>
		<g>
			<path class="st4" d="M120.2,27.3c-1.4,0-2.6,1.2-2.6,2.6v2.4c0,1.4,1.2,2.6,2.6,2.6h23c1.4,0,2.6-1.2,2.6-2.6v-2.4
				c0-1.4-1.2-2.6-2.6-2.6H120.2z"/>
		</g>
		<g>
			<path d="M143.2,35.4h-23c-1.7,0-3.1-1.4-3.1-3.1v-2.4c0-1.7,1.4-3.1,3.1-3.1h23c1.7,0,3.1,1.4,3.1,3.1v2.4
				C146.3,34,144.9,35.4,143.2,35.4z M120.2,27.3c-1.4,0-2.6,1.2-2.6,2.6v2.4c0,1.4,1.2,2.6,2.6,2.6h23c1.4,0,2.6-1.2,2.6-2.6v-2.4
				c0-1.4-1.2-2.6-2.6-2.6H120.2z"/>
		</g>
		<g>
			<circle class="st1" cx="120.9" cy="31.1" r="0.9"/>
			<path d="M120.9,32.3c-0.6,0-1.2-0.5-1.2-1.2c0-0.6,0.5-1.2,1.2-1.2c0.6,0,1.2,0.5,1.2,1.2C122.1,31.7,121.6,32.3,120.9,32.3z
				 M120.9,30.4c-0.4,0-0.7,0.3-0.7,0.7c0,0.4,0.3,0.7,0.7,0.7c0.4,0,0.7-0.3,0.7-0.7C121.6,30.7,121.3,30.4,120.9,30.4z"/>
		</g>
		<g>
			<circle class="st3" cx="124.2" cy="31.1" r="0.9"/>
			<path d="M124.2,32.3c-0.6,0-1.2-0.5-1.2-1.2c0-0.6,0.5-1.2,1.2-1.2c0.6,0,1.2,0.5,1.2,1.2C125.4,31.7,124.9,32.3,124.2,32.3z
				 M124.2,30.4c-0.4,0-0.7,0.3-0.7,0.7c0,0.4,0.3,0.7,0.7,0.7c0.4,0,0.7-0.3,0.7-0.7C124.9,30.7,124.6,30.4,124.2,30.4z"/>
		</g>
		<g>
			<path d="M143.4,31.3h-16.4c-0.1,0-0.2-0.1-0.2-0.2c0-0.1,0.1-0.2,0.2-0.2h16.4c0.1,0,0.2,0.1,0.2,0.2
				C143.7,31.2,143.5,31.3,143.4,31.3z"/>
		</g>
		<g>
			<path class="st4" d="M120.2,37.5c-1.4,0-2.6,1.2-2.6,2.6v2.4c0,1.4,1.2,2.6,2.6,2.6h23c1.4,0,2.6-1.2,2.6-2.6v-2.4
				c0-1.4-1.2-2.6-2.6-2.6H120.2z"/>
		</g>
		<g>
			<path d="M143.2,45.6h-23c-1.7,0-3.1-1.4-3.1-3.1v-2.4c0-1.7,1.4-3.1,3.1-3.1h23c1.7,0,3.1,1.4,3.1,3.1v2.4
				C146.3,44.2,144.9,45.6,143.2,45.6z M120.2,37.5c-1.4,0-2.6,1.2-2.6,2.6v2.4c0,1.4,1.2,2.6,2.6,2.6h23c1.4,0,2.6-1.2,2.6-2.6
				v-2.4c0-1.4-1.2-2.6-2.6-2.6H120.2z"/>
		</g>
		<g>
			<circle class="st1" cx="120.9" cy="41.3" r="0.9"/>
			<path d="M120.9,42.5c-0.6,0-1.2-0.5-1.2-1.2c0-0.6,0.5-1.2,1.2-1.2c0.6,0,1.2,0.5,1.2,1.2C122.1,42,121.6,42.5,120.9,42.5z
				 M120.9,40.6c-0.4,0-0.7,0.3-0.7,0.7c0,0.4,0.3,0.7,0.7,0.7c0.4,0,0.7-0.3,0.7-0.7C121.6,40.9,121.3,40.6,120.9,40.6z"/>
		</g>
		<g>
			<circle class="st3" cx="124.2" cy="41.3" r="0.9"/>
			<path d="M124.2,42.5c-0.6,0-1.2-0.5-1.2-1.2c0-0.6,0.5-1.2,1.2-1.2c0.6,0,1.2,0.5,1.2,1.2C125.4,42,124.9,42.5,124.2,42.5z
				 M124.2,40.6c-0.4,0-0.7,0.3-0.7,0.7c0,0.4,0.3,0.7,0.7,0.7c0.4,0,0.7-0.3,0.7-0.7C124.9,40.9,124.6,40.6,124.2,40.6z"/>
		</g>
		<g>
			<path d="M143.4,41.5h-16.4c-0.1,0-0.2-0.1-0.2-0.2c0-0.1,0.1-0.2,0.2-0.2h16.4c0.1,0,0.2,0.1,0.2,0.2
				C143.7,41.4,143.5,41.5,143.4,41.5z"/>
		</g>
	</g>
	<g>
		<path d="M94.1,55.2c-0.3,0-0.5-0.2-0.5-0.5V51c0-0.3,0.2-0.5,0.5-0.5h37.1v-4.8c0-0.3,0.2-0.5,0.5-0.5c0.3,0,0.5,0.2,0.5,0.5V51
			c0,0.3-0.2,0.5-0.5,0.5H94.6v3.1C94.6,54.9,94.4,55.2,94.1,55.2z"/>
	</g>
	<g>
		<g>
			<path class="st4" d="M12.5,16.5c-1.3,0-2.4,1.1-2.4,2.4v2.2c0,1.3,1.1,2.4,2.4,2.4h20.9c1.3,0,2.4-1.1,2.4-2.4v-2.2
				c0-1.3-1.1-2.4-2.4-2.4H12.5z"/>
		</g>
		<g>
			<path d="M33.4,23.9H12.5c-1.6,0-2.8-1.3-2.8-2.8v-2.2c0-1.6,1.3-2.8,2.8-2.8h20.9c1.6,0,2.8,1.3,2.8,2.8v2.2
				C36.2,22.7,34.9,23.9,33.4,23.9z M12.5,16.5c-1.3,0-2.4,1.1-2.4,2.4v2.2c0,1.3,1.1,2.4,2.4,2.4h20.9c1.3,0,2.4-1.1,2.4-2.4v-2.2
				c0-1.3-1.1-2.4-2.4-2.4H12.5z"/>
		</g>
		<g>
			<circle class="st1" cx="13.1" cy="20" r="0.8"/>
			<path d="M13.1,21.1c-0.6,0-1.1-0.5-1.1-1.1c0-0.6,0.5-1.1,1.1-1.1c0.6,0,1.1,0.5,1.1,1.1C14.2,20.6,13.7,21.1,13.1,21.1z
				 M13.1,19.4c-0.3,0-0.6,0.3-0.6,0.6c0,0.3,0.3,0.6,0.6,0.6s0.6-0.3,0.6-0.6C13.7,19.7,13.4,19.4,13.1,19.4z"/>
		</g>
		<g>
			<circle class="st3" cx="16.1" cy="20" r="0.8"/>
			<path d="M16.1,21.1c-0.6,0-1.1-0.5-1.1-1.1c0-0.6,0.5-1.1,1.1-1.1c0.6,0,1.1,0.5,1.1,1.1C17.2,20.6,16.7,21.1,16.1,21.1z
				 M16.1,19.4c-0.3,0-0.6,0.3-0.6,0.6c0,0.3,0.3,0.6,0.6,0.6c0.3,0,0.6-0.3,0.6-0.6C16.7,19.7,16.4,19.4,16.1,19.4z"/>
		</g>
		<g>
			<path d="M33.6,20.2H18.7c-0.1,0-0.2-0.1-0.2-0.2c0-0.1,0.1-0.2,0.2-0.2h14.9c0.1,0,0.2,0.1,0.2,0.2
				C33.8,20.1,33.7,20.2,33.6,20.2z"/>
		</g>
		<g>
			<path class="st4" d="M12.5,25.8c-1.3,0-2.4,1.1-2.4,2.4v2.2c0,1.3,1.1,2.4,2.4,2.4h20.9c1.3,0,2.4-1.1,2.4-2.4v-2.2
				c0-1.3-1.1-2.4-2.4-2.4H12.5z"/>
		</g>
		<g>
			<path d="M33.4,33.2H12.5c-1.6,0-2.8-1.3-2.8-2.8v-2.2c0-1.6,1.3-2.8,2.8-2.8h20.9c1.6,0,2.8,1.3,2.8,2.8v2.2
				C36.2,31.9,34.9,33.2,33.4,33.2z M12.5,25.8c-1.3,0-2.4,1.1-2.4,2.4v2.2c0,1.3,1.1,2.4,2.4,2.4h20.9c1.3,0,2.4-1.1,2.4-2.4v-2.2
				c0-1.3-1.1-2.4-2.4-2.4H12.5z"/>
		</g>
		<g>
			<circle class="st1" cx="13.1" cy="29.3" r="0.8"/>
			<path d="M13.1,30.4c-0.6,0-1.1-0.5-1.1-1.1c0-0.6,0.5-1.1,1.1-1.1c0.6,0,1.1,0.5,1.1,1.1C14.2,29.9,13.7,30.4,13.1,30.4z
				 M13.1,28.7c-0.3,0-0.6,0.3-0.6,0.6c0,0.3,0.3,0.6,0.6,0.6s0.6-0.3,0.6-0.6C13.7,29,13.4,28.7,13.1,28.7z"/>
		</g>
		<g>
			<circle class="st3" cx="16.1" cy="29.3" r="0.8"/>
			<path d="M16.1,30.4c-0.6,0-1.1-0.5-1.1-1.1c0-0.6,0.5-1.1,1.1-1.1c0.6,0,1.1,0.5,1.1,1.1C17.2,29.9,16.7,30.4,16.1,30.4z
				 M16.1,28.7c-0.3,0-0.6,0.3-0.6,0.6c0,0.3,0.3,0.6,0.6,0.6c0.3,0,0.6-0.3,0.6-0.6C16.7,29,16.4,28.7,16.1,28.7z"/>
		</g>
		<g>
			<path d="M33.6,29.5H18.7c-0.1,0-0.2-0.1-0.2-0.2c0-0.1,0.1-0.2,0.2-0.2h14.9c0.1,0,0.2,0.1,0.2,0.2
				C33.8,29.4,33.7,29.5,33.6,29.5z"/>
		</g>
		<g>
			<path class="st4" d="M12.5,35.1c-1.3,0-2.4,1.1-2.4,2.4v2.2c0,1.3,1.1,2.4,2.4,2.4h20.9c1.3,0,2.4-1.1,2.4-2.4v-2.2
				c0-1.3-1.1-2.4-2.4-2.4H12.5z"/>
		</g>
		<g>
			<path d="M33.4,42.5H12.5c-1.6,0-2.8-1.3-2.8-2.8v-2.2c0-1.6,1.3-2.8,2.8-2.8h20.9c1.6,0,2.8,1.3,2.8,2.8v2.2
				C36.2,41.2,34.9,42.5,33.4,42.5z M12.5,35.1c-1.3,0-2.4,1.1-2.4,2.4v2.2c0,1.3,1.1,2.4,2.4,2.4h20.9c1.3,0,2.4-1.1,2.4-2.4v-2.2
				c0-1.3-1.1-2.4-2.4-2.4H12.5z"/>
		</g>
		<g>
			<circle class="st1" cx="13.1" cy="38.6" r="0.8"/>
			<path d="M13.1,39.7c-0.6,0-1.1-0.5-1.1-1.1c0-0.6,0.5-1.1,1.1-1.1c0.6,0,1.1,0.5,1.1,1.1C14.2,39.2,13.7,39.7,13.1,39.7z
				 M13.1,38c-0.3,0-0.6,0.3-0.6,0.6c0,0.3,0.3,0.6,0.6,0.6s0.6-0.3,0.6-0.6C13.7,38.3,13.4,38,13.1,38z"/>
		</g>
		<g>
			<circle class="st3" cx="16.1" cy="38.6" r="0.8"/>
			<path d="M16.1,39.7c-0.6,0-1.1-0.5-1.1-1.1c0-0.6,0.5-1.1,1.1-1.1c0.6,0,1.1,0.5,1.1,1.1C17.2,39.2,16.7,39.7,16.1,39.7z
				 M16.1,38c-0.3,0-0.6,0.3-0.6,0.6c0,0.3,0.3,0.6,0.6,0.6c0.3,0,0.6-0.3,0.6-0.6C16.7,38.3,16.4,38,16.1,38z"/>
		</g>
		<g>
			<path d="M33.6,38.8H18.7c-0.1,0-0.2-0.1-0.2-0.2c0-0.1,0.1-0.2,0.2-0.2h14.9c0.1,0,0.2,0.1,0.2,0.2
				C33.8,38.7,33.7,38.8,33.6,38.8z"/>
		</g>
	</g>
	<g>
		<path d="M61.1,54.7c0.3,0,0.5-0.2,0.5-0.5v-8.4c0-0.3-0.2-0.5-0.5-0.5H24v-2.4c0-0.3-0.2-0.5-0.5-0.5c-0.3,0-0.5,0.2-0.5,0.5v3
			c0,0.3,0.2,0.5,0.5,0.5h37.1v7.8C60.5,54.5,60.8,54.7,61.1,54.7z"/>
	</g>
	<g>
		<path d="M77.6,58.9c0.3,0,0.6-0.3,0.6-0.6V30.6c0-0.3-0.3-0.6-0.6-0.6H58.5v-5.3c0-0.3-0.3-0.6-0.6-0.6c-0.3,0-0.6,0.3-0.6,0.6
			v5.9c0,0.3,0.3,0.6,0.6,0.6H77v27.1C77,58.7,77.3,58.9,77.6,58.9z"/>
	</g>
	<g>
		<polygon points="77,80.1 77,50.9 101,54.9 101,84 		"/>
		<polygon class="st5" points="99.7,83.1 78.2,79.4 78.2,51.9 99.7,55.6 		"/>
		<path d="M54.7,81.2H36c-0.2,0-0.4-0.2-0.4-0.4c0-0.2,0.2-0.4,0.4-0.4h18.7c0.2,0,0.4,0.2,0.4,0.4C55,81,54.9,81.2,54.7,81.2z"/>
		<path d="M55.4,84.5h-5.8c-0.3,0-0.5-0.2-0.5-0.5s0.2-0.5,0.5-0.5h5.8c0.3,0,0.5,0.2,0.5,0.5S55.6,84.5,55.4,84.5z"/>
		<path d="M125.3,77.9h-22.1c-0.2,0-0.4-0.2-0.4-0.4c0-0.2,0.2-0.4,0.4-0.4h22.1c0.2,0,0.4,0.2,0.4,0.4
			C125.7,77.7,125.5,77.9,125.3,77.9z"/>
		<path d="M123.6,75.5h-3.4c-0.1,0-0.3-0.1-0.3-0.3s0.1-0.3,0.3-0.3h3.4c0.1,0,0.3,0.1,0.3,0.3S123.8,75.5,123.6,75.5z"/>
		<path d="M105.3,79.4h-3.4c-0.1,0-0.3-0.1-0.3-0.3c0-0.1,0.1-0.3,0.3-0.3h3.4c0.1,0,0.3,0.1,0.3,0.3
			C105.6,79.3,105.5,79.4,105.3,79.4z"/>
		<path d="M41.3,79.4h-3.4c-0.1,0-0.3-0.1-0.3-0.3c0-0.1,0.1-0.3,0.3-0.3h3.4c0.1,0,0.3,0.1,0.3,0.3C41.6,79.3,41.5,79.4,41.3,79.4z
			"/>
		<polygon points="77.6,59.3 101,55.3 101,84.5 78.2,88.3 		"/>
		<polygon class="st6" points="78.1,87.5 100.6,83.6 100.6,56 78.1,60 		"/>
		<polygon points="57,83 55,83 55,54.9 78,51 78,79 76,79 76,52.8 57,56.2 		"/>
		<polyline class="st5" points="77.5,79.4 77.5,51.8 55.9,55.6 55.9,83.1 		"/>
		<polygon points="55,84.5 55,55.3 78,59.3 78,88.4 		"/>
		<polygon class="st7" points="77.3,87.5 55.8,83.8 55.8,56.3 77.3,60 		"/>
		<path d="M77.2,84.5L73.9,84c-0.1,0-0.2-0.2-0.2-0.3c0-0.1,0.2-0.2,0.3-0.2l3.4,0.5c0.1,0,0.2,0.2,0.2,0.3S77.4,84.6,77.2,84.5z"/>
		<path d="M77.2,73.8l-3.4-0.5c-0.1,0-0.2-0.2-0.2-0.3c0-0.1,0.2-0.2,0.3-0.2l3.4,0.5c0.1,0,0.2,0.2,0.2,0.3
			C77.5,73.7,77.4,73.8,77.2,73.8z"/>
		<path d="M77.8,75.8l3.4-0.5c0.1,0,0.2-0.2,0.2-0.3s-0.2-0.2-0.3-0.2l-3.4,0.5c-0.1,0-0.2,0.2-0.2,0.3
			C77.6,75.8,77.7,75.9,77.8,75.8z"/>
		<path d="M77.8,76.8l1.7-0.3c0.1,0,0.2-0.2,0.2-0.3c0-0.1-0.2-0.2-0.3-0.2l-1.7,0.3c-0.1,0-0.2,0.2-0.2,0.3
			C77.6,76.8,77.7,76.9,77.8,76.8z"/>
		<path d="M77.8,61.8l1.7-0.3c0.1,0,0.2-0.2,0.2-0.3c0-0.1-0.2-0.2-0.3-0.2l-1.7,0.3c-0.1,0-0.2,0.2-0.2,0.3
			C77.6,61.7,77.7,61.8,77.8,61.8z"/>
		<path d="M77.2,83.3l-5.8-0.9c-0.1,0-0.2-0.2-0.2-0.3c0-0.1,0.2-0.2,0.3-0.2l5.8,0.9c0.1,0,0.2,0.2,0.2,0.3
			C77.5,83.2,77.4,83.3,77.2,83.3z"/>
		<path d="M77.2,62.8l-1.6-0.3c-0.1,0-0.2-0.2-0.2-0.3c0-0.1,0.2-0.2,0.3-0.2l1.6,0.3c0.1,0,0.2,0.2,0.2,0.3
			C77.5,62.7,77.4,62.8,77.2,62.8z"/>
		<path d="M77.2,63.6l-0.9-0.1c-0.1,0-0.2-0.2-0.2-0.3c0-0.1,0.2-0.2,0.3-0.2l0.9,0.1c0.1,0,0.2,0.2,0.2,0.3
			C77.5,63.6,77.4,63.7,77.2,63.6z"/>
	</g>
</g>
</svg>
