<?xml version="1.0" encoding="utf-8"?>
<!-- Generator: Adobe Illustrator 20.1.0, SVG Export Plug-In . SVG Version: 6.00 Build 0)  -->
<svg version="1.1" id="Capa_1" xmlns="http://www.w3.org/2000/svg" xmlns:xlink="http://www.w3.org/1999/xlink" x="0px" y="0px"
	 viewBox="0 0 155 90" style="enable-background:new 0 0 155 90;" xml:space="preserve">
<style type="text/css">
	.st0{fill:#93D7FF;}
	.st1{fill:#FFE985;}
	.st2{fill:#FF908D;}
	.st3{fill:#72D496;}
	.st4{fill:#E6E7E8;}
	.st5{fill:#FFFFFF;}
	.st6{stroke:#000000;stroke-miterlimit:10;}
	.st7{fill:#F6921E;}
	.st8{fill:#F1F1F1;}
</style>
<g>
	<circle class="st0" cx="119.7" cy="29.9" r="2.1"/>
	<circle class="st0" cx="15" cy="46.1" r="2.1"/>
	<rect x="132.2" y="50.1" class="st1" width="5.4" height="5.4"/>
	<rect x="56.2" y="5.3" transform="matrix(0.7071 -0.7071 0.7071 0.7071 11.774 43.5406)" class="st1" width="4.5" height="4.5"/>
	<rect x="93.7" y="19.4" transform="matrix(0.8278 -0.561 0.561 0.8278 4.3211 57.6367)" class="st2" width="4.8" height="4.8"/>
	<rect x="25.3" y="32.8" transform="matrix(0.7071 -0.7071 0.7071 0.7071 -16.5693 29.393)" class="st3" width="3.9" height="3.9"/>
	<path d="M129.9,73.2h-14.7c-0.3,0-0.6-0.3-0.6-0.6s0.3-0.6,0.6-0.6h14.7c0.3,0,0.6,0.3,0.6,0.6S130.2,73.2,129.9,73.2z"/>
	<path d="M132.1,70.1h-7.7c-0.3,0-0.6-0.3-0.6-0.6s0.3-0.6,0.6-0.6h7.7c0.3,0,0.6,0.3,0.6,0.6S132.4,70.1,132.1,70.1z"/>
	<path d="M44.1,63.8h-5.8c-0.2,0-0.4-0.2-0.4-0.4c0-0.2,0.2-0.4,0.4-0.4h5.8c0.2,0,0.4,0.2,0.4,0.4C44.6,63.6,44.4,63.8,44.1,63.8z"
		/>
	<path d="M141.9,63.5h-4c-0.2,0-0.3-0.1-0.3-0.3s0.1-0.3,0.3-0.3h4c0.2,0,0.3,0.1,0.3,0.3S142.1,63.5,141.9,63.5z"/>
	<path d="M117.9,66.9h-2.9c-0.1,0-0.2-0.1-0.2-0.2c0-0.1,0.1-0.2,0.2-0.2h2.9c0.1,0,0.2,0.1,0.2,0.2
		C118.2,66.8,118.1,66.9,117.9,66.9z"/>
	<path d="M39.7,66.9h-5.8c-0.2,0-0.4-0.2-0.4-0.4s0.2-0.4,0.4-0.4h5.8c0.2,0,0.4,0.2,0.4,0.4S39.9,66.9,39.7,66.9z"/>
	<path d="M44.1,70.5H18.3c-0.2,0-0.4-0.2-0.4-0.4c0-0.2,0.2-0.4,0.4-0.4h25.8c0.2,0,0.4,0.2,0.4,0.4C44.5,70.3,44.3,70.5,44.1,70.5z
		"/>
	<path d="M16.9,64.5h-4c-0.2,0-0.3-0.1-0.3-0.3c0-0.2,0.1-0.3,0.3-0.3h4c0.2,0,0.3,0.1,0.3,0.3C17.2,64.4,17.1,64.5,16.9,64.5z"/>
	<g>
		<g>
			<g>
				<path class="st4" d="M109.7,41.3v-0.2c0-2.8-2.3-5.1-5.1-5.1H54.3c-2.8,0-5.1,2.3-5.1,5.1v0.2H109.7z"/>
				<path d="M54.3,35.6h50.3c3.1,0,5.6,2.5,5.6,5.6v0.2c0,0.3-0.2,0.5-0.5,0.5H49.2c-0.3,0-0.5-0.2-0.5-0.5v-0.2
					C48.7,38.1,51.2,35.6,54.3,35.6z M104.6,78.8H54.3c-3.1,0-5.6-2.5-5.6-5.6V70c0-0.3,0.2-0.5,0.5-0.5h60.5c0.3,0,0.5,0.2,0.5,0.5
					v3.2C110.1,76.3,107.6,78.8,104.6,78.8z M109.7,41.3v-0.2c0-2.8-2.3-5.1-5.1-5.1H54.3c-2.8,0-5.1,2.3-5.1,5.1v0.2H109.7z
					 M49.7,41.2v32c0,2.5,2.1,4.6,4.6,4.6h50.3c2.5,0,4.6-2.1,4.6-4.6v-32H49.7z"/>
				<path d="M80.2,39.2h-1.5c-0.3,0-0.5-0.2-0.5-0.5c0-0.3,0.2-0.5,0.5-0.5h1.5c0.3,0,0.5,0.2,0.5,0.5C80.7,39,80.4,39.2,80.2,39.2z
					"/>
				<path d="M48.7,70V41.2c0-3.1,2.5-5.6,5.6-5.6h50.3c3.1,0,5.6,2.5,5.6,5.6V70c0,0.3-0.2,0.5-0.5,0.5 M109.2,41.2
					c0-2.5-2.1-4.6-4.6-4.6H54.3c-2.5,0-4.6,2.1-4.6,4.6"/>
				<path class="st5" d="M49.7,41.2v32c0,2.5,2.1,4.6,4.6,4.6h50.3c2.5,0,4.6-2.1,4.6-4.6v-32H49.7z"/>
			</g>
			<g>
				<path class="st6" d="M114.6,84.7H44.3c-3.1,0-5.6-2.5-5.6-5.6V79c0-0.3,0.2-0.5,0.5-0.5h80.5c0.3,0,0.5,0.2,0.5,0.5v0.2
					C120.1,82.3,117.6,84.7,114.6,84.7z"/>
				<path class="st6" d="M39.2,79v0.2c0,2.8,2.3,5.1,5.1,5.1h70.3c2.8,0,5.1-2.3,5.1-5.1V79H39.2z"/>
				<path class="st4" d="M39.2,79v0.2c0,2.8,2.3,5.1,5.1,5.1h70.3c2.8,0,5.1-2.3,5.1-5.1V79H39.2z"/>
			</g>
		</g>
		<path d="M83.8,78.9c0,0.7-0.5,1.2-1.2,1.2h-6.3c-0.7,0-1.2-0.5-1.2-1.2H83.8z"/>
	</g>
	<g>
		<path class="st3" d="M85.8,57.5c0-3-2.5-5.5-5.5-5.5v11C83.3,63,85.8,60.5,85.8,57.5z"/>
		<path class="st2" d="M80.3,52L80.3,52c-3,0-5.5,2.5-5.5,5.5c0,0.8,0.2,1.6,0.5,2.3l5-2.3V52z"/>
		<path class="st1" d="M80.3,63L80.3,63v-5.5l-5,2.3C76.1,61.7,78.1,63,80.3,63z"/>
	</g>
	<g>
		<path class="st7" d="M68.4,60.4L68.4,60.4l-2.1-1.2l0,0c-0.5,0.9-1.3,1.5-2.3,1.8l0.6,2.3C66.2,62.9,67.6,61.9,68.4,60.4z"/>
		<g>
			<path class="st3" d="M61.3,60.7c-0.9-0.5-1.5-1.3-1.8-2.3l-2.3,0.6c0.4,1.5,1.4,2.9,2.9,3.7c1.4,0.8,3,0.9,4.5,0.5L64.1,61
				C63.2,61.3,62.2,61.2,61.3,60.7z"/>
			<path class="st0" d="M64.9,54.3c1.8,1,2.4,3.2,1.4,5l2.1,1.2c1.6-2.9,0.6-6.6-2.4-8.2c-0.1,0-0.2-0.1-0.3-0.1l-1.1,2.1
				C64.8,54.2,64.8,54.3,64.9,54.3z"/>
			<path class="st1" d="M59.9,55.7c0.6-1.2,1.8-1.8,3-1.9l-0.1-2.4c-2,0.1-4,1.2-5,3.1c-0.8,1.4-0.9,3.1-0.5,4.5l2.3-0.6
				C59.3,57.6,59.4,56.6,59.9,55.7z"/>
			<path class="st8" d="M64.7,54.2l1.1-2.1c-0.9-0.5-2-0.7-3-0.6l0.1,2.4C63.6,53.8,64.2,53.9,64.7,54.2z"/>
			<g>
				<path class="st7" d="M65.7,58.9L65.7,58.9l-1-0.6l0,0c-0.2,0.4-0.6,0.7-1.1,0.9l0.3,1.1C64.6,60.2,65.3,59.7,65.7,58.9z"/>
				<path class="st3" d="M62.3,59.1c-0.4-0.2-0.7-0.6-0.9-1.1l-1.1,0.3c0.2,0.7,0.7,1.4,1.4,1.8c0.7,0.4,1.5,0.5,2.2,0.3l-0.3-1.1
					C63.2,59.4,62.7,59.3,62.3,59.1z"/>
				<path class="st0" d="M64,55.9c0.9,0.5,1.2,1.6,0.7,2.4l1,0.6c0.8-1.4,0.3-3.2-1.2-4c0,0-0.1,0-0.1-0.1L64,55.9
					C63.9,55.9,64,55.9,64,55.9z"/>
				<path class="st1" d="M61.6,56.6c0.3-0.6,0.9-0.9,1.5-0.9L63,54.5c-1,0-1.9,0.6-2.4,1.5c-0.4,0.7-0.5,1.5-0.3,2.2l1.1-0.3
					C61.3,57.5,61.3,57.1,61.6,56.6z"/>
				<path class="st8" d="M63.9,55.9l0.5-1c-0.5-0.2-1-0.3-1.5-0.3l0.1,1.2C63.3,55.7,63.6,55.7,63.9,55.9z"/>
			</g>
		</g>
	</g>
	<g>
		<path class="st3" d="M101.8,57.4c0-3-2.5-5.5-5.5-5.5v5.5H101.8z"/>
		<path class="st2" d="M96.3,51.9L96.3,51.9c-3,0-5.5,2.5-5.5,5.5c0,1.1,0.3,2.2,0.9,3.1l4.6-3.1V51.9z"/>
		<path class="st0" d="M96.3,62.9c3,0,5.5-2.5,5.5-5.5l0,0h-5.5l-4.6,3.1C92.7,62,94.4,62.9,96.3,62.9z"/>
	</g>
</g>
</svg>
