<?xml version="1.0" encoding="utf-8"?>
<!-- Generator: Adobe Illustrator 20.1.0, SVG Export Plug-In . SVG Version: 6.00 Build 0)  -->
<svg version="1.1" id="Capa_1" xmlns="http://www.w3.org/2000/svg" xmlns:xlink="http://www.w3.org/1999/xlink" x="0px" y="0px"
	 viewBox="0 0 155 90" style="enable-background:new 0 0 155 90;" xml:space="preserve">
<style type="text/css">
	.st0{fill:#FFE985;}
	.st1{fill:#72D496;}
	.st2{fill:#FF908D;}
	.st3{fill:#93D7FF;}
	.st4{fill:#998675;}
	.st5{fill:#B7A797;}
	.st6{fill:#C7B299;}
	.st7{fill:none;stroke:#000000;stroke-width:0.5;stroke-miterlimit:10;}
	.st8{fill:none;stroke:#000000;stroke-width:0.5;stroke-miterlimit:10;stroke-dasharray:2.0423,2.0423;}
	.st9{fill:#E6E7E8;}
	.st10{fill:#CCCCCC;}
	.st11{fill:#999999;}
	.st12{fill:none;stroke:#000000;stroke-width:0.5;stroke-miterlimit:10;stroke-dasharray:2;}
</style>
<rect x="106.6" y="63.7" class="st0" width="5.4" height="5.4"/>
<rect x="65.5" y="29.6" class="st0" width="2.7" height="2.7"/>
<rect x="26.7" y="62.2" class="st1" width="2.7" height="2.7"/>
<rect x="102.1" y="1.9" transform="matrix(0.8278 -0.561 0.561 0.8278 15.9378 58.66)" class="st2" width="2.8" height="2.8"/>
<circle class="st3" cx="40.4" cy="71.6" r="2.4"/>
<circle class="st2" cx="20.7" cy="21.3" r="2"/>
<circle class="st2" cx="118.9" cy="73.8" r="2"/>
<rect x="44.2" y="7.7" transform="matrix(0.7071 -0.7071 0.7071 0.7071 6.9282 34.8928)" class="st1" width="2.7" height="2.7"/>
<rect x="134.1" y="17.5" transform="matrix(0.8675 -0.4975 0.4975 0.8675 8.593 69.8336)" class="st1" width="2.6" height="2.6"/>
<g>
	<polygon points="72,81.1 72,51.9 96,55.9 96,85 	"/>
	<polygon class="st4" points="94.7,84.1 73.2,80.4 73.2,52.9 94.7,56.6 	"/>
	<path d="M49.7,82.2H31c-0.2,0-0.4-0.2-0.4-0.4c0-0.2,0.2-0.4,0.4-0.4h18.7c0.2,0,0.4,0.2,0.4,0.4C50,82,49.9,82.2,49.7,82.2z"/>
	<path d="M50.4,85.5h-5.8c-0.3,0-0.5-0.2-0.5-0.5s0.2-0.5,0.5-0.5h5.8c0.3,0,0.5,0.2,0.5,0.5S50.6,85.5,50.4,85.5z"/>
	<path d="M120.3,83.3H98.2c-0.2,0-0.4-0.2-0.4-0.4c0-0.2,0.2-0.4,0.4-0.4h22.1c0.2,0,0.4,0.2,0.4,0.4
		C120.7,83.1,120.5,83.3,120.3,83.3z"/>
	<path d="M118.6,80.9h-3.4c-0.1,0-0.3-0.1-0.3-0.3s0.1-0.3,0.3-0.3h3.4c0.1,0,0.3,0.1,0.3,0.3S118.8,80.9,118.6,80.9z"/>
	<path d="M102.6,15.4h-3.4c-0.1,0-0.3-0.1-0.3-0.3s0.1-0.3,0.3-0.3h3.4c0.1,0,0.3,0.1,0.3,0.3S102.8,15.4,102.6,15.4z"/>
	<path d="M116.9,35.6h-3.4c-0.1,0-0.3-0.1-0.3-0.3c0-0.1,0.1-0.3,0.3-0.3h3.4c0.1,0,0.3,0.1,0.3,0.3
		C117.2,35.5,117.1,35.6,116.9,35.6z"/>
	<path d="M100.3,80.4h-3.4c-0.1,0-0.3-0.1-0.3-0.3c0-0.1,0.1-0.3,0.3-0.3h3.4c0.1,0,0.3,0.1,0.3,0.3
		C100.6,80.3,100.5,80.4,100.3,80.4z"/>
	<path d="M115,37.4h-3.4c-0.1,0-0.3-0.1-0.3-0.3c0-0.1,0.1-0.3,0.3-0.3h3.4c0.1,0,0.3,0.1,0.3,0.3C115.2,37.3,115.1,37.4,115,37.4z"
		/>
	<path d="M36.3,80.4h-3.4c-0.1,0-0.3-0.1-0.3-0.3c0-0.1,0.1-0.3,0.3-0.3h3.4c0.1,0,0.3,0.1,0.3,0.3C36.6,80.3,36.5,80.4,36.3,80.4z"
		/>
	<path d="M111.3,35.9h-3.4c-0.1,0-0.3-0.1-0.3-0.3c0-0.1,0.1-0.3,0.3-0.3h3.4c0.1,0,0.3,0.1,0.3,0.3
		C111.6,35.7,111.4,35.9,111.3,35.9z"/>
	<path d="M100.6,17.1h-3.4c-0.1,0-0.3-0.1-0.3-0.3s0.1-0.3,0.3-0.3h3.4c0.1,0,0.3,0.1,0.3,0.3S100.7,17.1,100.6,17.1z"/>
	<path d="M33,31h-3.4c-0.1,0-0.3-0.1-0.3-0.3s0.1-0.3,0.3-0.3H33c0.1,0,0.3,0.1,0.3,0.3S33.2,31,33,31z"/>
	<path d="M56.4,18.6h-3.4c-0.1,0-0.3-0.1-0.3-0.3s0.1-0.3,0.3-0.3h3.4c0.1,0,0.3,0.1,0.3,0.3S56.5,18.6,56.4,18.6z"/>
	<path d="M106.7,16.4h-3.4c-0.1,0-0.3-0.1-0.3-0.3s0.1-0.3,0.3-0.3h3.4c0.1,0,0.3,0.1,0.3,0.3S106.9,16.4,106.7,16.4z"/>
	<path d="M32.4,33H19c-0.1,0-0.3-0.1-0.3-0.3c0-0.1,0.1-0.3,0.3-0.3h13.4c0.1,0,0.3,0.1,0.3,0.3C32.6,32.9,32.5,33,32.4,33z"/>
	<polygon points="72.6,60.3 96,56.3 96,85.5 73.2,89.3 	"/>
	<polygon class="st5" points="73.1,88.5 95.6,84.6 95.6,57 73.1,61 	"/>
	<polygon points="52,84 50,84 50,55.9 73,52 73,80 71,80 71,53.8 52,57.2 	"/>
	<polyline class="st4" points="72.5,80.4 72.5,52.8 50.9,56.6 50.9,84.1 	"/>
	<polygon points="50,85.5 50,56.3 73,60.3 73,89.4 	"/>
	<polygon class="st6" points="72.3,88.5 50.8,84.8 50.8,57.3 72.3,61 	"/>
	<path d="M72.2,85.5L68.9,85c-0.1,0-0.2-0.2-0.2-0.3c0-0.1,0.2-0.2,0.3-0.2l3.4,0.5c0.1,0,0.2,0.2,0.2,0.3S72.4,85.6,72.2,85.5z"/>
	<path d="M72.2,74.8l-3.4-0.5c-0.1,0-0.2-0.2-0.2-0.3c0-0.1,0.2-0.2,0.3-0.2l3.4,0.5c0.1,0,0.2,0.2,0.2,0.3
		C72.5,74.7,72.4,74.8,72.2,74.8z"/>
	<path d="M72.8,76.8l3.4-0.5c0.1,0,0.2-0.2,0.2-0.3s-0.2-0.2-0.3-0.2l-3.4,0.5c-0.1,0-0.2,0.2-0.2,0.3
		C72.6,76.8,72.7,76.9,72.8,76.8z"/>
	<path d="M72.8,77.8l1.7-0.3c0.1,0,0.2-0.2,0.2-0.3c0-0.1-0.2-0.2-0.3-0.2l-1.7,0.3c-0.1,0-0.2,0.2-0.2,0.3
		C72.6,77.8,72.7,77.9,72.8,77.8z"/>
	<path d="M72.8,62.8l1.7-0.3c0.1,0,0.2-0.2,0.2-0.3c0-0.1-0.2-0.2-0.3-0.2l-1.7,0.3c-0.1,0-0.2,0.2-0.2,0.3
		C72.6,62.7,72.7,62.8,72.8,62.8z"/>
	<path d="M72.2,84.3l-5.8-0.9c-0.1,0-0.2-0.2-0.2-0.3c0-0.1,0.2-0.2,0.3-0.2l5.8,0.9c0.1,0,0.2,0.2,0.2,0.3
		C72.5,84.2,72.4,84.3,72.2,84.3z"/>
	<path d="M72.2,63.8l-1.6-0.3c-0.1,0-0.2-0.2-0.2-0.3c0-0.1,0.2-0.2,0.3-0.2l1.6,0.3c0.1,0,0.2,0.2,0.2,0.3
		C72.5,63.7,72.4,63.8,72.2,63.8z"/>
	<path d="M72.2,64.6l-0.9-0.1c-0.1,0-0.2-0.2-0.2-0.3c0-0.1,0.2-0.2,0.3-0.2l0.9,0.1c0.1,0,0.2,0.2,0.2,0.3
		C72.5,64.6,72.4,64.7,72.2,64.6z"/>
</g>
<g>
	<g>
		<path class="st7" d="M76.4,56.5c0,0,0.2-0.3,0.6-0.8"/>
		<path class="st8" d="M78.1,54c2.6-4.1,7-12.1,3.8-14.9c-6.3-3.6-7.1,3.3-2.7,5.3c3.6,2.5,8.8-6.7,7-11"/>
		<path class="st7" d="M85.7,32.5c-0.2-0.3-0.5-0.5-0.8-0.7"/>
	</g>
</g>
<g>
	<g>
		<path class="st3" d="M87.3,23.9c0,0-1.7-5,1.1-6.9C89.4,16.2,94.3,16.9,87.3,23.9z"/>
		<path d="M87.2,24.1l0-0.1c0-0.1-1.7-5.1,1.2-7c0.4-0.4,1.7-0.5,2.3,0.2c0.6,0.7,1,2.4-3.3,6.8L87.2,24.1z M89.4,16.8
			c-0.4,0-0.7,0.1-0.9,0.3c-2.5,1.7-1.4,5.9-1.2,6.7c1.5-1.5,4.6-5,3.2-6.5C90.3,17,89.8,16.8,89.4,16.8z"/>
	</g>
	<g>
		<ellipse transform="matrix(0.3829 -0.9238 0.9238 0.3829 35.2654 96.6949)" class="st9" cx="90" cy="22" rx="2" ry="2.8"/>
		<path d="M90.6,24.2c-0.5,0-0.9-0.1-1.4-0.3c-1.5-0.6-2.3-2-1.8-3c0.2-0.5,0.7-0.9,1.4-1c0.6-0.2,1.4-0.1,2.1,0.2
			c0.7,0.3,1.3,0.8,1.6,1.3c0.4,0.6,0.4,1.2,0.2,1.7h0c-0.2,0.5-0.7,0.9-1.4,1C91.1,24.1,90.8,24.2,90.6,24.2z M89.4,19.9
			c-0.2,0-0.4,0-0.6,0.1c-0.6,0.1-1,0.5-1.2,0.9c-0.4,1,0.4,2.2,1.7,2.8c0.7,0.3,1.4,0.3,2,0.2c0.6-0.1,1-0.5,1.2-0.9h0
			c0.2-0.5,0.1-1-0.2-1.5c-0.3-0.5-0.9-1-1.5-1.3C90.3,20,89.8,19.9,89.4,19.9z"/>
	</g>
	<g>
		<ellipse transform="matrix(0.3829 -0.9238 0.9238 0.3829 31.393 95.9384)" class="st10" cx="87.5" cy="24.5" rx="1.3" ry="1.8"/>
		<path d="M87.9,25.9c-0.3,0-0.6-0.1-0.9-0.2c-0.5-0.2-0.8-0.5-1.1-0.9c-0.2-0.4-0.3-0.8-0.1-1.1c0.3-0.7,1.3-0.9,2.3-0.6
			c0.5,0.2,0.8,0.5,1.1,0.9c0.2,0.4,0.3,0.8,0.1,1.1h0c-0.1,0.3-0.5,0.6-0.9,0.7C88.2,25.9,88.1,25.9,87.9,25.9z M87.1,23.2
			c-0.5,0-1,0.2-1.2,0.6c-0.1,0.3-0.1,0.6,0.1,1c0.2,0.3,0.6,0.6,1,0.8c0.4,0.2,0.9,0.2,1.3,0.1c0.4-0.1,0.7-0.3,0.8-0.6h0
			c0.1-0.3,0.1-0.6-0.1-1c-0.2-0.3-0.6-0.6-1-0.8C87.7,23.2,87.4,23.2,87.1,23.2z"/>
	</g>
	<g>
		<path class="st11" d="M88.3,28c-0.4,0.9-4.4,3.9-5.9,3.2c-1.5-0.6,0-4.7,0.3-5.6s1.9-1,3.4-0.4C87.7,25.9,88.6,27.1,88.3,28z"/>
		<path d="M82.9,31.4c-0.2,0-0.4,0-0.5-0.1c-1.8-0.7,0.2-5.5,0.3-5.7c0.4-0.9,2-1.1,3.6-0.4c1.6,0.7,2.6,1.9,2.2,2.8
			c-0.2,0.5-1.3,1.4-2.5,2.2C85.1,30.7,83.8,31.4,82.9,31.4z M84.3,25c-0.8,0-1.4,0.3-1.6,0.7c-0.7,1.7-1.6,4.9-0.4,5.4
			c0.6,0.3,1.8-0.1,3.3-1c1.3-0.8,2.3-1.8,2.5-2.1c0.3-0.8-0.6-2-2.1-2.6C85.5,25.1,84.9,25,84.3,25z"/>
	</g>
	<g>
		<ellipse transform="matrix(0.3829 -0.9238 0.9238 0.3829 35.8603 94.7161)" class="st2" cx="88.8" cy="20.5" rx="1.1" ry="1.1"/>
		<path d="M88.8,21.7c-0.2,0-0.3,0-0.5-0.1c-0.6-0.3-0.9-1-0.7-1.6c0.1-0.3,0.4-0.5,0.7-0.7c0.3-0.1,0.6-0.1,0.9,0
			c0.6,0.3,0.9,1,0.7,1.6h0C89.8,21.5,89.3,21.7,88.8,21.7z M88.8,19.5c-0.1,0-0.3,0-0.4,0.1c-0.3,0.1-0.5,0.3-0.6,0.6
			c-0.2,0.5,0,1.1,0.6,1.4c0.5,0.2,1.1,0,1.4-0.6l0,0c0.2-0.5,0-1.1-0.6-1.4C89.1,19.5,89,19.5,88.8,19.5z"/>
	</g>
	<g>
		<ellipse transform="matrix(0.3829 -0.9238 0.9238 0.3829 36.5553 98.2153)" class="st2" cx="91.8" cy="21.7" rx="1.1" ry="1.1"/>
		<path d="M91.8,23c-0.2,0-0.3,0-0.5-0.1c-0.6-0.3-0.9-1-0.7-1.6c0.3-0.6,1-0.9,1.6-0.7c0.3,0.1,0.5,0.4,0.7,0.7
			c0.1,0.3,0.1,0.6,0,0.9l0,0C92.7,22.7,92.3,23,91.8,23z M91.8,20.7c-0.4,0-0.8,0.2-1,0.6c-0.2,0.5,0,1.1,0.6,1.4
			c0.5,0.2,1.1,0,1.4-0.6l0,0c0.1-0.3,0.1-0.5,0-0.8c-0.1-0.3-0.3-0.5-0.6-0.6C92.1,20.7,91.9,20.7,91.8,20.7z"/>
	</g>
	<g>
		<path class="st3" d="M86.9,24c0,0-1-6.7-3.5-6.1C82.7,18,79.7,21.7,86.9,24z"/>
		<path d="M87,24.1l-0.1,0c-1.9-0.6-5-2-4.8-4.3c0.1-1.1,0.9-1.9,1.3-1.9c0.4-0.1,0.7,0,1.1,0.2c1.7,1.1,2.4,5.7,2.5,5.9L87,24.1z
			 M83.7,18c-0.1,0-0.2,0-0.3,0c-0.3,0-1.1,0.8-1.2,1.8c-0.2,2.1,2.7,3.4,4.5,4.1c-0.1-0.8-0.9-4.7-2.4-5.7C84.2,18.1,84,18,83.7,18
			z"/>
	</g>
	<path d="M90.2,23.5c-0.5,0-0.9-0.1-1.2-0.4c-0.3-0.3-0.3-0.7-0.3-0.7l0.2,0c0,0,0,0.3,0.2,0.6c0.2,0.3,0.7,0.4,1.3,0.3l0,0.2
		C90.3,23.5,90.2,23.5,90.2,23.5z"/>
	<path d="M90.9,29.7c-0.4-1.9,0-3.5,0.2-3.9L88.6,25l0.1-0.2l2.6,0.9l0,0.1c0,0-0.7,1.7-0.2,3.9L90.9,29.7z"/>
	<polygon points="89.3,28.3 89.1,28.3 89.4,26.5 88,25.5 88.1,25.3 89.6,26.4 	"/>
	<polygon points="87.4,31.3 86.2,27.8 86.8,26.6 87,26.7 86.4,27.8 87.6,31.3 	"/>
	<polygon points="85,32.1 84.3,28.4 85.1,27.3 85.2,27.4 84.5,28.5 85.1,32.1 	"/>
</g>
<g>
	<g>
		<path class="st3" d="M126.5,33.8c0,0-4.2,0.7-5.3-1.9C120.6,31.1,121.8,27.2,126.5,33.8z"/>
		<path d="M126.6,33.8l-0.1,0c0,0-4.3,0.6-5.4-1.9c-0.2-0.4-0.1-1.4,0.5-1.8C122.2,29.7,123.6,29.7,126.6,33.8L126.6,33.8z
			 M121.1,31.1c-0.1,0.3,0,0.6,0.1,0.7c1,2.2,4.5,1.9,5.2,1.9c-1-1.4-3.4-4.4-4.7-3.5C121.3,30.4,121.2,30.8,121.1,31.1z"/>
	</g>
	<g>
		
			<ellipse transform="matrix(4.671497e-02 -0.9989 0.9989 4.671497e-02 90.0237 161.9819)" class="st9" cx="129.9" cy="33.8" rx="1.6" ry="2.2"/>
		<path d="M130.9,35.3c-0.4,0.1-0.7,0.2-1.1,0.2c-1.3-0.1-2.3-0.9-2.2-1.8c0-0.5,0.3-0.9,0.7-1.2c0.4-0.3,1-0.4,1.6-0.4
			c0.6,0,1.2,0.2,1.6,0.6c0.4,0.3,0.6,0.8,0.6,1.2l0,0c0,0.5-0.3,0.9-0.7,1.2C131.3,35.2,131.1,35.3,130.9,35.3z M128.9,32.4
			c-0.2,0.1-0.3,0.1-0.5,0.2c-0.4,0.3-0.7,0.6-0.7,1.1c0,0.9,0.9,1.6,2.1,1.6c0.6,0,1.1-0.1,1.6-0.4c0.4-0.3,0.7-0.6,0.7-1.1l0,0
			c0-0.4-0.2-0.8-0.6-1.1c-0.4-0.3-0.9-0.5-1.5-0.5C129.6,32.3,129.2,32.3,128.9,32.4z"/>
	</g>
	<g>
		<ellipse transform="matrix(0.8238 -0.5669 0.5669 0.8238 2.6394 78.0363)" class="st10" cx="126.8" cy="34.8" rx="1" ry="1.4"/>
		<path d="M126.5,35.9c-0.2-0.1-0.4-0.3-0.5-0.5c-0.2-0.3-0.3-0.7-0.3-1.1c0-0.4,0.1-0.7,0.4-0.8c0.5-0.3,1.3-0.1,1.8,0.6
			c0.2,0.3,0.3,0.7,0.3,1.1c0,0.4-0.1,0.7-0.4,0.8l0,0c-0.2,0.2-0.6,0.2-0.9,0.1C126.7,36.1,126.6,36,126.5,35.9z M127.1,33.7
			c-0.4-0.2-0.8-0.3-1.1-0.1c-0.2,0.1-0.3,0.4-0.3,0.7c0,0.3,0.1,0.7,0.3,1c0.2,0.3,0.5,0.5,0.8,0.6c0.3,0.1,0.6,0.1,0.8-0.1l0,0
			c0.2-0.1,0.3-0.4,0.3-0.7c0-0.3-0.1-0.7-0.3-1C127.5,34,127.3,33.8,127.1,33.7z"/>
	</g>
	<g>
		<path class="st11" d="M125.8,37.5c-0.6,0.4-4.7,0.7-5.4-0.4s2-3.2,2.7-3.6c0.6-0.4,1.7,0.1,2.5,1.2S126.4,37.1,125.8,37.5z"/>
		<path d="M120.7,37.4c-0.1-0.1-0.2-0.2-0.3-0.3c-0.9-1.3,2.5-3.6,2.7-3.7c0.7-0.4,1.8,0.1,2.6,1.3c0.8,1.1,0.9,2.4,0.2,2.9
			c-0.3,0.2-1.5,0.4-2.7,0.4C122.5,37.9,121.3,37.9,120.7,37.4z M124.5,33.7c-0.5-0.3-1-0.4-1.4-0.2c-1.2,0.8-3.3,2.6-2.6,3.5
			c0.3,0.5,1.3,0.7,2.7,0.7c1.2,0,2.3-0.2,2.6-0.4c0.6-0.4,0.5-1.6-0.3-2.7C125.2,34.3,124.8,33.9,124.5,33.7z"/>
	</g>
	<g>
		
			<ellipse transform="matrix(4.671497e-02 -0.9989 0.9989 4.671497e-02 90.2513 160.2384)" class="st2" cx="129.1" cy="32.8" rx="0.9" ry="0.9"/>
		<path d="M129.4,33.8c-0.1,0-0.2,0.1-0.4,0.1c-0.5,0-1-0.5-0.9-1c0-0.3,0.1-0.5,0.3-0.7c0.2-0.2,0.4-0.3,0.7-0.3c0.5,0,1,0.5,0.9,1
			l0,0C130,33.3,129.8,33.6,129.4,33.8z M128.8,32c-0.1,0-0.2,0.1-0.3,0.2c-0.2,0.2-0.3,0.4-0.3,0.6c0,0.5,0.3,0.9,0.8,0.9
			c0.5,0,0.9-0.3,0.9-0.8l0,0c0-0.5-0.3-0.9-0.8-0.9C129,32,128.9,32,128.8,32z"/>
	</g>
	<g>
		
			<ellipse transform="matrix(4.671497e-02 -0.9989 0.9989 4.671497e-02 92.1462 162.5068)" class="st2" cx="131.2" cy="33" rx="0.9" ry="0.9"/>
		<path d="M131.5,33.9c-0.1,0-0.2,0.1-0.4,0.1c-0.5,0-1-0.5-0.9-1c0-0.5,0.5-1,1-0.9c0.3,0,0.5,0.1,0.7,0.3c0.2,0.2,0.3,0.4,0.3,0.7
			l0,0C132.2,33.4,131.9,33.8,131.5,33.9z M130.9,32.2c-0.3,0.1-0.5,0.4-0.6,0.8c0,0.5,0.3,0.9,0.8,0.9c0.5,0,0.9-0.3,0.9-0.8l0,0
			c0-0.2-0.1-0.4-0.2-0.6c-0.2-0.2-0.4-0.3-0.6-0.3C131.1,32.1,131,32.1,130.9,32.2z"/>
	</g>
	<g>
		<path class="st3" d="M126.7,34.2c0,0,2.2-5,0.3-5.6C126.4,28.3,122.8,29.4,126.7,34.2z"/>
		<path d="M126.7,34.3L126.7,34.3c-1.1-1.3-2.6-3.6-1.4-5.1c0.5-0.7,1.5-0.9,1.8-0.7c0.3,0.1,0.5,0.3,0.7,0.6c0.7,1.5-0.9,5-0.9,5.1
			L126.7,34.3z M127.1,28.7c-0.1,0-0.1-0.1-0.2-0.1c-0.2-0.1-1.1,0-1.6,0.7c-1.1,1.4,0.3,3.5,1.3,4.7c0.3-0.6,1.4-3.6,0.9-4.9
			C127.4,29,127.3,28.8,127.1,28.7z"/>
	</g>
	<path d="M126.8,39.8c0.6-1.5,1.6-2.4,1.8-2.6l-1.3-1.7l0.1-0.1l1.4,1.8l-0.1,0c0,0-1.2,0.9-1.8,2.5L126.8,39.8z"/>
	<polygon points="126.4,38.2 126.3,38.1 127.2,37 126.7,35.7 126.9,35.6 127.4,37 	"/>
	<polygon points="123.8,39.4 124.5,36.5 125.5,35.9 125.5,36 124.6,36.6 123.9,39.4 	"/>
	<polygon points="121.8,38.8 122.9,36.1 124,35.6 124,35.8 123,36.2 121.9,38.9 	"/>
</g>
<path class="st12" d="M81.5,55.5c0,0,4.4-6.2,11.1-6s14.6,1.9,16.7-1.9c-0.6-5.5-16.2-2.2-12.6,5.3c3.7,6.2,26.3-3.1,26.3-13.4"/>
<path d="M129.7,34.9c0.4-0.2,0.7-0.3,1-0.3c0.4,0.1,0.5,0.4,0.5,0.4l-0.1,0.1c0,0-0.1-0.2-0.4-0.3c-0.3-0.1-0.6,0.1-1,0.3l-0.1-0.1
	C129.6,34.9,129.7,34.9,129.7,34.9z"/>
<g>
	<path class="st3" d="M58.2,37.8c0.1-0.3,0.2-0.7,0.2-1.1c0-2.1-1.7-3.8-3.8-3.8h-0.6c-0.3-3.6-3.3-6.4-7-6.4c-3,0-5.6,1.9-6.6,4.6
		c-0.3-0.2-0.7-0.3-1.1-0.3c-1.4,0-2.5,1.1-2.5,2.5c0,0.3,0.1,0.6,0.2,0.9H36c-1.7,0-3.1,1.4-3.1,3.1c0,0.1,0,0.3,0,0.4H58.2z"/>
	<path d="M58.2,38H32.9c-0.1,0-0.2-0.1-0.2-0.2l0-0.1c0-0.1,0-0.2,0-0.3c0-1.8,1.5-3.3,3.3-3.3h0.6c-0.1-0.2-0.1-0.5-0.1-0.7
		c0-1.5,1.2-2.7,2.7-2.7c0.4,0,0.7,0.1,1,0.2c1.1-2.7,3.8-4.6,6.7-4.6c3.7,0,6.8,2.7,7.2,6.4h0.4c2.2,0,4,1.8,4,4
		c0,0.4-0.1,0.8-0.2,1.2C58.3,37.9,58.2,38,58.2,38z M33,37.6h25c0.1-0.3,0.1-0.6,0.1-0.9c0-2-1.6-3.7-3.7-3.7h-0.6
		c-0.1,0-0.2-0.1-0.2-0.2c-0.3-3.6-3.3-6.2-6.8-6.2c-2.9,0-5.5,1.8-6.4,4.5c0,0-0.1,0.1-0.1,0.1c0,0-0.1,0-0.1,0
		c-0.3-0.2-0.7-0.2-1-0.2c-1.3,0-2.4,1.1-2.4,2.4c0,0.3,0.1,0.6,0.2,0.9c0,0.1,0,0.1,0,0.2c0,0-0.1,0.1-0.1,0.1H36c-1.6,0-3,1.3-3,3
		C33,37.5,33,37.6,33,37.6z"/>
</g>
<g>
	<path class="st3" d="M122.9,20.3c0.1-0.2,0.1-0.5,0.1-0.8c0-1.5-1.2-2.7-2.7-2.7H120c-0.2-2.5-2.3-4.4-4.9-4.4
		c-2.1,0-3.9,1.3-4.6,3.2c-0.2-0.1-0.5-0.2-0.8-0.2c-1,0-1.8,0.8-1.8,1.8c0,0.2,0,0.4,0.1,0.6h-0.6c-1.2,0-2.2,1-2.2,2.2
		c0,0.1,0,0.2,0,0.3H122.9z"/>
	<path d="M122.9,20.5h-17.5c-0.1,0-0.1,0-0.1-0.1l0-0.1c0-0.1,0-0.1,0-0.2c0-1.3,1-2.3,2.3-2.3h0.4c0-0.2-0.1-0.3-0.1-0.5
		c0-1,0.8-1.9,1.9-1.9c0.2,0,0.5,0,0.7,0.1c0.8-1.9,2.6-3.2,4.6-3.2c2.6,0,4.7,1.9,5,4.4h0.3c1.5,0,2.8,1.2,2.8,2.8
		c0,0.3,0,0.5-0.1,0.8C123,20.4,123,20.5,122.9,20.5z M105.5,20.2h17.3c0.1-0.2,0.1-0.4,0.1-0.6c0-1.4-1.1-2.5-2.5-2.5H120
		c-0.1,0-0.1,0-0.1-0.1c-0.2-2.5-2.3-4.3-4.7-4.3c-2,0-3.8,1.3-4.5,3.1c0,0,0,0.1-0.1,0.1c0,0-0.1,0-0.1,0c-0.2-0.1-0.5-0.2-0.7-0.2
		c-0.9,0-1.6,0.7-1.6,1.6c0,0.2,0,0.4,0.1,0.6c0,0,0,0.1,0,0.1c0,0-0.1,0.1-0.1,0.1h-0.6c-1.1,0-2.1,0.9-2.1,2.1
		C105.5,20.1,105.5,20.2,105.5,20.2z"/>
</g>
<g>
	<path class="st3" d="M71.5,18.7c0.1-0.2,0.1-0.4,0.1-0.6c0-1.1-0.9-2.1-2.1-2.1h-0.3c-0.2-1.9-1.8-3.4-3.8-3.4c-1.6,0-3,1-3.6,2.5
		c-0.2-0.1-0.4-0.1-0.6-0.1c-0.8,0-1.4,0.6-1.4,1.4c0,0.2,0,0.3,0.1,0.5h-0.5c-0.9,0-1.7,0.8-1.7,1.7c0,0.1,0,0.1,0,0.2H71.5z"/>
	<path d="M71.5,18.8H57.9c0,0-0.1,0-0.1-0.1l0,0c0-0.1,0-0.1,0-0.2c0-1,0.8-1.8,1.8-1.8h0.3c0-0.1-0.1-0.3-0.1-0.4
		c0-0.8,0.7-1.5,1.5-1.5c0.2,0,0.4,0,0.5,0.1c0.6-1.5,2-2.4,3.6-2.4c2,0,3.6,1.5,3.9,3.4h0.2c1.2,0,2.2,1,2.2,2.2
		C71.7,18.3,71.7,18.5,71.5,18.8C71.6,18.8,71.6,18.8,71.5,18.8z M58,18.6h13.4c0-0.2,0.1-0.3,0.1-0.5c0-1.1-0.9-2-2-2h-0.3
		c0,0-0.1,0-0.1-0.1c-0.2-1.9-1.8-3.4-3.7-3.4c-1.5,0-2.9,1-3.5,2.4c0,0,0,0-0.1,0.1c0,0-0.1,0-0.1,0c-0.2-0.1-0.4-0.1-0.6-0.1
		c-0.7,0-1.3,0.6-1.3,1.3c0,0.2,0,0.3,0.1,0.5c0,0,0,0.1,0,0.1c0,0,0,0-0.1,0h-0.5c-0.9,0-1.6,0.7-1.6,1.6C58,18.5,58,18.6,58,18.6z
		"/>
</g>
</svg>
