<?xml version="1.0" encoding="UTF-8" standalone="no"?>
<!-- Generator: Adobe Illustrator 19.0.0, SVG Export Plug-In . SVG Version: 6.00 Build 0)  -->

<svg
   xmlns:dc="http://purl.org/dc/elements/1.1/"
   xmlns:cc="http://creativecommons.org/ns#"
   xmlns:rdf="http://www.w3.org/1999/02/22-rdf-syntax-ns#"
   xmlns:svg="http://www.w3.org/2000/svg"
   xmlns="http://www.w3.org/2000/svg"
   xmlns:sodipodi="http://sodipodi.sourceforge.net/DTD/sodipodi-0.dtd"
   xmlns:inkscape="http://www.inkscape.org/namespaces/inkscape"
   version="1.1"
   id="Capa_1"
   x="0px"
   y="0px"
   viewBox="-252 378.9 89.3 85"
   style="enable-background:new -252 378.9 89.3 85;"
   xml:space="preserve"
   inkscape:version="0.91 r13725"
   sodipodi:docname="plugins.svg"><metadata
     id="metadata52"><rdf:RDF><cc:Work
         rdf:about=""><dc:format>image/svg+xml</dc:format><dc:type
           rdf:resource="http://purl.org/dc/dcmitype/StillImage" /></cc:Work></rdf:RDF></metadata><defs
     id="defs50" /><sodipodi:namedview
     pagecolor="#ffffff"
     bordercolor="#666666"
     borderopacity="1"
     objecttolerance="10"
     gridtolerance="10"
     guidetolerance="10"
     inkscape:pageopacity="0"
     inkscape:pageshadow="2"
     inkscape:window-width="1920"
     inkscape:window-height="1016"
     id="namedview48"
     showgrid="false"
     inkscape:zoom="11.440445"
     inkscape:cx="45.2"
     inkscape:cy="27.618151"
     inkscape:window-x="0"
     inkscape:window-y="27"
     inkscape:window-maximized="1"
     inkscape:current-layer="Capa_1" /><style
     type="text/css"
     id="style3">
	.st0{fill:url(#SVGID_1_);}
	.st1{fill:#E6E6E6;}
	.st2{fill:#F2F2F2;}
	.st3{fill:#CCCCCC;}
	.st4{fill:#B3B3B3;}
</style><g
     id="g5"><g
       id="g7"><g
         id="g9"><g
           id="g11"><linearGradient
             id="SVGID_1_"
             gradientUnits="userSpaceOnUse"
             x1="-208.1834"
             y1="444.7237"
             x2="-190.6473"
             y2="483.8078"><stop
               offset="0"
               style="stop-color:#E6E6E6"
               id="stop14" /><stop
               offset="1"
               style="stop-color:#58666E"
               id="stop16" /></linearGradient><polygon
             class="st0"
             points="-233.5,454.9 -234.9,446.1 -177.7,446 -178.9,454.9     "
             id="polygon18" /></g></g><polygon
         class="st1"
         points="-240.6,410.9 -225.2,386.9 -188.5,386.9 -173,410.9   "
         id="polygon20" /><polygon
         class="st2"
         points="-233.5,454.9 -240.6,410.9 -173,410.9 -178.9,454.9   "
         id="polygon22" /></g><g
       id="g24"><path
         class="st3"
         d="M-204,384.9v5.8c0,1.4,1.8,2.5,6,2.5c4.2,0,6-1.1,6-2.5v-5.8H-204z"
         id="path26" /><ellipse
         class="st4"
         cx="-197.8"
         cy="384.7"
         rx="6.2"
         ry="2"
         id="ellipse28" /></g><g
       id="g30"><path
         class="st3"
         d="M-223,384.9v5.8c0,1.4,2.3,2.5,6.5,2.5c4.2,0,6.5-1.1,6.5-2.5v-5.8H-223z"
         id="path32" /><ellipse
         class="st4"
         cx="-216.4"
         cy="384.7"
         rx="6.2"
         ry="2"
         id="ellipse34" /></g><g
       id="g36"><path
         class="st3"
         d="M-227,396.9v8.6c0,1.8,3.1,3.2,8.5,3.2c5.4,0,8.5-1.4,8.5-3.2v-8.6H-227z"
         id="path38" /><ellipse
         class="st4"
         cx="-218.8"
         cy="397.7"
         rx="8.7"
         ry="2.8"
         id="ellipse40" /></g><g
       id="g42"><path
         class="st3"
         d="M-204,396.9v8.6c0,1.8,3.1,3.2,8.5,3.2c5.4,0,8.5-1.4,8.5-3.2v-8.6H-204z"
         id="path44" /><ellipse
         class="st4"
         cx="-195.6"
         cy="397.7"
         rx="8.7"
         ry="2.8"
         id="ellipse46" /></g></g><text
     xml:space="preserve"
     style="font-style:normal;font-variant:normal;font-weight:bold;font-stretch:normal;font-size:30px;line-height:125%;font-family:sans-serif;-inkscape-font-specification:'sans-serif Bold';text-align:center;letter-spacing:0px;word-spacing:0px;writing-mode:lr-tb;text-anchor:middle;fill:#333333;fill-opacity:1;stroke:none;stroke-width:1px;stroke-linecap:butt;stroke-linejoin:miter;stroke-opacity:1"
     x="-206.62053"
     y="441.92966"
     id="modifyme"
     sodipodi:linespacing="125%"><tspan
       sodipodi:role="line"
       id="tspan3371"
       x="-224.62712"
       y="441.92966"></tspan></text>
</svg>