<?xml version="1.0" encoding="UTF-8" standalone="no"?>
<!-- Generator: Adobe Illustrator 19.0.0, SVG Export Plug-In . SVG Version: 6.00 Build 0)  -->

<svg
   xmlns:dc="http://purl.org/dc/elements/1.1/"
   xmlns:cc="http://creativecommons.org/ns#"
   xmlns:rdf="http://www.w3.org/1999/02/22-rdf-syntax-ns#"
   xmlns:svg="http://www.w3.org/2000/svg"
   xmlns="http://www.w3.org/2000/svg"
   xmlns:sodipodi="http://sodipodi.sourceforge.net/DTD/sodipodi-0.dtd"
   xmlns:inkscape="http://www.inkscape.org/namespaces/inkscape"
   version="1.1"
   id="Capa_1"
   x="0px"
   y="0px"
   viewBox="0 0 89.3 85"
   style="enable-background:new 0 0 89.3 85;"
   xml:space="preserve"
   inkscape:version="0.91 r13725"
   sodipodi:docname="rules.svg"><metadata
     id="metadata22"><rdf:RDF><cc:Work
         rdf:about=""><dc:format>image/svg+xml</dc:format><dc:type
           rdf:resource="http://purl.org/dc/dcmitype/StillImage" /></cc:Work></rdf:RDF></metadata><defs
     id="defs20" /><sodipodi:namedview
     pagecolor="#ffffff"
     bordercolor="#666666"
     borderopacity="1"
     objecttolerance="10"
     gridtolerance="10"
     guidetolerance="10"
     inkscape:pageopacity="0"
     inkscape:pageshadow="2"
     inkscape:window-width="1600"
     inkscape:window-height="836"
     id="namedview18"
     showgrid="false"
     inkscape:zoom="2.7764706"
     inkscape:cx="-62.500422"
     inkscape:cy="42.5"
     inkscape:window-x="1366"
     inkscape:window-y="27"
     inkscape:window-maximized="1"
     inkscape:current-layer="XMLID_80_" /><style
     type="text/css"
     id="style3">
	.st0{fill:#EBEBEB;}
	.st1{fill:#D9D9D8;}
	.st2{fill:#E6E6E6;}
	.st3{fill:#C7C5C4;}
	.st4{fill:#F2F2F2;}
	.st5{opacity:0.5;fill:#FFFFFF;}
</style><g
     id="XMLID_67_"><g
       id="XMLID_72_"><path
         id="XMLID_84_"
         class="st0"
         d="M52.1,24.3V12.6c1.4-0.4,2.2-0.9,2.2-1.4c0-1.3-4.5-2.2-10.2-2.3C38.5,8.9,34,9.8,34,11.1    c0,0.5,0.8,1,2.2,1.4v11.7c-13.3,19.9-57.4,52,8,52C109.5,76.2,65.4,44.2,52.1,24.3z" /><g
         id="XMLID_80_"><g
           id="XMLID_109_"><path
             id="XMLID_121_"
             class="st1"
             d="M52.6,25c0-0.5-0.1-1-0.1-1.5l0-9.4c2.3-0.6,6.3-5.3-8.9-5.2C30,9,33,13.2,35.8,14.1      c0,0,0,0,0,0v9.3c-0.1,0.6-0.2,1.2-0.3,1.8c-14,19.6-55.7,51,8.7,51C108.8,76.2,66.4,44.7,52.6,25z M44.1,74.9      c-59.2,0-22.4-28.9-8.2-47.3c0.3-0.3,1.8-2.6,2.2-3.4c0,0,0.4-9.1,0-9.7c0,0,6.9,0.8,11.6,0c0.3,2.5,0.2,7.9,0.2,9.4      c0.8,2,1.4,2.9,1.8,3.3C65.4,46.1,103.9,74.9,44.1,74.9z" /></g><text
           xml:space="preserve"
           style="font-style:normal;font-variant:normal;font-weight:bold;font-stretch:normal;font-size:30px;line-height:125%;font-family:sans-serif;-inkscape-font-specification:'sans-serif Bold';text-align:center;letter-spacing:0px;word-spacing:0px;writing-mode:lr-tb;text-anchor:middle;fill:#4d4d4d;fill-opacity:1;stroke:none;stroke-width:1px;stroke-linecap:butt;stroke-linejoin:miter;stroke-opacity:1;"
           x="46.296097"
           y="67.711861"
           id="modifyme"
           sodipodi:linespacing="125%"
           inkscape:label="#modifyme"><tspan
             sodipodi:role="line"
             id="tspan3361"
             x="46.296097"
             y="67.711861"></tspan></text>
</g><g
         id="XMLID_76_"><path
           id="XMLID_78_"
           class="st2"
           d="M52.8,10.8c-0.4-0.8-4-1.4-8.4-1.4c-0.1,0-0.2,0-0.2,0C48.5,9.4,52,10,52.8,10.8z" /><path
           id="XMLID_77_"
           class="st2"
           d="M35.9,10.9c0,0.9,3.8,1.6,8.5,1.6s8.5-0.7,8.5-1.6c0-0.1,0-0.1,0-0.2     C52,10,48.5,9.4,44.1,9.4C39.6,9.4,35.9,10.1,35.9,10.9z" /></g><ellipse
         id="XMLID_75_"
         class="st3"
         cx="43.8"
         cy="12"
         rx="6.7"
         ry="0.6" /><path
         id="XMLID_74_"
         class="st4"
         d="M52.7,10.6c0,0.1,0.1,0.2,0.1,0.3c0,0.9-3.8,1.6-8.4,1.6c-4.7,0-8.5-0.7-8.5-1.6    c0-0.9,3.7-1.6,8.2-1.6c-0.1,0-0.2,0-0.2,0c-5,0-9.1,0.8-9.1,1.8c0,1,4.1,1.8,9.1,1.8c5,0,9.1-0.8,9.1-1.8    C53,10.9,52.8,10.8,52.7,10.6z" /><path
         id="XMLID_73_"
         class="st5"
         d="M46.5,26.4c2.8-0.2,2-0.7,1-0.6c-1.9,0.3-6.9,0.4-7.6-0.6l-0.1-10.5l-1.5-0.1l0,9.7    c0,0-21.1,29.5-21.2,29.6C14.8,56.2,11,65.8,15.6,69c5.6,4,19.7,4.7,34.3,4.4c3.6,0.3-39.3,1.5-32.6-13.9    C20.3,52.4,38.2,27.1,46.5,26.4z" /></g></g></svg>
